<svg xmlns="http://www.w3.org/2000/svg" width="32" height="32" viewBox="0 0 32 32">
    <circle cx="16" cy="16" r="16" fill="#1d9bf0"/>
    <path fill="#fff" d="M95 128.725a10.143 10.143 0 0 0 10.212-10.212c0-.155 0-.31-.01-.464a7.3 7.3 0 0 0 1.791-1.858 7.165 7.165 0 0 1-2.061.565 3.6 3.6 0 0 0 1.578-1.985 7.193 7.193 0 0 1-2.279.871 3.592 3.592 0 0 0-6.117 3.273 10.19 10.19 0 0 1-7.4-3.75 3.592 3.592 0 0 0 1.111 4.792 3.563 3.563 0 0 1-1.626-.449v.046a3.591 3.591 0 0 0 2.88 3.519 3.583 3.583 0 0 1-1.621.062 3.593 3.593 0 0 0 3.353 2.493 7.2 7.2 0 0 1-4.458 1.536 7.309 7.309 0 0 1-.856-.05 10.162 10.162 0 0 0 5.5 1.612" transform="translate(-81.247 -105.616)"/>
</svg>
