<svg xmlns="http://www.w3.org/2000/svg" width="56" height="56" viewBox="0 0 56 56">
    <defs>
        <style>
            .cls-4{fill:none;stroke:#000;stroke-miterlimit:10;stroke-width:1.5px}
        </style>
    </defs>
    <g id="ico_mymenu_list" transform="translate(10 8.315)">
        <path id="Fill_1" fill="none" d="M3.121 30.429A3.13 3.13 0 0 1 0 27.309V3.12A3.13 3.13 0 0 1 3.121 0h19.507a3.13 3.13 0 0 1 3.121 3.12v24.189a3.12 3.12 0 0 1-3.121 3.12z" transform="translate(.749 6.326)"/>
        <path id="Stroke_7" fill="#fec867" stroke="#000" stroke-miterlimit="10" stroke-width="1.5px" d="M8.12 0A8.121 8.121 0 1 1 0 8.12 8.121 8.121 0 0 1 8.12 0z" transform="translate(19.085 19.114)"/>
        <path id="Stroke_9" d="M12.187 5.069H1.17V0h17.555v1.308" class="cls-4" transform="translate(3.871 14.045)"/>
        <path id="Stroke_11" d="M0 0h7.016v10.244" class="cls-4" transform="translate(20.262 5.628)"/>
        <path id="Stroke_13" d="M20.231 31.127H0V0h5.726" class="cls-4" transform="translate(0 5.628)"/>
        <path id="Stroke_15" d="M12.875 6.458H0V2.475h3.674A4.274 4.274 0 0 1 7.8 0a4.272 4.272 0 0 1 4.128 2.475h3.674v3.983z" class="cls-4" transform="translate(5.43 1.685)"/>
        <path id="Stroke_17" d="M0 .391h12.281" class="cls-4" transform="translate(3.87 25.209)"/>
        <path id="Stroke_19" d="M0 .391h12.281" class="cls-4" transform="translate(3.87 29.122)"/>
        <path id="Stroke_23" fill="none" stroke="#000" stroke-linecap="round" stroke-linejoin="round" stroke-miterlimit="10" stroke-width="1.5px" d="M0 0v4.359l3.116-1.4" transform="translate(27.206 23.191)"/>
    </g>
</svg>
