<svg xmlns="http://www.w3.org/2000/svg" width="40" height="40.088" viewBox="0 0 40 40.088">
    <defs>
        <style>
            .cls-6,.cls-7{stroke:none}.cls-7{fill:#000}
        </style>
    </defs>
    <g id="ico_main_more_del" transform="translate(-3.59 1.691)">
        <g id="패스_4051" fill="#fff" stroke-dasharray="3.5 2">
            <path d="M26.828 22.507h.521l16.739 14.375v19.712h-34V36.882z" class="cls-6" transform="translate(-6.498 -18.198)"/>
            <path d="M31.126 25.75l1.08.928.092.08.016.013.007.005.01.01h.001l.006.005.003.003.005.004.002.002.002.002h.001l.004.003 1.427 1.226-.978 1.138-2.655-2.28.977-1.138zm4.173 3.584l2.655 2.28-.977 1.138-2.655-2.28.977-1.138zm4.172 3.583l2.193 1.883.023.02.002.001.01.01h.002l.01.009.002.002.001.001h.001l.002.002.001.001.002.002.002.001.003.003.002.002.001.001.002.001.004.004.002.001.01.01.01.008.002.002.005.004.016.013.001.002c.002 0 .003.002.005.003l.005.005.003.002.002.002.002.002.005.004.001.001.004.004c.002 0 .003.002.004.003l.001.001.005.004.002.002.006.005.002.001.001.002h.001l.002.002.002.002.004.003.001.001.002.002h.001v.001l.005.004.006.005.001.001.008.007.002.002.008.007.002.001.004.003.002.002.006.005v.001l.002.001.001.001.001.001.001.001.002.001.008.007.001.001.004.003v.001l.002.001.005.005h.001l.002.002.001.001.012.01.002.002.008.007.001.001.002.001.001.002.003.002.003.003h.001v.001l.007.005.001.002h.001l.001.001.002.002.003.003c.002 0 .003.002.004.003l.003.002.001.002.004.002v.001l.002.001.002.002.147.126-.977 1.138-2.656-2.28.977-1.138zm4.173 3.583l.444.382v2.914h-1.5v-2.914h.728l.328-.382zm-1.056 5.296h1.5v3.5h-1.5v-3.5zm0 5.5h1.5v3.5h-1.5v-3.5zm0 5.5h1.5v3.5h-1.5v-3.5zm-3.701 2.298h3.5v1.5h-3.5v-1.5zm-5.5 0h3.5v1.5h-3.5v-1.5zm-5.5 0h3.5v1.5h-3.5v-1.5zm-5.5 0h3.5v1.5h-3.5v-1.5zm-5.5 0h3.5v1.5h-3.5v-1.5zm-6.799-2.701h1.5v2.701h3.299v1.5h-3.5v-.701h-1.299v-3.5zm0-5.5h1.5v3.5h-1.5v-3.5zm0-5.5h1.5v3.5h-1.5v-3.5zm.75-5.156l.554.645h.196-.196.196v.229l.228.264-.228.196v1.822h-1.5v-2.511l.032-.028.037-.032h.001l.002-.002.008-.007h.001l.005-.005.006-.005.002-.001.004-.004.004-.003.002-.002.003-.003.001-.001.003-.002.002-.002.007-.006.005-.004v-.001h.001l.001-.001.001-.001.005-.004.001-.001.001-.001.002-.002.002-.001.009-.008.007-.006.001-.001.002-.002.003-.003h.002l.001-.002.03-.026.006-.005.55-.473zm4.173-3.583l.977 1.138-2.655 2.28-.977-1.138 2.012-1.727v-.001l.007-.005.006-.006h.002c0-.002.001-.002.002-.003l.626-.538zm4.173-3.583l.977 1.138-2.655 2.28-.977-1.138 1.695-1.456.002-.001.014-.013.014-.011.002-.002.012-.01.006-.006.003-.002.002-.002.015-.013.89-.764zm4.173-3.583l.977 1.138-2.656 2.28-.977-1.138 2.656-2.28zm3.47-2.98h.522l2.26 1.94-.977 1.138-1.544-1.326-1.237 1.063-.977-1.138 1.885-1.619.006-.005.014-.012c.01-.01.02-.017.027-.023l.022-.019z" class="cls-7" transform="translate(-6.498 -18.198)"/>
        </g>
        <g id="패스_4052" fill="#fec867">
            <path d="M9.25 11.806H.75V4.72C.75 2.531 2.657.75 5 .75s4.25 1.782 4.25 3.971v7.085z" class="cls-6" transform="translate(15.59 25.84)"/>
            <path d="M5 1.5c-1.93 0-3.5 1.445-3.5 3.221v6.335h7V4.72C8.5 2.945 6.93 1.5 5 1.5M5 0c2.761 0 5 2.114 5 4.721v7.835H0V4.72C0 2.114 2.239 0 5 0z" class="cls-7" transform="translate(15.59 25.84)"/>
        </g>
        <path id="Fill_5" fill="#fff" stroke="#000" stroke-linecap="round" stroke-width="1.5px" d="M6.78 0A6.779 6.779 0 1 1 0 6.78 6.779 6.779 0 0 1 6.78 0" transform="translate(26.783 5.324)"/>
        <path id="Stroke_21" fill="none" stroke="#000" stroke-miterlimit="10" stroke-width="1.5px" d="M0 0l4.222 4.788" transform="translate(38.251 16.998)"/>
    </g>
</svg>
