<svg xmlns="http://www.w3.org/2000/svg" width="56" height="56" viewBox="0 0 56 56">
    <defs>
        <style>
            .cls-2{fill:#fec867}.cls-2,.cls-4,.cls-5{stroke:#000;stroke-linecap:round;stroke-width:1.5px}.cls-2,.cls-4{stroke-linejoin:round}.cls-4,.cls-5{fill:#fff;stroke-miterlimit:10}.cls-5{fill:#525ec3}
        </style>
    </defs>
    <g id="ico_mymenu_form" transform="translate(9 9)">
        <g id="사각형_1236" class="cls-2">
            <path d="M4.005 0a4.005 4.005 0 0 1 4.006 4.005v4.006H0V4.005A4.005 4.005 0 0 1 4.005 0z" transform="translate(30.263)"/>
            <path fill="none" d="M4.005.75a3.255 3.255 0 0 1 3.256 3.255v3.231a.025.025 0 0 1-.025.025H.775a.025.025 0 0 1-.025-.025V4.005A3.255 3.255 0 0 1 4.005.75z" transform="translate(30.263)"/>
        </g>
        <path id="선_296" fill="none" stroke="#000" stroke-linecap="round" stroke-linejoin="round" stroke-width="1.5px" d="M0 0L5.146 0" transform="translate(9.54 11.38)"/>
        <path id="패스_3546" d="M325.35 323.908v-8.616c0-2.394 1.05-4.334 3.444-4.334h-25.849a4.334 4.334 0 0 0-4.334 4.334v30.923h26.739v-5.6" class="cls-4" transform="translate(-294.16 -310.246)"/>
        <path id="Stroke_10" d="M4.3 13.254l-4.3.86.86-4.3L10.319.356a1.216 1.216 0 0 1 1.719 0l1.719 1.719a1.217 1.217 0 0 1 0 1.719z" class="cls-4" transform="translate(24.887 13.958)"/>
        <path id="빼기_5" d="M24.033 7.121H6a6.007 6.007 0 0 1-6-6V0h21.255v3.344a3.321 3.321 0 0 0 2.778 3.286v.49z" class="cls-2" transform="translate(0 28.928)"/>
        <path id="Stroke_3" d="M0 .367h14.979" class="cls-5" transform="translate(9.908 12.094)"/>
        <path id="Stroke_3-2" d="M0 .367h14.979" class="cls-5" transform="translate(9.908 7.643)"/>
        <path id="Stroke_5" d="M0 .367h6.192" class="cls-5" transform="translate(9.908 16.693)"/>
    </g>
</svg>
