<svg xmlns="http://www.w3.org/2000/svg" width="56" height="56" viewBox="0 0 56 56">
    <g>
        <path fill="none" stroke="#000" stroke-linecap="round" stroke-miterlimit="10" stroke-width="1.5px" d="M4.647 13.278H0V0l7.907 1.684z" transform="translate(7.192 8) translate(.808 20.01)"/>
        <path fill="none" stroke="#000" stroke-linecap="round" stroke-linejoin="round" stroke-miterlimit="10" stroke-width="1.5px" d="M8.359.724c.034.013 5.967 1.269 5.967 1.269L22.958 0 27.2 2.286l-.444 1.242-14.089 5.433L-.7 5.01" transform="translate(7.192 8) translate(6.48 28.059)"/>
        <path fill="#fff" stroke="#000" stroke-linecap="round" stroke-linejoin="round" stroke-miterlimit="10" stroke-width="1.5px" d="M0 0l12.788 2.617L15.2 5.572" transform="translate(7.192 8) translate(9.081 23.708)"/>
        <g stroke="#000" stroke-width="1.5px">
            <g fill="#fec867" transform="translate(7.192 8) translate(-3.692 4) translate(22.5 -2)">
                <circle cx="11.5" cy="11.5" r="11.5" stroke="none"/>
                <circle cx="11.5" cy="11.5" r="10.75" fill="none"/>
            </g>
            <path fill="none" stroke-linecap="round" stroke-linejoin="round" d="M24.9 3.6l2.912 9.546L30.7 3.6l2.969 9.546L36.1 3.6" transform="translate(7.192 8) translate(-3.692 4) translate(3.099 1.9)"/>
            <path fill="none" stroke-linecap="round" d="M0 0L13 0" transform="translate(7.192 8) translate(-3.692 4) translate(27 8.5)"/>
        </g>
    </g>
</svg>
