<svg  viewBox="0 0 64 64" xmlns="http://www.w3.org/2000/svg">
    <g fill="none" fill-rule="evenodd">
        <path d="M52.444 13.778c2.7 0 4.89 2.189 4.89 4.889v4.889h-9.778v-4.89c0-2.7 2.188-4.888 4.888-4.888z" fill="#F4C215" fill-rule="nonzero"/>
        <path d="m52.444 12.444-.223.005c-3.357.132-5.999 2.874-5.999 6.218v6.222h12.445v-6.222a6.222 6.222 0 0 0-6.223-6.223zm-.143 2.67.143-.003.178.004A3.556 3.556 0 0 1 56 18.667v3.555h-7.111v-3.555c0-1.91 1.51-3.478 3.412-3.553z" fill="#1D1D1D" fill-rule="nonzero"/>
        <path stroke="#000" stroke-width="3" stroke-linecap="round" stroke-linejoin="round" d="M22.41 26.92h6.336"/>
        <path d="M48.286 29.777V19.133c0-2.958 1.268-5.355 4.158-5.355h-31.21c-2.89 0-5.234 2.397-5.234 5.355v38.2h32.285v-6.918" fill="#FFF" fill-rule="nonzero"/>
        <path d="M52.444 12.444c1.778 0 1.778 2.667 0 2.667-1.769 0-2.761 1.339-2.822 3.782l-.003.24v10.644a1.333 1.333 0 0 1-2.66.128l-.006-.128V19.133c0-1.436.263-2.72.772-3.77l.128-.252h-26.62c-2.085 0-3.8 1.693-3.895 3.832l-.005.19V56h29.618v-5.585c0-.693.53-1.262 1.206-1.327l.128-.006c.693 0 1.263.529 1.327 1.205l.006.128v6.918c0 .693-.528 1.263-1.205 1.328l-.128.006H16a1.333 1.333 0 0 1-1.327-1.205l-.006-.129v-38.2c0-3.615 2.819-6.57 6.354-6.685l.213-.004h31.21z" fill="#000" fill-rule="nonzero"/>
        <path d="M16.362 57.333c-3.144-.003-5.692-2.61-5.695-5.825v-3.064H36.61v4.175c.001 3.065 4.268 4.375 6.225 4.713H40l-23.638.001z" fill="#F4C215" fill-rule="nonzero"/>
        <path d="M36.61 47.111H10.667c-.737 0-1.334.597-1.334 1.333v3.064c.005 3.946 3.142 7.154 7.028 7.159l26.474-.001c1.632 0 1.835-2.37.227-2.647-2.786-.483-5.118-1.821-5.119-3.4v-4.175c0-.736-.597-1.333-1.333-1.333zm-1.334 2.667v2.841l.005.216c.052 1.21.536 2.229 1.32 3.065l.098.098L16.362 56l-.188-.004c-2.314-.105-4.171-2.068-4.174-4.49v-1.728h23.276z" fill="#000" fill-rule="nonzero"/>
        <path fill="#1D1D1D" d="M23.11 21.777H40.89V24H23.11zM23.11 27.111H40.89v2.222H23.11zM23.11 32.444h8v2.222h-8z"/>
        <g fill-rule="nonzero">
            <path d="m46.032 46.082-5.145 1.03 1.03-5.146L53.233 30.65a1.455 1.455 0 0 1 2.058 0l2.058 2.056c.567.569.567 1.49 0 2.058L46.032 46.082z" fill="#FFF"/>
            <path d="M54.263 28.889c-.74 0-1.449.294-1.972.817L40.974 41.024a1.333 1.333 0 0 0-.365.68l-1.03 5.146a1.333 1.333 0 0 0 1.57 1.569l5.144-1.03c.259-.051.496-.178.682-.364l11.318-11.32a2.79 2.79 0 0 0 0-3.942l-2.058-2.057a2.788 2.788 0 0 0-1.972-.817zm0 2.667c.032 0 .063.012.086.035l2.058 2.057.023.032a.124.124 0 0 1-.024.141L45.374 44.853l-2.788.559.558-2.789 11.033-11.032a.122.122 0 0 1 .086-.035z" fill="#000"/>
        </g>
    </g>
</svg>
