<svg xmlns="http://www.w3.org/2000/svg" width="56" height="56" viewBox="0 0 56 56">
    <defs>
        <style>
            .cls-1{fill:red;opacity:0}.cls-5{fill:#fff;stroke:#000;stroke-width:1.5px;stroke-linecap:round;stroke-miterlimit:10;stroke-linejoin:round}.cls-7{stroke:none}
        </style>
    </defs>
    <g id="ico_checklist_10_off" transform="translate(7.192 10)">
        <path id="guide" d="M0 0H56V56H0z" class="cls-1" transform="translate(-7.192 -10)"/>
        <path id="guide-2" d="M0 0H40V40H0z" class="cls-1" transform="translate(0.808 -2)"/>
        <g id="ico_checklist_10_off-2" transform="translate(0.874 1.4)">
            <g id="home" transform="translate(-45.48 -20.723)">
                <g id="패스_3512" fill="#fff">
                    <path d="M36.67 50.172H10.843V35.197l12.798-11.42h.233l12.798 11.42v14.975z" class="cls-7" transform="translate(44.787 -3.704)"/>
                    <path fill="#000" d="M23.756 24.678L11.592 35.533v13.89h24.329v-13.89L23.756 24.678m-.402-1.65h.805L37.42 34.86v16.061H10.092v-16.06l13.262-11.835z" transform="translate(44.787 -3.704)"/>
                </g>
                <g id="사각형_1208" fill="#fec867" stroke="#000" stroke-width="1.5px">
                    <path d="M4.019 0a4.019 4.019 0 0 1 4.019 4.019v7.441H0V4.019A4.019 4.019 0 0 1 4.019 0z" class="cls-7" transform="translate(64.524 35.76)"/>
                    <path fill="none" d="M4.019.75a3.269 3.269 0 0 1 3.269 3.269v6.426a.265.265 0 0 1-.265.265H1.015a.265.265 0 0 1-.265-.265V4.019A3.269 3.269 0 0 1 4.019.75z" transform="translate(64.524 35.76)"/>
                </g>
            </g>
            <g id="그룹_3639" transform="translate(-0.874 -1.31)">
                <path id="패스_4090" fill="#fff" d="M6.377 26.171c-1.586-3.533.895-5.659 2.576-5.687S26.078 23.8 26.078 23.8l3.375 4.25-9.625 2.938z"/>
                <path id="Stroke_6" d="M9.767.836c.04.015 6.895 1.464 6.895 1.464L26.635 0l4.9 2.642-.513 1.435-16.278 6.277L-.7 5.788-3.3 0l2.063-6.058" class="cls-5" transform="translate(8.254 25.666)"/>
                <path id="Stroke_5" fill="#fff" stroke="#000" stroke-linecap="round" stroke-miterlimit="10" stroke-width="1.5px" d="M5.369 15.342H0V0l9.136 1.946z" transform="translate(1.809 16.366)"/>
                <path id="Stroke_7" d="M0 0l14.776 3.024 2.787 3.414" class="cls-5" transform="translate(11.369 20.639)"/>
            </g>
        </g>
    </g>
</svg>
