<svg  viewBox="0 0 64 64" xmlns="http://www.w3.org/2000/svg">
    <g fill="none" fill-rule="evenodd">
        <path fill="#FFF" d="m54.222 46.222.89-15.616V16.89H8v32.887h18.241l-1.85 3.053-1.496 2.282h23.097"/>
        <path fill="#1D1D1D" fill-rule="nonzero" d="M56.889 16v15.556h-2.667v-12.89H9.778v30.221h19.275l-3.102 5.117-.144.218H36.89v2.667H20.87l2.824-4.307.623-1.028H7.111V16z"/>
        <path fill="#1D1D1D" d="M8.89 42.667h45.332v2.667H8.89z"/>
        <path d="M24 24.889v8.889h-8.889v-8.89H24zm-2.222 2.222h-4.445v4.445h4.445V27.11z" fill="#1D1D1D" fill-rule="nonzero"/>
        <path fill="#1D1D1D" d="M27.556 24.889h9.777v2.222h-9.777zM27.556 31.111h9.777v2.222h-9.777z"/>
        <g fill-rule="nonzero">
            <path d="M48.889 33.778c6.873 0 12.444 5.571 12.444 12.444 0 6.873-5.571 12.445-12.444 12.445-6.873 0-12.445-5.572-12.445-12.445s5.572-12.444 12.445-12.444z" fill="#F4C215"/>
            <path d="M48.889 33.778c6.873 0 12.444 5.571 12.444 12.444 0 6.873-5.571 12.445-12.444 12.445-6.873 0-12.445-5.572-12.445-12.445s5.572-12.444 12.445-12.444zm0 2.666c-5.4 0-9.778 4.378-9.778 9.778S43.49 56 48.89 56s9.778-4.378 9.778-9.778-4.378-9.778-9.778-9.778z" fill="#000"/>
            <path d="m52.362 42.642 1.942 1.827-4.72 5.014c-.389.413-.917.668-1.514.727l-.182.012h-.033a2.388 2.388 0 0 1-1.487-.515l-.135-.117-2.696-2.505 1.815-1.953 2.489 2.312 4.521-4.802z" fill="#000"/>
        </g>
    </g>
</svg>
