<svg  viewBox="0 0 64 64" xmlns="http://www.w3.org/2000/svg">
    <g fill="none" fill-rule="evenodd">
        <g fill-rule="nonzero">
            <path fill="#FFF" d="M10.667 30.223h26.667v28.444H10.667z"/>
            <path d="M37.333 30.222v28.445H10.667V30.222h26.666zm-2.666 2.667H13.333V56h21.334V32.889z" fill="#1D1D1D"/>
            <path fill="#FFF" d="M19.556 10.667h29.333v48H19.556z"/>
            <path d="M48.889 33.778h-2.667V13.333h-24V56H32.89v2.667H19.556v-48h29.333v23.11z" fill="#1D1D1D"/>
            <path fill="#1D1D1D" d="M27.556 26.667h3.556v3.556h-3.556zM27.556 19.555h3.556v3.556h-3.556z"/>
        </g>
        <path d="M37.333 58.667v-5.02c.168-2.78 2.42-4.897 5.051-4.75H55.39c2.63-.149 4.883 1.966 5.054 4.744v5.026h-23.11z" fill="#F4C215" fill-rule="nonzero"/>
        <path d="M60.444 53.64v5.027h-23.11v-5.02c.167-2.78 2.42-4.897 5.05-4.75H55.39c2.63-.149 4.883 1.966 5.054 4.744zm-4.769-2.084-.285.007H42.384l-.148-.004c-1.086-.06-2.077.828-2.227 2.089l-.009.1V56h17.778v-2.245l-.01-.11c-.144-1.208-1.06-2.073-2.093-2.09z" fill="#1D1D1D" fill-rule="nonzero"/>
        <path fill="#1D1D1D" d="M44.444 44.444h2.667v7.111h-2.667zM50.666 44.444h2.667v7.111h-2.667z"/>
        <path fill="#F4C215" fill-rule="nonzero" d="M40.89 38.222h16v8h-16z"/>
        <path d="M56.889 38.222v8h-16v-8h16zm-2.667 2.667H43.556v2.667h10.666v-2.667z" fill="#000" fill-rule="nonzero"/>
    </g>
</svg>
