<svg xmlns="http://www.w3.org/2000/svg" width="56" height="56" viewBox="0 0 56 56">
    <defs>
        <style>
            .cls-4{stroke:none}
        </style>
    </defs>
    <g id="ico_main_menu_view1" transform="translate(-5.314 -2.651)">
        <g id="합치기_62" fill="none">
            <path d="M4798.315 5012.651v-28l23.5-20 23.5 20v28z" class="cls-4" transform="translate(-4788 -4954)"/>
            <path fill="#fff" d="M4842.314 5009.65v-23.613l-20.5-17.447-20.5 17.447v23.614h41m3 3h-47v-28l23.5-20 23.5 20v28z" transform="translate(-4788 -4954)"/>
        </g>
        <g id="사각형_707" fill="none" stroke="#fff" stroke-width="3px">
            <path d="M7 0a7 7 0 0 1 7 7v12H0V7a7 7 0 0 1 7-7z" class="cls-4" transform="translate(26.314 39.651)"/>
            <path d="M7 1.5A5.5 5.5 0 0 1 12.5 7v9.529a.971.971 0 0 1-.971.971H2.471a.971.971 0 0 1-.971-.971V7A5.5 5.5 0 0 1 7 1.5z" transform="translate(26.314 39.651)"/>
        </g>
    </g>
</svg>
