<svg xmlns="http://www.w3.org/2000/svg" width="104" height="104" viewBox="0 0 104 104">
    <defs>
        <style>
            .cls-3{fill:#fff}.cls-3,.cls-6{stroke:#1d1d1d;stroke-width:2px}.cls-4{fill:#4b6ceb}.cls-6{fill:none}
        </style>
    </defs>
    <g id="ico_error_verybusy" transform="translate(-908 -283)">
        <ellipse id="타원_128" cx="50" cy="7" fill="#dedede" rx="50" ry="7" transform="translate(910 368)"/>
        <path id="사각형_1222" d="M0 0H7V79H0z" class="cls-3" transform="translate(991 296)"/>
        <path id="사각형_1219" d="M0 0H7V79H0z" class="cls-3" transform="translate(922 296)"/>
        <path id="사각형_1220" d="M0 0H86.307V29.814H0z" class="cls-3" transform="translate(916.542 302.964)"/>
        <g id="그룹_2691" transform="translate(916.542 302.964)">
            <g id="그룹_2690">
                <path id="패스_3533" d="M517.725 1111.775l-12.806 28.445h-6.651v-9.786l8.4-18.659z" class="cls-4" transform="translate(-497.609 -1111.05)"/>
                <path id="패스_3534" d="M546.4 1111.775l-12.806 28.445h-11.066l12.806-28.445z" class="cls-4" transform="translate(-503.638 -1111.05)"/>
                <path id="패스_3535" d="M576.4 1111.775l-12.806 28.445H552.53l12.806-28.445z" class="cls-4" transform="translate(-511.092 -1111.05)"/>
                <path id="패스_3536" d="M604.113 1111.775v5.079l-10.52 23.367h-11.062l12.806-28.445z" class="cls-4" transform="translate(-518.497 -1111.05)"/>
            </g>
        </g>
        <g id="그룹_3656" transform="translate(5.464 70.828)">
            <g id="다각형_37" fill="#f4c215" stroke="none">
                <path d="M32.277 34H8.723c-1.451 0-2.749-.752-3.47-2.01-.722-1.26-.715-2.76.019-4.012L17.048 7.871c.726-1.238 2.016-1.978 3.452-1.978s2.726.74 3.452 1.978l11.776 20.107c.734 1.253.74 2.752.02 4.011-.722 1.26-2.02 2.011-3.471 2.011z" transform="translate(963.536 272.172)"/>
                <path fill="#1d1d1d" d="M20.5 6.893c-1.077 0-2.044.555-2.589 1.484L6.134 28.484c-.55.939-.555 2.064-.014 3.008C6.662 32.436 7.635 33 8.723 33h23.554c1.088 0 2.061-.564 2.603-1.508.54-.944.536-2.069-.014-3.008L23.089 8.377c-.545-.93-1.512-1.484-2.589-1.484m0-2c1.674 0 3.349.824 4.314 2.473l11.777 20.107C38.544 30.806 36.14 35 32.277 35H8.723c-3.863 0-6.267-4.194-4.314-7.527L16.186 7.366c.965-1.649 2.64-2.473 4.314-2.473z" transform="translate(963.536 272.172)"/>
            </g>
            <path id="선_527" d="M0 0L0 11.158" class="cls-6" transform="translate(984.036 285.286)"/>
            <path id="선_528" d="M0 0L0 1.717" class="cls-6" transform="translate(984.036 299.018)"/>
        </g>
    </g>
</svg>
