<svg  viewBox="0 0 64 64" xmlns="http://www.w3.org/2000/svg">
    <g fill-rule="nonzero" fill="none">
        <path d="M29.255 39.386c-4.832-1.56-6.895-5.28-6.895-9.067v-2.292h-4.466v2.358a9.869 9.869 0 0 1-7.227 9.699l2.298 3.42a11.735 11.735 0 0 0 7.26-6.576 11.303 11.303 0 0 0 6.695 5.845l2.335-3.387zm1.562 14.015H19.495v-2.557h11.322v2.557zm0-5.878H19.495v-2.69h-4.332V56.89H35.18V44.833h-4.363v2.69zm8.294-13.916v-3.586h-3.93v-3.354h-4.398v16.905h4.397v-3.72h3.931V36.3h-3.93v-2.69l3.93-.002z" fill="#FEC867"/>
        <g transform="translate(24.889 8)">
            <circle fill-opacity=".46" fill="#FFF" cx="16.444" cy="16.444" r="16.444"/>
            <path d="M16.444 0C25.526 0 32.89 7.362 32.89 16.444c0 9.082-7.363 16.445-16.445 16.445S0 25.526 0 16.444 7.362 0 16.444 0zm0 2.667c-7.609 0-13.777 6.168-13.777 13.777 0 7.61 6.168 13.778 13.777 13.778 7.61 0 13.778-6.168 13.778-13.778 0-7.609-6.168-13.777-13.778-13.777z" fill="#1D1D1D"/>
        </g>
        <path fill="#1D1D1D" d="m52.498 32.835 8.445 8.444-1.886 1.886-8.444-8.444z"/>
    </g>
</svg>
