<svg  viewBox="0 0 64 64" xmlns="http://www.w3.org/2000/svg">
    <g fill-rule="nonzero" fill="none">
        <path fill="#FFF" d="M9.778 26.667h26.667v32H9.778z"/>
        <path d="M36.444 26.667v32H9.778v-32h26.666zm-2.666 2.666H12.444V56h21.334V29.333z" fill="#1D1D1D"/>
        <path fill="#FFF" d="M18.667 7.111H48v51.556H18.667z"/>
        <path d="M48 7.111v51.556H18.667V7.11H48zm-2.667 2.667h-24V56h24V9.778z" fill="#1D1D1D"/>
        <path fill="#1D1D1D" d="M25.778 24h3.556v3.556h-3.556zM25.778 16.888h3.556v3.556h-3.556z"/>
        <g transform="translate(39.111 17.778)">
            <circle fill="#F4C215" cx="9.778" cy="9.778" r="9.778"/>
            <path d="M9.778 0c5.4 0 9.778 4.378 9.778 9.778s-4.378 9.778-9.778 9.778S0 15.178 0 9.778 4.378 0 9.778 0zm0 2.667a7.111 7.111 0 1 0 0 14.222 7.111 7.111 0 0 0 0-14.222z" fill="#1D1D1D"/>
            <path fill="#1D1D1D" d="m16.054 15.057 8 8-1.886 1.886-8-8z"/>
        </g>
    </g>
</svg>
