<svg xmlns="http://www.w3.org/2000/svg" width="56" height="56" viewBox="0 0 56 56">
    <defs>
        <style>
            .cls-3{stroke:#1d1d1d;stroke-width:2px;stroke-linecap:round;fill:none}.cls-7{stroke:none}
        </style>
    </defs>
    <g id="ico_menuetc_bond" transform="translate(-2.47 -2.122)">
        <g id="icn" transform="translate(4.47 6.122)">
            <path id="패스_263" fill="#fff" stroke="#1d1d1d" stroke-width="2px" d="M3066.833 1035.875h32.8s-4.661.4-4.661 7.779v33.189s.509 4.754-4.278 4.754h-28.174l-1.729-4.754v-33.189s-.341-7.779 6.042-7.779z" transform="translate(-3055.216 -1035.875)"/>
            <g id="패스_264" fill="#fff" stroke-linecap="round">
                <path d="M3064.747 1068.936c-.219-.05-.945-.251-1.79-.827-1.329-.907-2.326-2.28-2.963-4.08-.133-.823-.242-2.175-.125-3.409.133-1.41.481-1.834.567-1.87H3090.026c.024 0 .033.001.037.002.04.027.207.27.236.96.088 2.065.219 3.895.924 5.383.71 1.496 1.914 2.4 3.59 2.696-.228.284-.497.6-.776.91l-29.29.235z" class="cls-7" transform="translate(-3058.819 -1022.855)"/>
                <path fill="#1d1d1d" d="M3061.03 1059.75c-.081.286-.17.766-.2 1.483-.04.955.04 1.911.137 2.547 1.168 3.205 3.338 4 3.898 4.155l27.228-.218c-.868-.641-1.422-1.452-1.773-2.194-.786-1.657-.927-3.593-1.02-5.769v-.004h-28.27m-.58-2h29.576c.275 0 1.193.063 1.272 1.919.158 3.684.444 7.231 4.826 7.231h.138c.843 0-1.783 2.798-1.783 2.798l-29.829.24s-3.884-.615-5.628-5.66c-.374-2.175-.402-6.528 1.427-6.528z" transform="translate(-3058.819 -1022.855)"/>
            </g>
            <path id="패스_3624" d="M11.144 15.755h9.448" class="cls-3" transform="translate(2.942 -5.293)"/>
            <path id="패스_3625" d="M11.144 15.755h5.762" class="cls-3" transform="translate(2.942 1.56)"/>
        </g>
        <g id="돋보기" stroke="#1d1d1d" stroke-width="2px" transform="translate(30.503 13.415)">
            <g id="타원_207" fill="#f4c215">
                <circle cx="11.163" cy="11.163" r="11.163" class="cls-7"/>
                <circle cx="11.163" cy="11.163" r="10.163" fill="none"/>
            </g>
            <path id="패스_3609" fill="none" d="M29.561 28.4l7.771 8.223" transform="translate(-10.943 -10.211)"/>
        </g>
    </g>
</svg>
