<svg  viewBox="0 0 64 64" xmlns="http://www.w3.org/2000/svg">
    <g fill="none" fill-rule="evenodd">
        <path fill="#FFF" fill-rule="nonzero" d="M6.222 18.667h51.556v40H6.222z"/>
        <path d="M57.778 18.667v40H6.222v-40h51.556zm-2.667 2.666H8.89V56H55.11V21.333z" fill="#1D1D1D" fill-rule="nonzero"/>
        <path fill="#1D1D1D" d="M8 31.11h49.778v2.668H8z"/>
        <path d="M30.222 43.556v8H16v-8h14.222zm-2.667 2.666h-8.89v2.667h8.89v-2.667z" fill="#1D1D1D" fill-rule="nonzero"/>
        <g transform="translate(32.889 7.111)" fill-rule="nonzero">
            <circle fill="#F4C215" cx="14.667" cy="14.667" r="14.667"/>
            <path d="M14.667 0c8.1 0 14.666 6.566 14.666 14.667 0 8.1-6.566 14.666-14.666 14.666C6.567 29.333 0 22.767 0 14.667 0 6.567 6.566 0 14.667 0zm0 2.667c-6.628 0-12 5.372-12 12 0 6.627 5.372 12 12 12 6.627 0 12-5.373 12-12 0-6.628-5.373-12-12-12z" fill="#1D1D1D"/>
            <path d="M8.563 9.605c.55-.17 1.13.11 1.35.628l.038.107 1.937 6.307 1.922-6.304c.306-1.005 1.685-1.05 2.08-.124l.043.115 1.897 6.054 1.538-5.997a1.111 1.111 0 0 1 1.24-.823l.112.022c.558.143.907.684.823 1.241l-.022.112-2.507 9.777c-.267 1.044-1.69 1.12-2.094.17l-.042-.113-1.99-6.349-1.932 6.34c-.307 1.008-1.69 1.049-2.083.119l-.042-.116-3.004-9.778c-.18-.587.149-1.208.736-1.388z" fill="#000"/>
            <path d="M21.333 12.667a1.111 1.111 0 0 1 .114 2.216l-.114.006H8a1.111 1.111 0 0 1-.114-2.217L8 12.667h13.333z" fill="#000"/>
        </g>
    </g>
</svg>
