<svg xmlns="http://www.w3.org/2000/svg" width="48" height="48" viewBox="0 0 48 48">
    <defs>
        <style>
            .cls-9{fill:none}.cls-6{fill:#fff;stroke:#1d1d1d;stroke-width:2px}.cls-7,.cls-8{stroke:none}.cls-8{fill:#1d1d1d}
        </style>
    </defs>
    <g id="ico_quickapply_0204_on" transform="translate(139 -946.778)">
        <ellipse id="타원_254" cx="14" cy="4.5" fill="#1d1d1d" opacity="0.242" rx="14" ry="4.5" transform="translate(-139 985.778)"/>
        <g id="패스_4105" fill="#c79c06">
            <path d="M1.07 18.777l.3-5.356h11.28V-.506c3.293.08 7.001.32 8.993.464L17.897 7.8l-.17.355.119.376 3.22 10.24c-2.266-.318-6.57-.837-10.566-.837-4.003 0-7.594.52-9.43.842z" class="cls-7" transform="translate(-115.5 955.111)"/>
            <path d="M2.138 17.59c2.029-.307 5.06-.655 8.362-.655 3.26 0 6.718.34 9.141.64l-2.985-9.494 3.45-7.227C18.318.736 15.937.598 13.65.523V14.42H2.316l-.178 3.17M22.5 20s-6.375-1.065-12-1.065S0 20 0 20l.425-7.58H11.65V-1.524c5.025.067 11.525.595 11.525.595L18.8 8.232 22.5 20z" class="cls-8" transform="translate(-115.5 955.111)"/>
        </g>
        <g id="패스_4106" fill="none">
            <path d="M0 2.751h13.5s-.787-1.541 0 2.108C8.237 4.567 0 10.444 0 10.444z" class="cls-7" transform="translate(-115.5 964.667)"/>
            <path d="M2 4.751V6.8c.506-.297 1.056-.607 1.637-.918.787-.42 1.55-.797 2.285-1.13H2m11.232-2.324c.103 0 .268.323.268.323h-.349c-.007-.242.029-.323.08-.323zM0 2.751h13.151c.01.332.103.966.35 2.108C8.236 4.567 0 10.444 0 10.444V2.751z" class="cls-8" transform="translate(-115.5 964.667)"/>
        </g>
        <g id="패스_4107" fill="#f4c215">
            <path d="M5.369 21.226V2.102c.158-.132.37-.272.579-.306 1.468-.237 4.398-.635 7.53-.635 5.27 0 10.68.482 12.76.688v18.785H14.136c-2.546 0-6.767.392-8.767.592z" class="cls-7" transform="translate(-129.238 947.778)"/>
            <path d="M13.478 2.161c-2.886 0-5.602.346-7.11.581v17.382c2.214-.21 5.586-.49 7.768-.49h11.102V2.758c-2.473-.228-7.171-.597-11.76-.597m0-2c6.81 0 13.76.787 13.76.787v20.686H14.136c-3.337 0-9.767.702-9.767.702V1.689s.6-.748 1.42-.88C7.809.482 10.63.16 13.478.16z" class="cls-8" transform="translate(-129.238 947.778)"/>
        </g>
        <g id="그룹_3900">
            <g id="사각형_1909" class="cls-6">
                <path d="M3.5 0A3.5 3.5 0 0 1 7 3.5V40H0V3.5A3.5 3.5 0 0 1 3.5 0z" class="cls-7" transform="translate(-130 946.778)"/>
                <path d="M3.5 1A2.5 2.5 0 0 1 6 3.5v34.875a.625.625 0 0 1-.625.625h-3.75A.625.625 0 0 1 1 38.375V3.5A2.5 2.5 0 0 1 3.5 1z" class="cls-9" transform="translate(-130 946.778)"/>
            </g>
            <g id="사각형_1910" class="cls-6">
                <path d="M0 0H11V6H0z" class="cls-7" transform="translate(-132 984.778)"/>
                <path d="M1 1H10V5H1z" class="cls-9" transform="translate(-132 984.778)"/>
            </g>
        </g>
    </g>
</svg>
