<svg xmlns="http://www.w3.org/2000/svg" width="40" height="40" viewBox="0 0 40 40">
    <defs>
        <style>
            .cls-3{fill:none}.cls-3,.cls-5{stroke:#fff;stroke-linecap:round;stroke-width:1.5px}.cls-3,.cls-5{stroke-miterlimit:10}.cls-3{stroke-linejoin:round}.cls-5{fill:#525ec3}
        </style>
    </defs>
    <g id="ico_main_serviece_form" transform="translate(7.422 4)">
        <g id="그룹_3653" transform="translate(-4.422 1)">
            <g id="사각형_1236" fill="none" stroke="#fff" stroke-linecap="round" stroke-linejoin="round" stroke-width="1.5px">
                <path stroke="none" d="M3.405 0A3.405 3.405 0 0 1 6.81 3.405V7H0V3.405A3.405 3.405 0 0 1 3.405 0z" transform="translate(25.729)"/>
                <path d="M3.405.75A2.655 2.655 0 0 1 6.06 3.405V6.23a.02.02 0 0 1-.02.02H.77a.02.02 0 0 1-.02-.02V3.405A2.655 2.655 0 0 1 3.405.75z" transform="translate(25.729)"/>
            </g>
            <path id="패스_3546" d="M321.343 325.631v-10.988c0-2.035.893-3.685 2.928-3.685H302.3a3.685 3.685 0 0 0-3.685 3.685v26.289h22.732v-8.91" class="cls-3" transform="translate(-294.827 -310.353)"/>
            <path id="Stroke_10" d="M3.655 11.268L0 12l.731-3.656L8.773.3a1.034 1.034 0 0 1 1.462 0L11.7 1.764a1.035 1.035 0 0 1 0 1.462z" class="cls-3" transform="translate(21.158 11.866)"/>
            <path id="빼기_5" fill="#525ec3" stroke="#fff" stroke-linecap="round" stroke-linejoin="round" stroke-width="1.5px" d="M20.432 6.053H6a6.007 6.007 0 0 1-6-6V0h18.07v2.842a2.823 2.823 0 0 0 2.362 2.794v.416z" transform="translate(0 24.593)"/>
            <path id="Stroke_3" d="M0 .367h12.735" class="cls-5" transform="translate(8.423 10.227)"/>
            <path id="Stroke_3-2" d="M0 .367h12.735" class="cls-5" transform="translate(8.423 6.443)"/>
            <path id="Stroke_5" d="M0 .367h5.264" class="cls-5" transform="translate(8.423 14.136)"/>
        </g>
    </g>
</svg>
