<svg xmlns="http://www.w3.org/2000/svg" width="27" height="27" viewBox="0 0 27 27">
    <defs>
        <style>
            .cls-2{fill:#8f9bb3}
        </style>
    </defs>
    <g id="icon_quick_map" transform="translate(-13 -1)">
        <g id="Mask" transform="translate(16 4)">
            <path id="Shape" class="cls-2" d="M21.161 3.983a3.857 3.857 0 0 1-1.393 2.411v11.923l-5.3-.964H13.5L7.714 18.8H6.75l-5.3-1.929V1.924l5.3 1.446h.935L13.5 1.442h.53A3.857 3.857 0 0 1 15.221.183h-.029a1.446 1.446 0 0 0-.7-.183h-.043l-.964.029a1.446 1.446 0 0 0-.41.072l-5.6 1.823h-.53L1.827.53A1.446 1.446 0 0 0 0 1.924V16.87a1.446 1.446 0 0 0 .964 1.36l5.3 1.929a1.446 1.446 0 0 0 .482.087h.964a1.447 1.447 0 0 0 .352-.043l5.612-1.4h.656l5.173.964a1.446 1.446 0 0 0 1.707-1.446V4.363a1.446 1.446 0 0 0-.053-.381z"/>
            <path id="Shape-2" data-name="Shape" class="cls-2" d="M1.117 12.827a.858.858 0 0 1-.833-1.061l1.48-5.343A3.414 3.414 0 0 1 .346 4.937l.006.006a3.424 3.424 0 1 1 6.4-2.289 3.428 3.428 0 0 1-3.331 4.2l-1.486 5.369a.853.853 0 0 1-.818.604zm1.737-7.976a.847.847 0 0 1 .629.28 1.706 1.706 0 1 0-.92-.229.846.846 0 0 1 .291-.051z" transform="translate(13.216 .566)"/>
            <rect id="Rectangle" class="cls-2" width="1.714" height="14.857" rx=".857" transform="translate(6.316 3.194)"/>
        </g>
    </g>
</svg>
