<svg xmlns="http://www.w3.org/2000/svg" width="230" height="30" viewBox="0 0 230 30">
    <defs>
        <clipPath id="3i3rzssmfa">
            <path fill="red" d="M0 0H230V30H0z" opacity="0.207" transform="translate(1245 2968)"/>
        </clipPath>
        <filter id="tw5tlo3qnb" width="239.998" height="173" x="-4.999" y="-5" filterUnits="userSpaceOnUse">
            <feOffset dy="5"/>
            <feGaussianBlur result="blur" stdDeviation="5"/>
            <feFlood flood-color="#1d1d1d" flood-opacity=".2"/>
            <feComposite in2="blur" operator="in"/>
            <feComposite in="SourceGraphic"/>
        </filter>
    </defs>
    <g clip-path="url(#3i3rzssmfa)" transform="translate(-1245 -2968)">
        <g filter="url(#tw5tlo3qnb)" transform="matrix(1, 0, 0, 1, 1245, 2968)">
            <path fill="#1d1d1d" d="M-950.682 7482.339a5 5 0 0 1-5-5v-121a5 5 0 0 1 5-5h93l5.029-10.8a2.169 2.169 0 0 1 3.885 0l5.085 10.8h93a5 5 0 0 1 5 5v121a5 5 0 0 1-5 5z" opacity="0.8" transform="translate(965.68 -7334.34)"/>
        </g>
    </g>
</svg>
