<svg xmlns="http://www.w3.org/2000/svg" xmlns:xlink="http://www.w3.org/1999/xlink" width="24" height="24" viewBox="0 0 24 24">
    <defs>
        <path id="prefix__a" d="M22 1v14c0 .359-.192.69-.504.868l-5.908 3.94c-.024.019-.05.035-.075.05l-.017.01-.025.014c-.021.012-.043.022-.065.032l.09-.046c-.04.024-.083.044-.126.061-.03.012-.06.022-.09.031l-.019.005c-.027.008-.055.014-.084.02l-.046.006c-.043.006-.087.009-.131.009l.081-.003c-.023.002-.047.003-.07.003h-.044l-.078-.006-.061-.009-.047-.01c-.079-.017-.155-.044-.226-.08h-.002l-.024-.013c-.026-.013-.05-.028-.074-.044L8.03 16.134l-6.535 3.734C.83 20.25 0 19.768 0 19V5c0-.359.192-.69.504-.868l7-4 .025-.014c.021-.012.043-.022.065-.032l-.09.046c.04-.024.083-.044.126-.061.03-.012.06-.022.09-.031L7.74.035c.027-.008.055-.014.084-.02L7.869.01C7.912.003 7.956 0 8 0l-.082.003L7.99 0H8.035l.076.006.061.009.047.01c.079.017.155.044.226.08h.002l.024.013c.026.013.05.028.074.044l6.424 3.704L20.504.132C21.17-.25 22 .232 22 1zM9 2.693v11.732l5 2.883V5.576L9 2.693zm-2 .03L2 5.58v11.697l5-2.858V2.723zm13 0l-4 2.793v11.643l4-2.74V2.724z"/>
    </defs>
    <g fill="none" fill-rule="evenodd" transform="translate(1 2)">
        <mask id="prefix__b" fill="#fff">
            <use xlink:href="#prefix__a"/>
        </mask>
        <use fill="#000" fill-rule="nonzero" xlink:href="#prefix__a"/>
        <g fill="#000" mask="url(#prefix__b)">
            <path d="M0 0H24V24H0z" transform="translate(-1 -2)"/>
        </g>
    </g>
</svg>
