<svg xmlns="http://www.w3.org/2000/svg" xmlns:xlink="http://www.w3.org/1999/xlink" width="24" height="24" viewBox="0 0 24 24">
    <defs>
        <path id="prefix__a" d="M19.888 15.92c.013-.532-.357-.969-.85-1.038-1.035-.137-2.052-.39-3.032-.756-.365-.137-.777-.05-1.05.221l-1.27 1.27c-.32.319-.81.385-1.202.162-2.66-1.512-4.863-3.715-6.375-6.375-.223-.39-.156-.883.162-1.201l1.266-1.266c.275-.278.362-.69.224-1.057-.365-.978-.618-1.994-.753-3.02-.07-.497-.498-.865-1.01-.86H3c-.28 0-.548.119-.738.326-.189.207-.282.485-.258.748.311 2.935 1.31 5.755 2.92 8.24 1.456 2.292 3.4 4.235 5.7 5.697 2.465 1.6 5.271 2.597 8.175 2.913.28.026.559-.069.766-.259.208-.19.325-.46.324-.745v-3zm-7.617-1.717l1.201-.162c-.22-.125-.436-.255-.648-.39l-.553.552zm9.617 4.713c.004.845-.35 1.652-.972 2.223-.622.57-1.457.853-2.316.775-3.233-.351-6.338-1.456-9.058-3.22-2.54-1.614-4.694-3.768-6.303-6.3C1.463 9.654.359 6.533.012 3.27-.064 2.431.217 1.6.784.978 1.352.356 2.155 0 2.998 0h2.99c1.506-.015 2.79 1.09 3.002 2.59.116.885.333 1.754.644 2.588.412 1.097.149 2.332-.679 3.17l-.717.716c1.176 1.845 2.741 3.41 4.586 4.586l.721-.721c.833-.823 2.069-1.087 3.163-.676.836.312 1.706.529 2.6.647 1.504.212 2.611 1.514 2.58 3.031v2.985z"/>
    </defs>
    <g fill="none" fill-rule="evenodd" transform="translate(1 1)">
        <mask id="prefix__b" fill="#fff">
            <use xlink:href="#prefix__a"/>
        </mask>
        <use fill="#000" fill-rule="nonzero" xlink:href="#prefix__a"/>
        <g fill="#000" mask="url(#prefix__b)">
            <path d="M0 0H24V24H0z" transform="translate(-1 -1)"/>
        </g>
    </g>
</svg>
