<svg xmlns="http://www.w3.org/2000/svg" xmlns:xlink="http://www.w3.org/1999/xlink" width="40" height="40" viewBox="0 0 40 40">
    <defs>
        <path id="prefix__a" d="M29.857 12.676c-.039.087-.085.17-.137.249l-.032.046c-.017.024-.035.048-.054.07-.037.048-.078.093-.122.138l.081-.088-.06.067-.021.02-10 10c-.651.651-1.706.651-2.357 0-.651-.65-.651-1.706 0-2.357l7.154-7.155H1.667c-.872 0-1.588-.669-1.66-1.522L0 12c0-.92.746-1.667 1.667-1.667h22.642l-7.154-7.154c-.613-.613-.649-1.584-.108-2.239l.108-.119c.65-.65 1.706-.65 2.357 0l10 10 .01.011c.03.03.057.06.084.092l.023.027c.022.028.044.056.064.085l.027.038c.054.081.1.166.14.256l.018.043c.013.031.024.062.035.094l.015.047c.01.031.018.063.026.095l.011.05c.006.03.012.059.016.089l.009.067c.007.06.01.122.01.185l-.004-.112c.002.023.003.047.003.07L30 12v.041l-.004.071c-.001.025-.004.05-.006.073l-.01.067c-.003.03-.009.06-.015.089l-.011.05-.026.095-.015.047-.03.082-.02.047z"/>
    </defs>
    <g fill="none" fill-rule="evenodd" transform="translate(5 8)">
        <mask id="prefix__b" fill="#fff">
            <use xlink:href="#prefix__a"/>
        </mask>

        <g fill="#000" mask="url(#prefix__b)">
            <path d="M0 0H40V40H0z" transform="translate(-5 -8)"/>
        </g>
    </g>
</svg>
