<svg xmlns="http://www.w3.org/2000/svg" width="32" height="36" viewBox="0 0 32 36">
    <path fill="#BCBCBC" fill-rule="evenodd" d="M20.705 5.844C21.897 4.33 22.8 2.187 22.475 0c-1.95.133-4.229 1.361-5.558 2.961-1.212 1.45-2.208 3.607-1.82 5.7 2.132.066 4.331-1.191 5.608-2.817zm10.533 20.569c-.853 1.871-1.263 2.707-2.362 4.365-1.532 2.313-3.693 5.194-6.374 5.215-2.379.026-2.992-1.534-6.222-1.515-3.23.017-3.903 1.545-6.286 1.522-2.679-.024-4.726-2.623-6.259-4.937C-.553 24.6-1.004 17.01 1.64 12.973c1.881-2.865 4.848-4.542 7.635-4.542 2.837 0 4.622 1.541 6.97 1.541 2.28 0 3.667-1.545 6.948-1.545 2.483 0 5.115 1.34 6.987 3.651-6.139 3.332-5.145 12.013 1.058 14.335z"/>
</svg>
