<svg xmlns="http://www.w3.org/2000/svg" width="40" height="40" viewBox="0 0 40 40">
    <defs>
        <style>
            .cls-3{fill:none}.cls-4{fill:#4a5dc6}
        </style>
    </defs>
    <g id="btn_quick_cs" transform="translate(-15 118)">
        <g id="Group_10" transform="translate(23 -113)">
            <path id="Stroke_1" fill="none" stroke="#000" stroke-miterlimit="10" stroke-width="1.2px" d="M0 17.287V9.821A9.891 9.891 0 0 1 9.959 0h3.906a9.891 9.891 0 0 1 9.959 9.821v7.466a9.891 9.891 0 0 1-9.959 9.821H9.959" transform="translate(.573 .602)"/>
            <path id="Clip_4" d="M0 30.723h25V0H0z" class="cls-3"/>
            <path id="사각형_1246" d="M0 0h3.5A3.5 3.5 0 0 1 7 3.5v3A3.5 3.5 0 0 1 3.5 10 3.5 3.5 0 0 1 0 6.5V0z" class="cls-4" transform="translate(-1 11.412)"/>
            <path id="사각형_1247" d="M3.5 0H7v6.5A3.5 3.5 0 0 1 3.5 10 3.5 3.5 0 0 1 0 6.5v-3A3.5 3.5 0 0 1 3.5 0z" class="cls-4" transform="translate(19 11.412)"/>
            <g id="사각형_1248" fill="#999" stroke="#000" stroke-linecap="round" stroke-width="1.2px" transform="translate(9.715 24.356)">
                <rect width="6" height="5" stroke="none" rx="2"/>
                <rect width="4.8" height="3.8" x=".6" y=".6" class="cls-3" rx="1.4"/>
            </g>
        </g>
    </g>
</svg>
