<svg xmlns="http://www.w3.org/2000/svg" width="64" height="64" viewBox="0 0 64 64">
    <g transform="translate(49.586 24.919)">
        <rect width="64" height="64" rx="5" transform="translate(-49.586 -24.919)" style="fill:#f2f4f5"/>
        <path transform="translate(-33.586 -8.919)" style="opacity:.2;fill:none" d="M0 0h32v32H0z"/>
        <g data-name="패스 1917" style="fill:none">
            <path d="M22.938 23.137h.406l12.163 10.782v14.632H10.093V33.919z" style="stroke:none" transform="translate(-40.575 -28.951)"/>
            <path d="m23.12 24.943-11.527 9.675V47.05h22.414V34.593l-10.887-9.65m-.182-1.806h.406l12.163 10.782V48.55H10.093V33.92l12.845-10.782z" style="fill:#000;stroke:none" transform="translate(-40.575 -28.951)"/>
        </g>
        <g data-name="사각형 707" style="fill:#f4c215;stroke:#000;stroke-width:1.5px">
            <path d="M4.043 0a4.043 4.043 0 0 1 4.043 4.043V10.4H0V4.043A4.043 4.043 0 0 1 4.043 0z" style="stroke:none" transform="translate(-21.817 9.204)"/>
            <path d="M4.043.75a3.293 3.293 0 0 1 3.293 3.293v5.6H.75v-5.6A3.293 3.293 0 0 1 4.043.75z" style="fill:none" transform="translate(-21.817 9.204)"/>
        </g>
    </g>
</svg>
