<svg xmlns="http://www.w3.org/2000/svg" width="45" height="45" viewBox="0 0 45 45">
    <defs>
        <style>
            .cls-8{fill:none}.cls-6{stroke:none}
        </style>
    </defs>
    <g id="ico_mmain_menu_view1" transform="translate(0 5.129)">
        <g id="패스_1917" fill="#fff">
            <path d="M42.88 56.22H10.843V37.838l16.462-13.94L42.88 37.825V56.22z" class="cls-6" transform="translate(-10.093 -23.137)"/>
            <path fill="#000" d="M27.292 24.892L11.593 38.185V55.47H42.13V38.16L27.292 24.893m-.249-1.755h.537L43.63 37.49v19.48H10.093V37.49l16.95-14.353z" transform="translate(-10.093 -23.137)"/>
        </g>
        <g id="사각형_707" fill="#fff" stroke="#000" stroke-width="1.5px">
            <path d="M5.041 0a5.041 5.041 0 0 1 5.041 5.041v9.073H0V5.041A5.041 5.041 0 0 1 5.041 0z" class="cls-6" transform="translate(12.424 19.412)"/>
            <path d="M5.041.75a4.291 4.291 0 0 1 4.29 4.291v7.975a.348.348 0 0 1-.348.348H1.1a.348.348 0 0 1-.348-.348V5.041A4.291 4.291 0 0 1 5.041.75z" class="cls-8" transform="translate(12.424 19.412)"/>
        </g>
        <g id="yl" stroke="#000" stroke-width="1.5px" transform="translate(25.586 8.919)">
            <path id="선_351" fill="none" d="M7.142 7.142L0 0" transform="translate(10.971 10.971)"/>
            <g id="타원_163" fill="#f4c215">
                <circle cx="7.271" cy="7.271" r="7.271" class="cls-6"/>
                <circle cx="7.271" cy="7.271" r="6.521" class="cls-8"/>
            </g>
        </g>
    </g>
</svg>
