<svg xmlns="http://www.w3.org/2000/svg" width="24" height="24">
    <defs>
        <style>
            .cls-3{fill:none;stroke:#fff;stroke-linecap:round;stroke-linejoin:round}
        </style>
    </defs>
    <g id="ico_mmain_quick_examp" transform="translate(0 -9.931)">
        <g id="btn_quick_call" transform="translate(-20.668 122.931)">
            <path id="Icon_ionic-ios-call" data-name="Icon ionic-ios-call" d="M4.962 17.294a13.722 13.722 0 0 1 2.866-1.918c.859-.413 1.174-.4 1.782.034.506.366.834.706 1.416.578a8.448 8.448 0 0 0 2.845-2.105 8.388 8.388 0 0 0 2.105-2.845c.123-.587-.217-.91-.578-1.416-.438-.608-.451-.923-.034-1.782a13.451 13.451 0 0 1 1.918-2.866c.625-.625.766-.489 1.11-.366a6.316 6.316 0 0 1 1.016.54 3.066 3.066 0 0 1 1.222 1.288c.242.523.523 1.5-.906 4.04a22.545 22.545 0 0 1-3.964 5.286 22.632 22.632 0 0 1-5.286 3.964c-2.543 1.429-3.517 1.148-4.04.906a3.014 3.014 0 0 1-1.298-1.212A6.317 6.317 0 0 1 4.6 18.4c-.127-.341-.268-.481.362-1.106z" transform="translate(20.122 -113.085)" style="fill:none;stroke:#fff"/>
            <path id="Icon_feather-phone-call" data-name="Icon feather-phone-call" class="cls-3" d="M13.368 7.5a5.317 5.317 0 0 0-4.2 4.2" transform="translate(18.045 -113.955)"/>
            <path id="Icon_feather-phone-call-2" data-name="Icon feather-phone-call" class="cls-3" d="M11.622 1.5a9.571 9.571 0 0 0-8.454 8.444" transform="translate(20.5 -111.5)"/>
        </g>
    </g>
</svg>
