<svg xmlns="http://www.w3.org/2000/svg" width="45" height="45" viewBox="0 0 45 45">
    <defs>
        <style>
            .cls-1{fill:#fff}.cls-5,.cls-6{stroke:none}.cls-6{fill:#1d1d1d}
        </style>
    </defs>
    <g id="ico_mmain_menu_process" transform="translate(3 4.497)">
        <g id="패스_257" class="cls-1">
            <path d="M24.337 36.261L-7.29 34.646l-1.9-6.076 6.427-11.82H20.6l6.674 11.803-2.937 7.708z" class="cls-5" transform="translate(10 -9.672)"/>
            <path d="M-2.317 17.5l-6.062 11.15 1.65 5.273 30.56 1.561 2.617-6.869L20.163 17.5h-22.48m-.891-1.5h24.246L28.1 28.49l-3.257 8.548-32.694-1.67-2.15-6.877L-3.208 16z" class="cls-6" transform="translate(10 -9.672)"/>
        </g>
        <g id="패스_261" class="cls-1">
            <path d="M16.615 8.007H-3.362c-.145-1.428-.48-4.767-.61-6.444C-4 1.213-4.017.945-4.028.74h21.31c-.012.205-.03.473-.057.821-.13 1.677-.465 5.018-.61 6.446z" class="cls-5" transform="translate(12.424 .075)"/>
            <path d="M-3.226 1.49l.001.015c.112 1.443.378 4.13.54 5.752h18.622c.163-1.622.429-4.31.54-5.754l.002-.013H-3.226M18.012-.075c.037 0 .074.246-.039 1.694-.17 2.192-.68 7.138-.68 7.138H-4.04s-.511-4.944-.681-7.136C-4.833.171-4.796-.074-4.76-.074c.02 0 .039.064.039.064h22.693s.02-.065.039-.065z" class="cls-6" transform="translate(12.424 .075)"/>
        </g>
        <g id="패스_3634" fill="#f4c215">
            <path d="M22.783 8.933H-3.162c-.18-1.528-.62-5.316-.79-7.201-.039-.432-.062-.75-.076-.985H23.65c-.014.234-.038.553-.076.983-.17 1.885-.61 5.675-.79 7.203z" class="cls-5" transform="translate(9.24 5.106)"/>
            <path d="M-3.22 1.497l.015.168c.148 1.643.504 4.749.71 6.518h24.611c.207-1.77.563-4.876.71-6.52l.015-.166h-26.06M24.37-.075c.047 0 .094.272-.05 1.872-.218 2.422-.871 7.886-.871 7.886H-3.828S-4.481 4.221-4.7 1.8C-4.843.197-4.797-.074-4.75-.074c.025 0 .05.07.05.07h29.02s.025-.07.05-.07z" class="cls-6" transform="translate(9.24 5.106)"/>
        </g>
        <g id="패스_260" class="cls-1">
            <path d="M24.968 15.621H-6.229l-.858-13.785V.75h32.931v.793l-.876 14.078z" class="cls-5" transform="translate(9.933 11.71)"/>
            <path d="M-6.337 1.5v.313l.813 13.058h29.787l.831-13.35V1.5h-31.43m-1.5-1.5h34.43v1.567l-.921 14.804H-6.934L-7.837 1.86V0z" class="cls-6" transform="translate(9.933 11.71)"/>
        </g>
        <g id="빼기_6" class="cls-1">
            <path d="M37.746 16.092H.75V.75h11.683v3.836h13.629V.75h11.684v15.341z" class="cls-5" transform="translate(0 18.923)"/>
            <path d="M36.996 15.342V1.501H26.812v3.835H11.683V1.5H1.5v13.842H36.996m1.5 1.5H0V0h13.182l.001 3.836h12.129V0h13.184v16.841z" class="cls-6" transform="translate(0 18.923)"/>
        </g>
        <g id="사각형_133" fill="#fff" stroke="#1d1d1d" stroke-width="1.5px">
            <path d="M0 0H7.168V2.15H0z" class="cls-5" transform="translate(15.77 28.08)"/>
            <path fill="none" d="M0.75 0.75H6.418V1.4H0.75z" transform="translate(15.77 28.08)"/>
        </g>
    </g>
</svg>
