<svg xmlns="http://www.w3.org/2000/svg" width="64" height="64" viewBox="0 0 64 64">
    <g transform="translate(17.5 7)">
        <rect width="64" height="64" rx="5" transform="translate(-17.5 -7)" style="fill:#f2f4f5"/>
        <path transform="translate(-1.5 9)" style="opacity:.2;fill:none" d="M0 0h32v32H0z"/>
        <g data-name="다각형 41" style="fill:#f4c215">
            <path d="m10.287 27.076-2.128-3.064-.175-.253-.303-.057-3.645-.682-.15-3.748-.012-.305-.22-.21-2.708-2.57 1.882-3.238.152-.262-.073-.295-.902-3.642 3.311-1.694.273-.14.097-.29 1.188-3.55 3.684.383.307.032.241-.194L14 .963l2.894 2.334.24.194.308-.032 3.684-.383 1.188 3.55.097.29.273.14 3.31 1.694-.901 3.642-.073.295.152.262 1.882 3.238-2.707 2.57-.22.21-.013.305-.15 3.748-3.645.682-.303.057-.175.253-2.128 3.064-3.427-1.414-.286-.119-.286.119-3.427 1.414z" style="stroke:none" transform="translate(.5 11)"/>
            <path d="m14 1.927-2.904 2.342-3.702-.385-1.191 3.56-3.327 1.703.905 3.654-1.889 3.25 2.72 2.582.15 3.76 3.663.685 2.134 3.075L14 24.732l3.441 1.42 2.134-3.074 3.663-.685.15-3.76 2.72-2.581-1.889-3.251.905-3.654-3.327-1.702-1.191-3.56-3.702.384L14 1.927M14 0l3.365 2.713 4.282-.445 1.379 4.12 3.84 1.965-1.045 4.22L28 16.322l-3.137 2.979-.174 4.345-4.232.792L17.985 28 14 26.355 10.015 28l-2.472-3.56-4.232-.793-.174-4.345L0 16.323l2.18-3.75-1.046-4.22 3.84-1.965 1.38-4.12 4.281.445L14 0z" style="fill:#1d1d1d;stroke:none" transform="translate(.5 11)"/>
        </g>
        <path data-name="Stroke 20" d="M11 0 5.163 6.576a1.261 1.261 0 0 1-.9.423H4.22a1.255 1.255 0 0 1-.884-.363L0 3.35" transform="translate(9.5 22)" style="stroke:#1d1d1d;stroke-linejoin:round;stroke-miterlimit:10;stroke-width:1.5px;fill:none"/>
    </g>
</svg>
