<svg xmlns="http://www.w3.org/2000/svg" width="48" height="48" viewBox="0 0 48 48">
    <defs>
        <clipPath id="clip-path">
            <path id="사각형_1923" d="M0 0H40V11H0z" class="cls-1"/>
        </clipPath>
        <clipPath id="clip-path-2">
            <path id="사각형_1905" d="M0 0H40V10H0z" class="cls-1"/>
        </clipPath>
        <style>
            .cls-1{fill:#303871}.cls-11,.cls-4{fill:none}.cls-4,.cls-9{stroke:#1d1d1d;stroke-width:2px}.cls-8{fill:#1d1d1d}.cls-9{fill:#f4c215}.cls-10{stroke:none}
        </style>
    </defs>
    <g id="ico_quickapply_0202" transform="translate(0 0)">
        <g id="Icon_feather-refresh-cw" transform="translate(1 0)">
            <g id="마스크_그룹_53" clip-path="url(#clip-path)">
                <g id="타원_253" class="cls-4" transform="translate(0 1)">
                    <circle cx="23" cy="23" r="23" class="cls-10"/>
                    <circle cx="23" cy="23" r="22" class="cls-11"/>
                </g>
            </g>
            <g id="마스크_그룹_52" clip-path="url(#clip-path-2)" transform="translate(6 37)">
                <g id="타원_255" class="cls-4" transform="translate(-6 -36)">
                    <circle cx="23" cy="23" r="23" class="cls-10"/>
                    <circle cx="23" cy="23" r="22" class="cls-11"/>
                </g>
            </g>
            <path id="패스_4103" fill="none" stroke="#1d1d1d" stroke-linecap="round" stroke-linejoin="round" stroke-width="2px" d="M32.864 6v7.364H25.5" transform="translate(7.136 -2.775)"/>
        </g>
        <g id="그룹_3895" transform="translate(1 14)">
            <g id="ico_main_menu_view2" opacity="0.25">
                <path id="사각형_1801" d="M0 0H6V13H0z" class="cls-8" transform="translate(9 8)"/>
                <path id="빼기_3" d="M11 21H0V0h11v21zM6.5 6.5v4h1v-4zm-3 0v4h1v-4z" class="cls-8"/>
            </g>
            <g id="ico_main_menu_view2-2" transform="translate(31)">
                <g id="사각형_1801-2" class="cls-9">
                    <path d="M0 0H6V13H0z" class="cls-10" transform="translate(9 8)"/>
                    <path d="M1 1H5V12H1z" class="cls-11" transform="translate(9 8)"/>
                </g>
                <g id="사각형_1800" class="cls-9">
                    <path d="M0 0H11V21H0z" class="cls-10"/>
                    <path d="M1 1H10V20H1z" class="cls-11"/>
                </g>
                <path id="Op_component_2" d="M0 0H4V1H0z" class="cls-8" transform="translate(7.5 6.5) rotate(90)"/>
                <path id="Op_component_3" d="M0 0H4V1H0z" class="cls-8" transform="translate(4.5 6.5) rotate(90)"/>
            </g>
        </g>
    </g>
</svg>
