<svg xmlns="http://www.w3.org/2000/svg" width="35" height="35" viewBox="0 0 35 35">
    <path data-name="사각형 1949" style="opacity:.2;fill:none" d="M0 0h35v35H0z"/>
    <g data-name="그룹 3938">
        <g data-name="타원 255" transform="translate(14.498 21.999)" style="stroke:#1d1d1d;stroke-width:1.8px;fill:#fff">
            <circle cx="3" cy="3" r="3" style="stroke:none"/>
            <circle cx="3" cy="3" r="2.1" style="fill:none"/>
        </g>
        <g data-name="합치기 63" style="stroke-linecap:round;stroke-linejoin:round;fill:#fff">
            <path d="M19.49 18.1H1.487l1.78-3.399.104-.196V8c0-3.915 3.185-7.1 7.1-7.1 3.915 0 7.1 3.185 7.1 7.1v6.55l.108.2 1.811 3.35z" style="stroke:none" transform="translate(7 5.999)"/>
            <path d="m17.98 17.2-1.093-2.022a1.8 1.8 0 0 1-.216-.856V8c0-3.419-2.782-6.2-6.2-6.2A6.207 6.207 0 0 0 4.27 8v6.284c0 .29-.071.577-.206.835l-1.09 2.082H17.98M21 19H0l2.47-4.717V8a8 8 0 0 1 16 0v6.322L21 19.001z" style="fill:#1d1d1d;stroke:none" transform="translate(7 5.999)"/>
        </g>
    </g>
</svg>
