<svg xmlns="http://www.w3.org/2000/svg" width="240.002" height="89" viewBox="0 0 240.002 89">
    <defs>
        <filter id="mz6zgt9xoa" width="240.002" height="89" x="0" y="0" filterUnits="userSpaceOnUse">
            <feOffset dy="5"/>
            <feGaussianBlur result="blur" stdDeviation="5"/>
            <feFlood flood-color="#1d1d1d" flood-opacity=".2"/>
            <feComposite in2="blur" operator="in"/>
            <feComposite in="SourceGraphic"/>
        </filter>
    </defs>
    <g>
        <g filter="url(#mz6zgt9xoa)" transform="translate(-951 -2874) matrix(1, 0, 0, 1, 951, 2874)">
            <path fill="#1d1d1d" d="M103.005 79.8L98 69h13.934l-5.062 10.8a2.154 2.154 0 0 1-3.866 0zM5 69a5 5 0 0 1-5-5V27a5 5 0 0 1 5-5h200a5 5 0 0 1 5 5v37a5 5 0 0 1-5 5z" opacity="0.8" transform="translate(15 -12)"/>
        </g>
    </g>
</svg>
