<svg xmlns="http://www.w3.org/2000/svg" width="20" height="20" viewBox="0 0 20 20">
    <g data-name="패스 4068" style="fill:#f8faff">
        <path d="M16.667 19.5H3.333A2.837 2.837 0 0 1 .5 16.667V3.333A2.837 2.837 0 0 1 3.333.5h13.334A2.837 2.837 0 0 1 19.5 3.333v13.334a2.837 2.837 0 0 1-2.833 2.833z" style="stroke:none"/>
        <path d="M3.333 1A2.336 2.336 0 0 0 1 3.333v13.334A2.336 2.336 0 0 0 3.333 19h13.334A2.336 2.336 0 0 0 19 16.667V3.333A2.336 2.336 0 0 0 16.667 1H3.333m0-1h13.334A3.333 3.333 0 0 1 20 3.333v13.334A3.333 3.333 0 0 1 16.667 20H3.333A3.333 3.333 0 0 1 0 16.667V3.333A3.333 3.333 0 0 1 3.333 0z" style="fill:#4b6ceb;stroke:none"/>
    </g>
    <g data-name="bul_tree_1depth_open">
        <path data-name="선 80" transform="translate(5 9.758)" style="fill:none;stroke:#4b6ceb;stroke-width:1.5px" d="M10 0H0"/>
    </g>
</svg>
