<svg xmlns="http://www.w3.org/2000/svg" width="40" height="40" viewBox="0 0 40 40">
    <g data-name="패스 3525" style="fill:#fff">
        <path d="M41.713 54.023H10.84V36.701l15.9-13.178h.221l14.752 13.162v17.338z" style="stroke:none" transform="translate(-9.713 -14.773)"/>
        <path d="M26.837 24.417 11.59 37.054v16.22h29.373V37.02L26.837 24.417m-.367-1.644h.777L42.463 36.35v18.424H10.09V36.35l16.38-13.576z" style="fill:#000;stroke:none" transform="translate(-9.713 -14.773)"/>
    </g>
    <g data-name="사각형 1212" style="stroke-width:1.5px;stroke:#000;fill:#fff">
        <path d="M4.59 0a4.59 4.59 0 0 1 4.59 4.59V13H0V4.59A4.59 4.59 0 0 1 4.59 0z" style="stroke:none" transform="translate(11.666 27)"/>
        <path d="M4.59.75a3.84 3.84 0 0 1 3.84 3.84v7.66H.75V4.59A3.84 3.84 0 0 1 4.59.75z" style="fill:none" transform="translate(11.666 27)"/>
    </g>
    <g data-name="그룹 3646">
        <g data-name="타원 215" transform="translate(17)" style="fill:#4b6ceb;stroke-width:1.5px;stroke:#000">
            <circle cx="11.5" cy="11.5" r="11.5" style="stroke:none"/>
            <circle cx="11.5" cy="11.5" r="10.75" style="fill:none"/>
        </g>
        <path data-name="패스 4087" d="m24.9 3.6 2.281 7.474L29.442 3.6l2.325 7.474 1.9-7.474" transform="translate(-.618 4.693)" style="stroke-linejoin:round;stroke:#fff;stroke-linecap:round;fill:none;stroke-width:1.5px"/>
        <path data-name="선 590" transform="translate(23.5 10.642)" style="stroke:#fff;stroke-linecap:round;fill:none;stroke-width:1.5px" d="M0 0h10.18"/>
    </g>
</svg>
