<svg xmlns="http://www.w3.org/2000/svg" width="40" height="40" viewBox="0 0 40 40">
    <g transform="translate(.947 5.671)">
        <ellipse data-name="타원 211" cx="7.835" cy="7.71" rx="7.835" ry="7.71" transform="translate(7.449 -.635)" style="fill:#fff;stroke:#000;stroke-width:1.5px"/>
        <path data-name="Fill 1" d="M16.738 8.176c-3.8.6-6.131-3.569-6.131-3.569A13.681 13.681 0 0 1 0 8.13 8.479 8.479 0 0 1 8.368 0a8.488 8.488 0 0 1 8.369 8.176" transform="translate(6.915 -1.671)" style="stroke-linecap:round;fill:#fff;stroke:#000;stroke-width:1.5px"/>
        <g data-name="사각형 1363" style="fill:#fff;stroke:#000;stroke-width:1.5px">
            <path d="M7 0h17a7 7 0 0 1 7 7v9H0V7a7 7 0 0 1 7-7z" style="stroke:none" transform="translate(-.947 17.329)"/>
            <path d="M7 .75h17A6.25 6.25 0 0 1 30.25 7v8.25H.75V7A6.25 6.25 0 0 1 7 .75z" style="fill:none" transform="translate(-.947 17.329)"/>
        </g>
    </g>
    <g data-name="그룹 3634">
        <g data-name="패스 3521" style="fill:#4b6ceb">
            <path d="M29.118 41.536h-18.28V31.193l9.14-7.828 9.14 7.828v10.343z" style="stroke:none" transform="translate(9.611 -2.286)"/>
            <path d="m19.978 24.352-8.39 7.186v9.248h16.78v-9.248l-8.39-7.186m-.152-1.845h.304l9.738 8.341v11.438h-19.78V30.848l9.738-8.34z" style="fill:#000;stroke:none" transform="translate(9.611 -2.286)"/>
        </g>
        <g data-name="패스 3522" style="fill:none">
            <path d="M3.75 0A3.716 3.716 0 0 1 7.5 3.681V9.79H0V3.681A3.716 3.716 0 0 1 3.75 0z" style="stroke:none" transform="translate(25.999 30.21)"/>
            <path d="M3.75 1.5c-1.24 0-2.25.979-2.25 2.181v4.61H6V3.68C6 2.48 4.99 1.5 3.75 1.5m0-1.5C5.821 0 7.5 1.648 7.5 3.681v6.11H0V3.68C0 1.648 1.679 0 3.75 0z" style="fill:#fff;stroke:none" transform="translate(25.999 30.21)"/>
        </g>
        <g data-name="패스 4086" style="fill:none">
            <path d="M19.826 22.507h.3l9.738 8.341v11.438H10.088V30.848z" style="stroke:none" transform="translate(9.611 -2.286)"/>
            <path d="m19.978 24.352-8.39 7.186v9.248h16.78v-9.248l-8.39-7.186m-.152-1.845h.304l9.738 8.341v11.438h-19.78V30.848l9.738-8.34z" style="fill:#000;stroke:none" transform="translate(9.611 -2.286)"/>
        </g>
    </g>
</svg>
