<svg xmlns="http://www.w3.org/2000/svg" width="40" height="40" viewBox="0 0 40 40">
    <defs>
        <style>
            .cls-2,.cls-3{fill:#fff;stroke:#000;stroke-miterlimit:10;stroke-width:1.5px}.cls-3{fill:none}
        </style>
    </defs>
    <g id="ico_main_more_register3" transform="translate(-1.809 3)">
        <g id="Group_21" transform="translate(2.018 .209)">
            <path id="Stroke_7" d="M1 0h25.594v27.856H1z" class="cls-2" transform="translate(5.791 -2.209)"/>
            <path id="Stroke_7-2" d="M1 32.189V1h26.594v31.189z" class="cls-2" transform="translate(.791 .791)"/>
            <path id="Stroke_9" d="M0 .4h7" class="cls-3" transform="translate(15.793 9.203)"/>
            <path id="Stroke_11" d="M0 .4h7" class="cls-3" transform="translate(15.793 13.162)"/>
            <path id="Stroke_15" fill="none" stroke="#000" stroke-linecap="round" stroke-miterlimit="10" stroke-width="1.5px" d="M0 5h5V0H0z" transform="translate(6.532 8.789)"/>
        </g>
        <path id="Stroke_10" fill="#fec867" stroke="#000" stroke-linecap="round" stroke-linejoin="round" stroke-miterlimit="10" stroke-width="1.5px" d="M4.831 14.891L0 15.857l.966-4.831L11.593.4a1.366 1.366 0 0 1 1.932 0l1.932 1.931a1.368 1.368 0 0 1 0 1.932z" transform="translate(25.052 18.965)"/>
    </g>
</svg>
