<svg xmlns="http://www.w3.org/2000/svg" width="40" height="40" viewBox="0 0 40 40">
    <defs>
        <style>
            .cls-2,.cls-3{fill:#fff}.cls-2,.cls-3,.cls-5{stroke:#1d1d1d;stroke-width:1.5px}.cls-3,.cls-5{stroke:#000}.cls-5{stroke-miterlimit:10}.cls-5,.cls-8{fill:none}.cls-7{stroke:none}
        </style>
    </defs>
    <g id="ico_mymenu_reservation" transform="translate(-.81 2.001)">
        <g id="ico_법인" transform="translate(1.337 -.001)">
            <g id="사각형_1819" class="cls-2">
                <path d="M0 0H24V32H0z" class="cls-7" transform="translate(4.473 6)"/>
                <path d="M0.75 0.75H23.25V31.25H0.75z" class="cls-8" transform="translate(4.473 6)"/>
            </g>
            <g id="사각형_1818" class="cls-2">
                <path d="M0 0H24V40H0z" class="cls-7" transform="translate(-.527 -2)"/>
                <path d="M0.75 0.75H23.25V39.25H0.75z" class="cls-8" transform="translate(-.527 -2)"/>
            </g>
            <path id="Op_component_1" d="M0 0H5V5H0z" class="cls-3" transform="translate(5.44 4.47)"/>
            <path id="Op_component_3" d="M0 0H5V5H0z" class="cls-3" transform="translate(5.44 13.707)"/>
        </g>
        <g id="Group_19" transform="translate(6.057 .249)">
            <path id="Stroke_11" fill="#fec867" stroke="#000" stroke-miterlimit="10" stroke-width="1.5px" d="M0 6.559V3.187A3.411 3.411 0 0 1 3.584 0h9.229A3.412 3.412 0 0 1 16.4 3.185v3.374z" transform="translate(17.354 30.19)"/>
            <path id="Stroke_15" d="M.5 0v4.1" class="cls-5" transform="translate(22.499 26.093)"/>
            <path id="Stroke_17" d="M.5 0v4.1" class="cls-5" transform="translate(27.418 26.093)"/>
            <g id="사각형_1490" fill="#fec867" stroke="#000" stroke-width="1.5px">
                <path d="M0 0H11V5H0z" class="cls-7" transform="translate(19.751 19.75)"/>
                <path d="M0.75 0.75H10.25V4.25H0.75z" class="cls-8" transform="translate(19.751 19.75)"/>
            </g>
        </g>
    </g>
</svg>
