<svg xmlns="http://www.w3.org/2000/svg" width="40" height="40" viewBox="0 0 40 40">
    <defs>
        <style>
            .cls-2,.cls-4{fill:#fff;stroke:#000;stroke-miterlimit:10;stroke-width:1.5px}.cls-4{fill:none}
        </style>
    </defs>
    <g id="ico_main_more_confirm2" transform="translate(-19.808 11)">
        <g id="_018-check-list" transform="translate(21.105 -9.617)">
            <path id="Stroke_7" d="M20.465 33.342H0V0h27.594v33.342z" class="cls-2" transform="translate(1.494 4.023)"/>
            <path id="Stroke_5" d="M8.5 0A8.5 8.5 0 1 1 0 8.5 8.5 8.5 0 0 1 8.5 0z" class="cls-2" transform="translate(20.8 20.367)"/>
            <path id="Stroke_20" fill="none" stroke="#000" stroke-linejoin="round" stroke-miterlimit="10" stroke-width="1.5px" d="M6.462 0L3.033 3.918a.737.737 0 0 1-.533.252h-.021a.732.732 0 0 1-.519-.216L0 2" transform="translate(25.592 26.804)"/>
            <path id="Stroke_3" d="M0 .477l5.355.035" class="cls-4" transform="translate(8.108 27.072)"/>
            <path id="Stroke_3-2" d="M0 .477l8.407.035" class="cls-4" transform="translate(8.108 30.936)"/>
            <g id="그룹_2487" transform="translate(-13 -14)">
                <g id="제외_6" fill="#f4c215" stroke="none">
                    <path d="M-209.578 5134.123l-1.684-1.992-.234-.277-.363.012-2.607.08.217-2.598.03-.361-.264-.248-1.901-1.788 1.991-1.683.277-.234-.011-.363-.08-2.608 2.6.218.36.03.248-.264 1.787-1.9 1.685 1.99.234.277.362-.011 2.607-.081-.217 2.6-.03.36.264.249 1.9 1.786-1.992 1.685-.276.234.011.363.08 2.606-2.598-.217-.36-.03-.249.264-1.787 1.901zm.182-8.239c-.689 0-1.25.56-1.25 1.25s.561 1.25 1.25 1.25c.69 0 1.25-.56 1.25-1.25s-.56-1.25-1.25-1.25z" transform="translate(234.598 -5106.402)"/>
                    <path fill="#000" d="M-209.549 5132.996l1.212-1.288.496-.528.721.06 1.761.148-.055-1.766-.022-.724.553-.468 1.35-1.142-1.288-1.21-.527-.496.06-.722.147-1.762-1.767.055-.724.022-.468-.553-1.142-1.35-1.21 1.289-.496.527-.722-.06-1.762-.148.055 1.768.022.725-.553.467-1.35 1.141 1.289 1.211.528.496-.06.722-.148 1.76 1.767-.054.724-.023.468.554 1.141 1.35m.153-7.863c1.103 0 2 .897 2 2s-.897 2-2 2c-1.102 0-2-.897-2-2s.898-2 2-2m-.212 10.116v-.001l-2.227-2.634-3.449.108.287-3.438-2.514-2.364 2.634-2.226-.107-3.45 3.439.288 2.362-2.513 2.228 2.633 3.448-.107-.286 3.438 2.513 2.363-2.634 2.228.107 3.447-3.438-.287-2.362 2.514h-.001zm.212-8.616c-.275 0-.5.224-.5.5s.225.5.5.5c.276 0 .5-.224.5-.5s-.224-.5-.5-.5z" transform="translate(234.598 -5106.402)"/>
                </g>
                <path id="패스_3240" fill="none" stroke="#070203" stroke-width="1.5px" d="M346.708 419.554v5l-3.5-2.167-3.5 2.167v-5" transform="translate(-318.005 -391.321)"/>
            </g>
        </g>
    </g>
</svg>
