<svg xmlns="http://www.w3.org/2000/svg" width="55" height="55" viewBox="0 0 55 55">
    <g>
        <g>
            <path fill="#fff" d="M37.4 41.484V11.371a4.621 4.621 0 0 1 4.624-4.621H14.3a5.545 5.545 0 0 0-5.55 5.55v29.188z" transform="translate(-5.148 -5.597) translate(5.481 5.233)"/>
            <path d="M11.05 18.5h10.278v2.773H11.05z" transform="translate(-5.148 -5.597) translate(9.288 16.131)"/>
            <path d="M11.05 14.5h16.932v2.773H11.05z" transform="translate(-5.148 -5.597) translate(9.288 12.737)"/>
            <path d="M11.053 10.5H27.98v2.773H11.053z" transform="translate(-5.148 -5.597) translate(9.292 9.343)"/>
            <path d="M10.773 39.814H8V12.932A6.939 6.939 0 0 1 14.932 6H42.66v2.773H14.932a4.163 4.163 0 0 0-4.159 4.159z" transform="translate(-5.148 -5.597) translate(4.846 4.597)"/>
            <path d="M34.129 16.167h-9.243a1.387 1.387 0 0 1-1.386-1.386v-2.773a6.008 6.008 0 0 1 12.016 0v2.773a1.387 1.387 0 0 1-1.387 1.386zm-7.856-2.773h6.47v-1.386a3.235 3.235 0 1 0-6.47 0z" transform="translate(-5.148 -5.597) translate(17.998 4.597)"/>
            <path d="M26.186 35.482h-15.1A5.088 5.088 0 0 1 6 30.4v-5.474a1.387 1.387 0 0 1 1.386-1.386h14.863v2.773H8.773V30.4a2.314 2.314 0 0 0 2.311 2.311h15.1z" transform="translate(-5.148 -5.597) translate(3.148 19.48)"/>
            <path d="M23.5 10.75h2.825v15.713H23.5z" transform="translate(-5.148 -5.597) translate(17.998 8.627)"/>
        </g>
        <path fill="#f4c215" stroke="#000" stroke-linecap="round" stroke-linejoin="round" stroke-width="3px" d="M36.751 25.742h-4.019V34.3a1.437 1.437 0 0 1-1.432 1.434H17.181a1.437 1.437 0 0 1-1.433-1.434v-8.56h-4l12.493-10.99z" transform="translate(-5.148 -5.597) translate(18.937 18.029)"/>
    </g>
</svg>
