<svg xmlns="http://www.w3.org/2000/svg" width="40" height="40" viewBox="0 0 40 40">
    <g data-name="사각형 1826" style="stroke-width:1.5px;stroke:#1d1d1d;fill:#fff">
        <path style="stroke:none" d="M0 0h36v34H0z" transform="translate(0 3)"/>
        <path style="fill:none" d="M.75.75h34.5v32.5H.75z" transform="translate(0 3)"/>
    </g>
    <path data-name="Stroke 3" d="M0 .474h8.738" transform="translate(16.833 16.683)" style="stroke-miterlimit:10;stroke:#000;fill:none;stroke-width:1.5px"/>
    <path data-name="Stroke 5" d="M0 .474h4.368" transform="translate(16.833 21.008)" style="stroke-miterlimit:10;stroke:#000;fill:none;stroke-width:1.5px"/>
    <path data-name="Stroke 7" d="M0 6.506h6.506V0H0z" transform="translate(6.246 16.212)" style="stroke-linecap:round;stroke-miterlimit:10;stroke:#000;fill:none;stroke-width:1.5px"/>
    <path data-name="Stroke 9" d="M0 .474h33.764" transform="translate(1.34 9.586)" style="stroke-miterlimit:10;stroke:#000;fill:none;stroke-width:1.5px"/>
    <path data-name="Stroke 10" d="M4.831 14.891 0 15.857l.966-4.831L11.593.4a1.366 1.366 0 0 1 1.932 0l1.932 1.931a1.368 1.368 0 0 1 0 1.932z" transform="translate(23.249 14.971)" style="fill:#33386f;stroke-linejoin:round;stroke-linecap:round;stroke-miterlimit:10;stroke-width:1.5px;stroke:#1d1d1d"/>
</svg>
