<svg xmlns="http://www.w3.org/2000/svg" width="56" height="56" viewBox="0 0 56 56">
    <defs>
        <style>
            .cls-3{fill:#fff}.cls-8{fill:none}.cls-7,.cls-9{stroke:none}.cls-9{fill:#1d1d1d}
        </style>
    </defs>
    <g id="ico_mymenu_confirm" transform="translate(8.841 8.954)">
        <g id="패스_257" class="cls-3">
            <path d="M23.773 30.278l-31.13-1.344-1.83-4.948 5.9-12.34.433-.896h22.956l.758 1.154 5.763 12.054-2.85 6.32z" class="cls-7" transform="translate(10.159 -2.209)"/>
            <path d="M-2.383 11.5l-.228.471-5.762 12.052 1.547 4.184 30.124 1.3 2.498-5.54-5.591-11.693-.508-.774h-22.08m-.942-1.5h23.832l1.008 1.535L27.45 23.95l-3.202 7.1-32.135-1.387L-10 23.95l6.037-12.627.638-1.322z" class="cls-9" transform="translate(10.159 -2.209)"/>
        </g>
        <g id="패스_261" fill="none">
            <path d="M-4.735-.011h18.323s.137-.553 0 1.6-.55 7.016-.55 7.016H-4.185s-.412-4.86-.55-7.014 0-1.602 0-1.602z" class="cls-7" transform="translate(14.457 1.311)"/>
            <path d="M-3.238 1.489v.008c.09 1.406.3 4.01.433 5.61h14.464c.132-1.601.343-4.206.432-5.612v-.006h-15.33M13.62-.075c.03 0 .06.242-.032 1.666-.137 2.154-.55 7.015-.55 7.015H-4.185s-.412-4.86-.55-7.014c-.09-1.425-.061-1.666-.031-1.666.016 0 .031.063.031.063h18.323s.016-.064.032-.064z" class="cls-9" transform="translate(14.457 1.311)"/>
        </g>
        <g id="패스_3634" fill="#fec867">
            <path d="M23.047 8.767H-3.155c-.182-1.508-.626-5.22-.796-7.07-.039-.414-.062-.723-.076-.952h27.946c-.014.23-.037.537-.075.951-.171 1.849-.615 5.563-.797 7.07z" class="cls-7" transform="translate(8.938 6.257)"/>
            <path d="M-3.217 1.495l.012.134c.149 1.61.506 4.646.715 6.388h24.872c.209-1.743.566-4.78.715-6.39l.012-.132H-3.217M24.64-.075c.049 0 .096.267-.05 1.84-.22 2.38-.879 7.752-.879 7.752h-27.53s-.66-5.37-.88-7.75c-.145-1.575-.098-1.841-.05-1.841.026 0 .05.07.05.07h29.29s.025-.07.05-.07z" class="cls-9" transform="translate(8.938 6.257)"/>
        </g>
        <g id="패스_260" class="cls-3">
            <path d="M24.561 15.341H-6.24l-.847-13.537V.75h32.513v.766l-.865 13.825z" class="cls-7" transform="translate(9.972 13.451)"/>
            <path d="M-6.337 1.5v.281l.801 12.81h29.393L24.676 1.5H-6.337m-1.5-1.5h34.013v1.54l-.91 14.551h-32.21l-.893-14.263V0z" class="cls-9" transform="translate(9.972 13.451)"/>
        </g>
        <g id="빼기_6" class="cls-3">
            <path d="M36.592 14.913H.75V.75h11.667v2.879H25.838V.75h10.754v14.163z" class="cls-7" transform="translate(.159 21.432)"/>
            <path d="M35.842 14.163V1.5h-9.254v2.879H11.667V1.5H1.5v12.663h34.341m1.5 1.5H0V0h13.167v2.879h11.921V0h12.254v15.663z" class="cls-9" transform="translate(.159 21.432)"/>
        </g>
        <g id="사각형_133" fill="#fff" stroke="#1d1d1d" stroke-width="1.5px" transform="translate(15.764 29.542)">
            <path d="M0 0H7.046V1.5H0z" class="cls-7"/>
            <rect width="5.546" x=".75" y=".75" class="cls-8"/>
        </g>
    </g>
</svg>
