<svg xmlns="http://www.w3.org/2000/svg" width="48" height="48.001" viewBox="0 0 48 48.001">
    <defs>
        <clipPath id="clip-path">
            <path id="패스_4108" fill="#fff" d="M0 0h23l.256 5.919-4.844 3.293-12.418 9.979L5.063 25H0z" transform="translate(452 842.717)"/>
        </clipPath>
        <style>
            .cls-3{fill:#f4c215}.cls-3,.cls-6{stroke:#1d1d1d;stroke-width:2px}.cls-6,.cls-9{fill:none}.cls-8{stroke:none}
        </style>
    </defs>
    <g id="ico_quickapply_0201_on" transform="translate(-383.002 -528)">
        <g id="그룹_3898" transform="translate(-62.998 -299.717)">
            <g id="사각형_1906" class="cls-3" transform="translate(458 827.717)">
                <rect width="11" height="13" class="cls-8" rx="5.5"/>
                <rect width="9" height="11" x="1" y="1" class="cls-9" rx="4.5"/>
            </g>
            <path id="사각형_1924" fill="#f4c215" d="M0 0H11V26H0z" transform="translate(457 849.217)"/>
            <g id="마스크_그룹_54" clip-path="url(#clip-path)">
                <g id="사각형_1907" class="cls-3" transform="translate(452 842.717)">
                    <rect width="22" height="22" class="cls-8" rx="5"/>
                    <rect width="20" height="20" x="1" y="1" class="cls-9" rx="4"/>
                </g>
            </g>
            <path id="선_622" d="M0 0L0 25.473" class="cls-6" transform="translate(457.368 849.744)"/>
            <path id="선_623" d="M0 0L0 25.473" class="cls-6" transform="translate(468.285 849.744)"/>
            <path id="선_624" d="M0 0L0 12.737" class="cls-6" transform="translate(462.827 862.48)"/>
        </g>
        <path id="빼기_2" fill="#1d1d1d" d="M6164-2650l-8-9.194-.223-.367a11.12 11.12 0 0 1-2.771-7.355 11.049 11.049 0 0 1 3.222-7.837A10.886 10.886 0 0 1 6164-2678a10.888 10.888 0 0 1 7.778 3.245 11.049 11.049 0 0 1 3.222 7.837 11.059 11.059 0 0 1-1.02 4.666h.07l-.268.408a11.069 11.069 0 0 1-1.33 2.019l-.124.188L6164-2650zm0-23a4 4 0 0 0-4 4 4 4 0 0 0 4 4 4 4 0 0 0 4-4 4 4 0 0 0-4-4z" opacity="0.25" transform="translate(-5748 3226.001)"/>
    </g>
</svg>
