<svg  viewBox="0 0 64 64" xmlns="http://www.w3.org/2000/svg">
    <g fill="none" fill-rule="evenodd">
        <path fill="#FFF" d="M6.222 16.888h51.556v41.778H6.222z"/>
        <path d="M57.778 16.889v41.778H6.222V16.889h51.556zm-2.667 2.667H8.888V56h46.223V19.556z" fill="#1D1D1D" fill-rule="nonzero"/>
        <path fill="#F4C215" fill-rule="nonzero" d="M6.222 15.146h51.556V28.48H6.222z"/>
        <path d="M57.778 15.147V28.48H6.222V15.147h51.556zm-2.667 2.666H8.89v8H55.11v-8z" fill="#1D1D1D" fill-rule="nonzero"/>
        <path fill="#1D1D1D" d="M17.778 12.444h2.667v8h-2.667zM43.555 12.444h2.667v8h-2.667z"/>
        <path d="M27.574 48.124c2.368 0 4.4-1.245 4.4-3.472a2.941 2.941 0 0 0-2.304-2.896v-.079a2.728 2.728 0 0 0 1.92-2.625c0-2.128-1.616-3.28-4.08-3.28a5.6 5.6 0 0 0-3.696 1.472l1.44 1.744a3.167 3.167 0 0 1 2.128-.992c.88 0 1.36.444 1.36 1.264 0 .944-.64 1.568-2.672 1.568v2c2.496 0 3.04.608 3.04 1.632 0 .896-.72 1.36-1.824 1.36a3.634 3.634 0 0 1-2.48-1.156l-1.312 1.796a5.108 5.108 0 0 0 4.08 1.664zm5.888-.224h7.52v-2.304h-2.144v-9.6h-2.096a8.031 8.031 0 0 1-2.944 1.072v1.76h2.192v6.768h-2.528V47.9z" fill="#1D1D1D" fill-rule="nonzero"/>
    </g>
</svg>
