<svg  viewBox="0 0 64 64" xmlns="http://www.w3.org/2000/svg">
    <g fill="none" fill-rule="evenodd">
        <path fill="#FFF" d="M11.556 13.333h38.222v44.444H11.556z"/>
        <path d="M47.111 16H14.222v40h32.89v2.667H11.555V13.333h38.222v16H47.11V16z" fill="#1D1D1D" fill-rule="nonzero"/>
        <g fill="#000">
            <path d="M41.778 24v5.333H39.11v-2.666H22.222v4.444h14.222v2.666H19.556V24h22.222z" fill-rule="nonzero"/>
            <path d="M19.556 39.111H31.11v2.667H19.556zM19.556 45.333H31.11V48H19.556z"/>
        </g>
        <g fill-rule="nonzero">
            <path d="M37.56 16.379H20.935V10.85h4.742s.893-2.897 5.13-2.897c4.238 0 5.532 2.897 5.532 2.897h4.743v5.528h-3.52z" fill="#FFF"/>
            <path d="M30.813 7.111c-2.099 0-3.706.674-4.834 1.812l-.17.178c-.27.295-.486.591-.655.873l-.046.078h-5.014v8.012H41.92v-8.012h-5.086l-.007-.011a6.398 6.398 0 0 0-1.039-1.168c-1.24-1.104-2.897-1.762-4.975-1.762zm0 2.39c1.51 0 2.631.445 3.456 1.18.475.422.743.83.836 1.046l.304.715h4.19v3.232H22.415v-3.232h4.292l.25-.849c.056-.19.255-.568.646-.963.694-.7 1.718-1.13 3.209-1.13z" fill="#000"/>
        </g>
        <g fill-rule="nonzero">
            <path d="M47.998 34.667a13.333 13.333 0 1 1-13.331 13.331c0-7.362 5.969-13.33 13.331-13.331z" fill="#FEC867"/>
            <path d="M47.998 34.667a13.333 13.333 0 1 1-13.331 13.331c0-7.362 5.969-13.33 13.331-13.331zm0 2.666c-5.89.001-10.664 4.776-10.665 10.665A10.666 10.666 0 1 0 48.28 37.337l-.28-.004z" fill="#000"/>
            <path d="M48.333 41.778c.63 0 1.149.465 1.215 1.062l.007.13v4.765l3.894-1.463a1.236 1.236 0 0 1 1.525.565l.055.119a1.18 1.18 0 0 1-.58 1.488l-.12.053-5.556 2.089c-.759.285-1.571-.217-1.655-.983l-.007-.13V42.97c0-.658.547-1.192 1.222-1.192z" fill="#000"/>
        </g>
    </g>
</svg>
