<svg xmlns="http://www.w3.org/2000/svg" width="24" height="24" viewBox="0 0 24 24">
    <defs>
        <style>
            .cls-3{fill:#fff;fill-rule:evenodd}
        </style>
    </defs>
    <g id="ico_list_office" transform="translate(-1326 -763)">
        <path id="사각형_1410" fill="none" d="M0 0H24V24H0z" opacity="0.2" transform="translate(1326 763)"/>
        <path id="빼기_11" fill="#2590d1" d="M-7655 3478.951h-14a1 1 0 0 1-1-1v-18a1 1 0 0 1 1-1h11.047l-.048.048 4 4v14.951a1 1 0 0 1-.999 1.001z" transform="translate(9000 -2693.951)"/>
        <g id="그룹_2807" transform="translate(1306.373 643.663)">
            <path id="path3132" d="M66.329 127.1c-.031-.022-.064-.041-.1-.062a4.14 4.14 0 0 0-1.673-.593 4.052 4.052 0 0 0-2.921.813 4.187 4.187 0 0 0-1.959-.784 4.014 4.014 0 0 0-2.738.684l-.024.017a.12.12 0 0 0-.033.084.1.1 0 0 0 .084.108h.02a3.856 3.856 0 0 1 1.359-.077 4.335 4.335 0 0 1 3.241 1.824c.041.055.078.052.12 0a4.245 4.245 0 0 1 4.2-1.87c.092.011.183.026.273.044.031.005.08.016.108.019.055.008.085-.048.085-.107a.106.106 0 0 0-.045-.1z" class="cls-3" transform="translate(-28.375)"/>
            <path id="path3134" d="M29.506 162.2a.108.108 0 0 0 .082.041.117.117 0 0 0 .1-.06l.074-.13a7.762 7.762 0 0 1 6.948-4.032c.2 0 .405.01.6.028l.181.017a.147.147 0 0 0 .126-.161.169.169 0 0 0-.07-.144l-.015-.008a6.924 6.924 0 0 0-3.252-.821 7.313 7.313 0 0 0-4.936 2.009 6.966 6.966 0 0 0-3.482-.947 6.805 6.805 0 0 0-2.236.379 12.525 12.525 0 0 0 .287 1.308 7.086 7.086 0 0 1 5.581 2.509.051.051 0 0 0 .011.013z" class="cls-3" transform="translate(0 -24.803)"/>
        </g>
    </g>
</svg>
