<svg xmlns="http://www.w3.org/2000/svg" width="48" height="48" viewBox="0 0 48 48">
    <defs>
        <style>
            .cls-5{stroke:none}
        </style>
    </defs>
    <g id="ico_quickapply_0203" transform="translate(-383.002 -528)">
        <ellipse id="타원_246" cx="14" cy="4" fill="#fff" opacity="0.242" rx="14" ry="4" transform="translate(392.002 568)"/>
        <g id="합치기_63" fill="#303871">
            <path d="M10901.498-220.516l-11.927-13.53-.316-.511-.046-.075-.058-.065c-2.674-3.003-4.148-6.87-4.148-10.887 0-4.384 1.716-8.506 4.83-11.606 3.116-3.101 7.26-4.81 11.668-4.81 4.408 0 8.553 1.709 11.67 4.81 3.115 3.1 4.831 7.222 4.831 11.606 0 2.415-.515 4.74-1.53 6.91l-.227.488-.009.014-.03.045-.025.05c-.556 1.07-1.23 2.082-2.006 3.007l-.036.043-.032.047-.153.23-12.456 14.234z" class="cls-5" transform="translate(-10495 791)"/>
            <path fill="#fff" d="M10901.495-222.031l11.663-13.328.178-.268.073-.086c.729-.868 1.362-1.819 1.883-2.825l.05-.097.03-.043.195-.419c.953-2.037 1.435-4.22 1.435-6.487 0-4.116-1.611-7.986-4.537-10.897-2.928-2.914-6.821-4.518-10.964-4.518-4.142 0-8.035 1.604-10.962 4.518-2.925 2.91-4.536 6.78-4.536 10.897 0 3.772 1.383 7.402 3.894 10.222l.118.13.362.589 11.118 12.612m.006 3.03l-12.736-14.447-.36-.584c-2.739-3.074-4.402-7.12-4.402-11.552 0-9.619 7.834-17.415 17.498-17.415 9.665 0 17.501 7.796 17.501 17.415 0 2.62-.581 5.105-1.623 7.334h.11l-.42.632c-.592 1.143-1.307 2.212-2.129 3.19l-.189.286-13.25 15.141z" transform="translate(-10495 791)"/>
        </g>
        <g id="타원_249" fill="none" stroke="#fff" stroke-width="2px" transform="translate(400.002 536)">
            <circle cx="6.5" cy="6.5" r="6.5" class="cls-5"/>
            <circle cx="6.5" cy="6.5" r="5.5"/>
        </g>
    </g>
</svg>
