<svg viewBox="0 0 64 64" xmlns="http://www.w3.org/2000/svg">
    <g fill="none" fill-rule="evenodd">
        <path fill="#FFF" d="M16.889 18.667H47.11l9.778 18.666H7.11z"/>
        <path d="m47.111 18.667 9.778 18.666H7.11l9.778-18.666H47.11zm-1.614 2.666H18.502l-6.984 13.334h40.963l-6.984-13.334z" fill="#1D1D1D" fill-rule="nonzero"/>
        <path fill="#FFF" d="M19.556 10.667h24.888l-.995 11.555H20.55z"/>
        <path d="m44.444 10.667-.995 11.555H20.55l-.995-11.555h24.888zm-2.906 2.666H22.46l.536 6.223h18.005l.536-6.223z" fill="#1D1D1D" fill-rule="nonzero"/>
        <path fill="#F4C215" d="M12.444 17.778h39.112L49.99 35.556H14.01z"/>
        <path d="M51.556 17.778 49.99 35.556H14.01l-1.565-17.778h39.112zm-2.912 2.666H15.356L16.45 32.89h31.097l1.096-12.445z" fill="#1D1D1D" fill-rule="nonzero"/>
        <g>
            <path fill="#FFF" d="M8.889 27.556H55.11l-1.849 21.333H10.738z"/>
            <path d="m55.111 27.556-1.849 21.333H10.738l-1.85-21.333h46.223zm-2.87 2.666H11.796l1.388 16h37.669l1.388-16z" fill="#1D1D1D" fill-rule="nonzero"/>
        </g>
        <g>
            <path d="M24 41.778h16v-4.445h16.889v21.334H7.11V37.333H24v4.445z" fill="#FFF"/>
            <path d="M24 37.333v4.445h16v-4.445h16.889v21.334H7.11V37.333H24zM54.222 40H42.667v4.444H21.333V40H9.778v16h44.444V40z" fill="#1D1D1D" fill-rule="nonzero"/>
            <path fill="#1D1D1D" d="M26.667 48h10.667v2.667H26.667z"/>
        </g>
    </g>
</svg>
