<svg xmlns="http://www.w3.org/2000/svg" width="22" height="22" viewBox="0 0 22 22">
    <g>
        <path fill="#414141" d="M16.74 11.731a4.751 4.751 0 0 0 .039-.76c0-.266-.039-.494-.039-.76l1.631-1.253a.349.349 0 0 0 .078-.494L16.9 5.844a.378.378 0 0 0-.466-.152l-1.942.76a5.654 5.654 0 0 0-1.321-.76l-.272-2.013a.416.416 0 0 0-.389-.3H9.4a.416.416 0 0 0-.388.3L8.7 5.692a6.578 6.578 0 0 0-1.321.76l-1.942-.76a.364.364 0 0 0-.466.152L3.415 8.465a.459.459 0 0 0 .078.494l1.67 1.253c0 .266-.039.494-.039.76s.039.494.039.76l-1.631 1.252a.349.349 0 0 0-.078.494L5.008 16.1a.378.378 0 0 0 .466.152l1.942-.76a5.653 5.653 0 0 0 1.321.76l.311 2.013a.377.377 0 0 0 .388.3h3.108a.416.416 0 0 0 .389-.3l.311-2.013a6.575 6.575 0 0 0 1.321-.76l1.942.76a.364.364 0 0 0 .466-.152l1.554-2.621a.458.458 0 0 0-.078-.494zm-5.788 1.9a2.659 2.659 0 1 1 2.719-2.659 2.673 2.673 0 0 1-2.719 2.658z" transform="translate(-902.464 -274) translate(902.554 273.625)"/>
    </g>
</svg>
