<svg xmlns="http://www.w3.org/2000/svg" width="48" height="48" viewBox="0 0 48 48">
    <defs>
        <style>
            .cls-2{fill:#303871}.cls-9{fill:none}.cls-7,.cls-8{stroke:none}.cls-8{fill:#fff}
        </style>
    </defs>
    <g id="ico_quickapply_0204" transform="translate(139 -946.778)">
        <g id="패스_4105" class="cls-2">
            <path d="M1 18.79V.765C2.528.377 6.324-.465 10.5-.465c4 0 8.782.277 11.139.431l-3.742 7.835-.17.355.119.376 3.22 10.24c-2.266-.318-6.57-.837-10.566-.837-4.054 0-7.686.534-9.5.854z" class="cls-7" transform="translate(-115.5 955.111)"/>
            <path d="M10.5.535c-3.497 0-6.725.608-8.5 1.017v16.06c2.028-.312 5.122-.677 8.5-.677 3.26 0 6.718.34 9.141.64l-2.985-9.494L20.098.87C17.55.722 13.763.536 10.5.536m0-2c5.625 0 12.675.535 12.675.535L18.8 8.232 22.5 20s-6.375-1.065-12-1.065S0 20 0 20V0s4.875-1.465 10.5-1.465z" class="cls-8" transform="translate(-115.5 955.111)"/>
        </g>
        <g id="패스_4106" fill="none">
            <path d="M0 0h13.5s-.787 1.4 0 5.045C8.237 4.752 0 10.444 0 10.444z" class="cls-7" transform="translate(-115.5 964.667)"/>
            <path d="M2 2v4.86c.51-.29 1.066-.593 1.655-.897C6.519 4.482 9.047 3.557 11.197 3.2c-.037-.437-.05-.837-.047-1.201H2M0 0h13.5s-.787 1.396 0 5.045c-5.263-.293-13.5 5.4-13.5 5.4V0z" class="cls-8" transform="translate(-115.5 964.667)"/>
        </g>
        <g id="패스_4107" class="cls-2">
            <path d="M1 21.813V2.778C2.896 2.317 8.178 1.16 13.478 1.16c5.27 0 10.68.482 12.76.688v18.785H14.136c-5.277 0-10.775.793-13.136 1.18z" class="cls-7" transform="translate(-129.238 947.778)"/>
            <path d="M13.478 2.161C8.876 2.161 4.277 3.053 2 3.57v17.075c2.761-.415 7.53-1.01 12.136-1.01h11.102V2.757c-2.473-.228-7.171-.597-11.76-.597m0-2c6.81 0 13.76.787 13.76.787v20.686H14.136C7.326 21.634 0 23 0 23V2S6.668.161 13.478.161z" class="cls-8" transform="translate(-129.238 947.778)"/>
        </g>
        <g id="그룹_3900" stroke="#fff" stroke-width="2px">
            <g id="사각형_1909" fill="#303871">
                <path d="M3.5 0A3.5 3.5 0 0 1 7 3.5V40H0V3.5A3.5 3.5 0 0 1 3.5 0z" class="cls-7" transform="translate(-130 946.778)"/>
                <path d="M3.5 1A2.5 2.5 0 0 1 6 3.5v34.875a.625.625 0 0 1-.625.625h-3.75A.625.625 0 0 1 1 38.375V3.5A2.5 2.5 0 0 1 3.5 1z" class="cls-9" transform="translate(-130 946.778)"/>
            </g>
            <g id="사각형_1910" fill="none">
                <path d="M0 0H11V6H0z" class="cls-7" transform="translate(-132 984.778)"/>
                <path d="M1 1H10V5H1z" class="cls-9" transform="translate(-132 984.778)"/>
            </g>
        </g>
        <ellipse id="타원_254" cx="14" cy="4" fill="#fff" opacity="0.242" rx="14" ry="4" transform="translate(-139 986.778)"/>
    </g>
</svg>
