<svg xmlns="http://www.w3.org/2000/svg" width="24" height="24.55" viewBox="0 0 24 24.55">
    <g>
        <path fill="none" d="M0 0H24V24H0z" opacity="0.2" transform="translate(-346 -218.45) translate(346 219)"/>
        <g transform="translate(-346 -218.45) translate(346.896 220)">
            <path fill="#dc3636" d="M84.363 431.144l-1.579-.79a.75.75 0 0 0-.671 0l-1.579.79a.75.75 0 0 1-1.085-.67v-6.75h6v6.75a.75.75 0 0 1-1.085.67z" transform="rotate(-90 -161.24 247.276)"/>
            <path fill="#faa32d" stroke="rgba(0,0,0,0)" d="M2.069.794L3.724 19.1a2.374 2.374 0 0 0-1.341.728C1.932 20.294 0 20.947 0 21.671V3.369A2.575 2.575 0 0 1 2.069.794z" transform="translate(.104 -1.757)"/>
            <path fill="#fec16e" d="M60.138.89v16.9c0 .489-.369 1.335-.821 1.335l-14.769-.04a1.946 1.946 0 0 0-.406.04V.04a2.08 2.08 0 0 1 .41-.04h14.765a.86.86 0 0 1 .821.89z" transform="translate(-42.069 -1)"/>
            <path fill="#f5efca" d="M3 0h15v6H3a3 3 0 0 1-3-3 3 3 0 0 1 3-3z" transform="translate(.104 17)"/>
            <g fill="#fff" stroke="#d3b995">
                <path stroke="none" d="M.75 0H16v1.5H.75A.75.75 0 0 1 0 .75.75.75 0 0 1 .75 0z" transform="translate(2.104 19)"/>
                <path fill="none" d="M.75.5H15.5V1H.75A.25.25 0 0 1 .5.75.25.25 0 0 1 .75.5z" transform="translate(2.104 19)"/>
            </g>
            <rect width="10" height="3" fill="#fff" rx="1.5" transform="translate(5.104 2)"/>
        </g>
    </g>
</svg>
