<svg xmlns="http://www.w3.org/2000/svg" width="56" height="60" viewBox="0 0 56 60">
    <defs>
        <linearGradient id="linear-gradient" x1=".5" x2=".5" y2="1" gradientUnits="objectBoundingBox">
            <stop offset="0" stop-color="#71d6cf"/>
            <stop offset="1" stop-color="#1d8981"/>
        </linearGradient>
        <filter id="패스_4092" width="44" height="58" x="2" y="2" filterUnits="userSpaceOnUse">
            <feOffset dy="3"/>
            <feGaussianBlur result="blur" stdDeviation="3"/>
            <feFlood flood-opacity=".2"/>
            <feComposite in2="blur" operator="in"/>
            <feComposite in="SourceGraphic"/>
        </filter>
        <style>
            .cls-3{fill:url(#linear-gradient)}.cls-5{fill:#f4c215}
        </style>
    </defs>
    <g id="ico_checklist_01_on" transform="translate(7.192 10)">
        <path id="guide" fill="none" d="M0 0H56V56H0z" opacity="0.2" transform="translate(-7.192 -10)"/>
        <g id="ico_checklist_01_off" transform="translate(-4 30)">
            <path id="사각형_1362" d="M0 0H16V27H0z" class="cls-3" transform="translate(25.809 -19)"/>
            <g filter="url(#패스_4092)" transform="matrix(1, 0, 0, 1, -3.19, -40)">
                <path id="패스_4092-2" d="M0 4l12.667-6L26 4v34H0z" class="cls-3" transform="translate(11 10)"/>
            </g>
            <path id="패스_4088" fill="#fff" d="M4.663 0a4.791 4.791 0 0 1 4.663 4.91v8.147H0V4.91A4.791 4.791 0 0 1 4.663 0z" transform="translate(15.81 -5.057)"/>
            <path id="사각형_1346" d="M0 0H5V5H0z" class="cls-5" transform="translate(13.808 -22)"/>
            <path id="사각형_1351" d="M0 0H5V5H0z" class="cls-5" transform="translate(13.808 -14)"/>
            <path id="사각형_1347" d="M0 0H5V5H0z" class="cls-5" transform="translate(22.808 -22)"/>
            <path id="사각형_1354" d="M0 0H5V5H0z" class="cls-5" transform="translate(22.808 -14)"/>
        </g>
    </g>
</svg>
