<svg xmlns="http://www.w3.org/2000/svg" width="104" height="104" viewBox="0 0 104 104">
    <defs>
        <style>
            .cls-4{fill:#ededed}.cls-5{fill:none;stroke:#1d1d1d;stroke-linecap:round;stroke-width:4px}
        </style>
    </defs>
    <g id="ico_noresult" transform="translate(-1008 -445)">
        <ellipse id="타원_240" cx="50" cy="7" fill="#dedede" rx="50" ry="7" transform="translate(1010 531)"/>
        <g id="합치기_52" fill="#fff" stroke="none">
            <path d="M44.5 88.001c-5.872 0-11.569-1.15-16.931-3.418-5.18-2.19-9.832-5.328-13.827-9.323-3.996-3.995-7.132-8.647-9.323-13.827C2.15 56.071 1 50.374 1 44.501c0-5.873 1.15-11.57 3.418-16.932 2.19-5.18 5.327-9.832 9.323-13.827 3.995-3.996 8.647-7.132 13.827-9.323C32.93 2.15 38.628 1 44.5 1c8.082 0 15.971 2.232 22.813 6.454l.372.23.422-.118 12.79-3.58-3.262 11.65-.142.508.339.404c3.219 3.835 5.73 8.148 7.464 12.82 1.794 4.835 2.704 9.927 2.704 15.132 0 5.873-1.15 11.57-3.418 16.932-2.19 5.18-5.328 9.832-9.323 13.827-3.995 3.995-8.647 7.132-13.827 9.323-5.363 2.268-11.06 3.418-16.932 3.418z" transform="rotate(180 552 270)"/>
            <path fill="#1d1d1d" d="M44.5 87.001c5.739 0 11.305-1.123 16.543-3.339 5.06-2.14 9.606-5.205 13.51-9.109s6.968-8.449 9.109-13.51c2.216-5.238 3.339-10.803 3.339-16.542 0-5.086-.889-10.06-2.642-14.784-1.693-4.565-4.147-8.779-7.292-12.525l-.679-.809.285-1.016 2.783-9.938L68.378 8.53l-.844.237-.746-.46C60.105 4.18 52.398 2 44.5 2 38.762 2 33.197 3.124 27.958 5.34c-5.06 2.14-9.605 5.205-13.51 9.109-3.903 3.904-6.968 8.45-9.108 13.51C3.124 33.197 2 38.763 2 44.5c0 5.739 1.124 11.304 3.34 16.542 2.14 5.061 5.205 9.606 9.109 13.51s8.449 6.969 13.51 9.109c5.238 2.216 10.803 3.339 16.541 3.339m0 2c-24.576 0-44.5-19.923-44.5-44.5S19.925.001 44.5.001c8.56 0 16.553 2.415 23.339 6.603l14.501-4.06L78.6 15.906C85.09 23.639 89 33.614 89 44.501c0 24.577-19.923 44.5-44.5 44.5z" transform="rotate(180 552 270)"/>
        </g>
        <g id="그룹_3658">
            <rect id="사각형_1310" width="2" height="30" class="cls-4" rx="1" transform="translate(1102 446)"/>
            <rect id="사각형_1312" width="2" height="15" class="cls-4" rx="1" transform="translate(1096 446)"/>
            <rect id="사각형_1311" width="2" height="6" class="cls-4" rx="1" transform="translate(1102 479)"/>
        </g>
        <path id="선_531" d="M0 0L26 0" class="cls-5" transform="rotate(90 291 768.5)"/>
        <path id="선_532" d="M0 0L0 2" class="cls-5" transform="translate(1059.5 512.5)"/>
    </g>
</svg>
