<svg xmlns="http://www.w3.org/2000/svg" width="56" height="56" viewBox="0 0 56 56">
    <defs>
        <style>
            .cls-1{fill:red;opacity:0}.cls-5{stroke:#000;stroke-width:1.5px;fill:none;stroke-miterlimit:10}.cls-10,.cls-9{stroke:none}.cls-10{fill:#000}
        </style>
    </defs>
    <g id="ico_checklist_08_off" transform="translate(7.192 10)">
        <path id="guide" d="M0 0H56V56H0z" class="cls-1" transform="translate(-7.192 -10)"/>
        <path id="guide-2" d="M0 0H40V40H0z" class="cls-1" transform="translate(0.808 -2)"/>
        <g id="Group_21" transform="translate(2.808 0)">
            <g id="그룹_3651" transform="translate(-8.129 7.822)">
                <path id="패스_265" fill="#fff" stroke="#000" stroke-width="1.5px" d="M3082.007 1037.937c.844-.061 6.664 0 6.664 0a7.374 7.374 0 0 0 0-.889c-.053-1.261-.518-4.151-3.333-4.173-3.718-.029-6.396 5.284-3.331 5.062z" transform="translate(-3044.114 -1041.697)"/>
                <path id="패스_263" fill="#fff" stroke="#070203" stroke-width="1.5px" d="M309.034 427.247v7s.446 3.062-3.745 3.062h-22.216l-.063-29.64s-.3-6.464 5.284-6.464h24.82s-4.079.335-4.079 6.464z" transform="translate(-271.82 -410.031)"/>
                <g id="패스_264" fill="#fff" stroke-linecap="round">
                    <path d="M3089.521 1065h-24.137c-.193-.03-1.488-.304-2.47-2.357-.173-.905-.097-2.907-.02-4.143h22.078c.006.154.015.327.026.52.096 1.734.316 5.716 4.523 5.98z" class="cls-9" transform="translate(-3055.93 -1037.704)"/>
                    <path d="M3063.604 1059.25c-.057 1.198-.07 2.508.03 3.16.74 1.486 1.616 1.787 1.826 1.84h20.52c-.317-.328-.561-.674-.748-1.002-.7-1.232-.891-2.699-.972-3.998h-20.656m-1.407-1.5h23.55s-.066.04 0 1.228c.13 2.364.568 5.285 4.223 5.285h.092c.703 0-.006 1.487-.006 1.487h-24.716s-1.874-.136-3.143-2.868c-.31-1.393 0-5.132 0-5.132z" class="cls-10" transform="translate(-3055.93 -1037.704)"/>
                </g>
                <path id="Stroke_3" d="M0 .477l7.943.034" class="cls-5" transform="translate(16.814 -0.53)"/>
                <path id="Stroke_3-2" d="M0 .477l13.842.034" class="cls-5" transform="translate(16.814 4.063)"/>
            </g>
            <g id="그룹_3645" transform="translate(-1)">
                <g id="빼기_12" fill="#f4c215">
                    <path d="M-16710.998 8501.303c-2.621 0-4.752-2.13-4.752-4.747v-3.558c0-2.618 2.13-4.748 4.752-4.748 2.617 0 4.748 2.13 4.748 4.748v3.558c0 2.617-2.13 4.747-4.748 4.747zm0-9.27c-.506 0-.916.41-.916.914v2.37c0 .507.41.92.916.92.504 0 .914-.413.914-.92v-2.37c0-.505-.41-.915-.914-.915z" class="cls-9" transform="translate(16740.73 -8469)"/>
                    <path d="M-16710.998 8500.553c2.203 0 3.998-1.793 3.998-3.997v-3.558c0-2.204-1.795-3.998-3.998-3.998-2.207 0-4.002 1.794-4.002 3.998v3.558c0 2.204 1.795 3.997 4.002 3.997m0-9.27c.918 0 1.664.746 1.664 1.664v2.37c0 .921-.746 1.67-1.664 1.67-.92 0-1.666-.749-1.666-1.67v-2.37c0-.918.746-1.665 1.666-1.665m0 10.77c-3.033 0-5.502-2.465-5.502-5.496v-3.558c0-3.031 2.469-5.498 5.502-5.498 3.031 0 5.498 2.467 5.498 5.498v3.558c0 3.03-2.467 5.497-5.498 5.497zm0-9.27c-.092 0-.166.074-.166.165v2.37c0 .094.074.17.166.17.09 0 .164-.078.164-.17v-2.37c0-.09-.074-.165-.164-.165z" class="cls-10" transform="translate(16740.73 -8469)"/>
                </g>
                <g id="사각형_1368" fill="#f4c215" stroke="#000" stroke-width="1.5px">
                    <path d="M0 0H17V13H0z" class="cls-9" transform="translate(21 24.999)"/>
                    <path fill="none" d="M0.75 0.75H16.25V12.25H0.75z" transform="translate(21 24.999)"/>
                </g>
                <path id="합치기_52" fill="#1d1d1d" d="M-4676.27 2661.885v-1.585a1.5 1.5 0 0 1-1-1.415 1.5 1.5 0 0 1 1.5-1.5 1.5 1.5 0 0 1 1.5 1.5 1.5 1.5 0 0 1-1 1.415v1.586a.5.5 0 0 1-.5.5.5.5 0 0 1-.5-.501z" transform="translate(4705.27 -2628.387)"/>
            </g>
        </g>
    </g>
</svg>
