<svg xmlns="http://www.w3.org/2000/svg" width="56" height="56" viewBox="0 0 56 56">
    <defs>
        <style>
            .cls-2{fill:#fff;stroke:#000;stroke-width:3px}.cls-8{fill:none}.cls-7{stroke:none}
        </style>
    </defs>
    <g id="ico_main_menu_pay" transform="translate(-3.451 -6.642)">
        <g id="사각형_1510" class="cls-2">
            <path d="M0 0H52V40H0z" class="cls-7" transform="translate(3.452 22.643)"/>
            <path d="M1.5 1.5H50.5V38.5H1.5z" class="cls-8" transform="translate(3.452 22.643)"/>
        </g>
        <g id="사각형_1511" class="cls-2">
            <path d="M0 0H15V8H0z" class="cls-7" transform="translate(12.452 46.643)"/>
            <path d="M1.5 1.5H13.5V6.5H1.5z" class="cls-8" transform="translate(12.452 46.643)"/>
        </g>
        <path id="Stroke_17" fill="#fff" stroke="#000" stroke-miterlimit="10" stroke-width="3px" d="M0 .409h50" transform="translate(4.815 34.394)"/>
        <g id="yl" stroke="#000" stroke-width="3px" transform="translate(20.775 9)">
            <g id="타원_163" fill="#f4c215" transform="translate(8.677 -2.357)">
                <circle cx="15" cy="15" r="15" class="cls-7"/>
                <circle cx="15" cy="15" r="13.5" class="cls-8"/>
            </g>
            <path id="패스_4054" fill="none" stroke-linecap="round" stroke-linejoin="round" d="M24.9 3.6l3.137 9.945L31.148 3.6l3.2 9.945L36.965 3.6" transform="translate(-7.031 4.69)"/>
            <path id="선_416" fill="none" stroke-linecap="round" d="M0 0L14.089 0" transform="translate(17.041 13.148)"/>
        </g>
    </g>
</svg>
