<svg  viewBox="0 0 64 64" xmlns="http://www.w3.org/2000/svg">
    <g fill-rule="nonzero" fill="none">
        <path fill="#FFF" d="M54.222 58.667H8V31.879l23.111-19.435L54.222 31.88z"/>
        <path d="M31.111 12.444 54.222 31.88v26.788H8V31.879l23.111-19.435zm0 3.485-20.444 17.19V56h40.889V33.12L31.11 15.929z" fill="#1D1D1D"/>
        <path d="m31.399 39.116-.288-.005c-4.327 0-7.845 3.501-7.995 7.873l-.004.243v11.44h16V47.272c0-4.383-3.401-8-7.713-8.156zm-.288 2.662.191.003c2.785.101 5.036 2.406 5.139 5.285l.003.206V56H25.778v-8.728l.003-.197c.099-2.88 2.346-5.188 5.13-5.293l.2-.004z" fill="#1D1D1D"/>
        <g transform="translate(37.333 16.889)">
            <path fill="#1D1D1D" d="m16.943 15.946 9.333 9.333-1.885 1.886-9.334-9.333z"/>
            <circle fill="#F4C215" cx="10.667" cy="10.667" r="10.667"/>
            <path d="M10.667 0c5.89 0 10.666 4.776 10.666 10.667 0 5.89-4.775 10.666-10.666 10.666S0 16.558 0 10.667 4.776 0 10.667 0zm0 2.667a8 8 0 1 0 0 16 8 8 0 0 0 0-16z" fill="#1D1D1D"/>
        </g>
    </g>
</svg>
