<svg  viewBox="0 0 64 64" xmlns="http://www.w3.org/2000/svg">
    <g fill="none" fill-rule="evenodd">
        <path fill="#FFF" d="m54.222 46.222.89-15.616V16.89H8v32.887h18.241l-1.85 3.053-1.496 2.282h23.097"/>
        <path fill="#1D1D1D" fill-rule="nonzero" d="M56.889 16v15.556h-2.667v-12.89H9.778v30.221h19.275l-3.102 5.117-.144.218H36.89v2.667H20.87l2.824-4.307.623-1.028H7.111V16z"/>
        <path fill="#1D1D1D" d="M8.89 42.667H40v2.667H8.89z"/>
        <path d="M24 24.889v8.889h-8.889v-8.89H24zm-2.222 2.222h-4.445v4.445h4.445V27.11z" fill="#1D1D1D" fill-rule="nonzero"/>
        <path fill="#1D1D1D" d="M27.556 24.889h9.777v2.222h-9.777zM27.556 31.111h9.777v2.222h-9.777z"/>
        <g fill-rule="nonzero">
            <path d="m46.418 55.218-5.934 1.187 1.19-5.936 13.05-13.05a1.678 1.678 0 0 1 2.372 0l2.373 2.372a1.68 1.68 0 0 1 0 2.372L46.418 55.218z" fill="#F4C215"/>
            <path d="m53.754 36.448-13.05 13.05a1.372 1.372 0 0 0-.376.702l-1.19 5.935a1.372 1.372 0 0 0 1.615 1.615l5.934-1.186c.266-.053.51-.184.701-.376L60.44 43.134a3.053 3.053 0 0 0 .002-4.312l-2.374-2.374a3.05 3.05 0 0 0-4.313 0zm4.745 4.313.043.055a.308.308 0 0 1-.045.378L45.742 53.953l-3.508.701.703-3.508L55.694 38.39a.306.306 0 0 1 .432 0L58.5 40.76z" fill="#1D1D1D"/>
        </g>
    </g>
</svg>
