<svg xmlns="http://www.w3.org/2000/svg" width="72" height="72" viewBox="0 0 72 72">
    <path fill="none" d="M0 0H72V72H0z"/>
    <path fill="#fff" d="M27 0C12.616 0 0 12.212 0 26.1a28.257 28.257 0 0 0 3.223 11.495l.34.624.2.35.752 1.146L5.567 41.3l.773 1.14c1.879 2.763 3.832 5.53 5.767 8.13l1.1 1.461 1.043 1.362.667.854.645.811.624.77.6.729.584.689.566.65.548.612.53.575.259.274.506.52.247.247.483.468.469.434.229.2.449.384q.443.368.862.673l.414.29.2.134.4.246.2.112.387.2a6.072 6.072 0 0 0 5.763 0l.387-.2.4-.232q.2-.123.405-.261l.415-.291q.526-.382 1.087-.861l.456-.4q.231-.208.47-.434l.484-.468.247-.247.507-.52.523-.556.537-.595.557-.631.575-.67.594-.709.614-.749.635-.79.993-1.264 1.043-1.361.725-.962.372-.5c1.619-2.148 3.247-4.425 4.824-6.721l1.306-1.923 1.179-1.774 1.012-1.564.207-.367A28.248 28.248 0 0 0 54 26.123C54 12.212 41.384 0 27 0z" opacity="0.35" transform="translate(9 4)"/>
    <path fill="#faeb09" d="M21 17c-.577.17-.828.986-1 2l1 4-4-2a1.865 1.865 0 0 0-2 0l-4 2 1-4a2.019 2.019 0 0 0-1-2l-3-3 4-1a2.1 2.1 0 0 0 2-1l2-4 2 4a2.364 2.364 0 0 0 2 1l4 1z" transform="translate(20 17)"/>
</svg>
