<svg xmlns="http://www.w3.org/2000/svg" width="58" height="58.784" viewBox="0 0 58 58.784">
    <defs>
        <filter id="타원_211" width="29.121" height="29.121" x="5.959" y="16.008" filterUnits="userSpaceOnUse">
            <feOffset dy="5"/>
            <feGaussianBlur result="blur" stdDeviation="3"/>
            <feFlood flood-color="#cc8e3b" flood-opacity=".302"/>
            <feComposite in2="blur" operator="in"/>
            <feComposite in="SourceGraphic"/>
        </filter>
        <filter id="사각형_1363" width="40" height="29" x="0" y="26.784" filterUnits="userSpaceOnUse">
            <feOffset dy="3"/>
            <feGaussianBlur result="blur-2" stdDeviation="3"/>
            <feFlood flood-opacity=".161"/>
            <feComposite in2="blur-2" operator="in"/>
            <feComposite in="SourceGraphic"/>
        </filter>
        <filter id="타원_211-2" width="29.121" height="29.121" x="23.959" y="19.009" filterUnits="userSpaceOnUse">
            <feOffset dy="5"/>
            <feGaussianBlur result="blur-3" stdDeviation="3"/>
            <feFlood flood-color="#cc8e3b" flood-opacity=".302"/>
            <feComposite in2="blur-3" operator="in"/>
            <feComposite in="SourceGraphic"/>
        </filter>
        <filter id="사각형_1363-2" width="40" height="29" x="18" y="29.784" filterUnits="userSpaceOnUse">
            <feOffset dy="3"/>
            <feGaussianBlur result="blur-4" stdDeviation="3"/>
            <feFlood flood-opacity=".161"/>
            <feComposite in2="blur-4" operator="in"/>
            <feComposite in="SourceGraphic"/>
        </filter>
        <linearGradient id="linear-gradient" x1=".5" x2=".5" y2="1" gradientUnits="objectBoundingBox">
            <stop offset="0" stop-color="#ffea4d"/>
            <stop offset="1" stop-color="#ffc16e"/>
        </linearGradient>
        <linearGradient id="linear-gradient-2" x1=".5" x2=".5" y2="1" gradientUnits="objectBoundingBox">
            <stop offset="0" stop-color="#71d6cf"/>
            <stop offset="1" stop-color="#1d8981"/>
        </linearGradient>
        <linearGradient id="linear-gradient-5" x1=".5" x2=".5" y2="1" gradientUnits="objectBoundingBox">
            <stop offset="0" stop-color="#f88c63"/>
            <stop offset="1" stop-color="#ed4223"/>
        </linearGradient>
        <style>
            .cls-1{fill:red;opacity:0}.cls-2{fill:url(#linear-gradient)}.cls-5{fill:none;stroke:#fff;stroke-linecap:round;stroke-width:1.5px}
        </style>
    </defs>
    <g id="ico_checklist_05_on" transform="translate(8.192 10)">
        <path id="guide" d="M0 0H56V56H0z" class="cls-1" transform="translate(-7.192 -10)"/>
        <path id="guide-2" d="M0 0H40V40H0z" class="cls-1" transform="translate(0.808 -2)"/>
        <g id="ico_checklist_05_off" transform="translate(1 0.055)">
            <g id="people" transform="translate(0.755 10.877)">
                <g filter="url(#타원_211)" transform="matrix(1, 0, 0, 1, -9.95, -20.93)">
                    <circle id="타원_211-3" cx="5.561" cy="5.561" r="5.561" class="cls-2" transform="translate(14.96 20.01)"/>
                </g>
                <path id="Fill_1" fill="url(#linear-gradient-2)" d="M11.878 5.9c-2.7.432-4.351-2.574-4.351-2.574A9.6 9.6 0 0 1 0 5.864 6.063 6.063 0 0 1 5.939 0a6.07 6.07 0 0 1 5.94 5.9" transform="translate(4.633 -1.671)"/>
                <g filter="url(#사각형_1363)" transform="matrix(1, 0, 0, 1, -9.95, -20.93)">
                    <path id="사각형_1363-3" d="M7 0h8a7 7 0 0 1 7 7v4H0V7a7 7 0 0 1 7-7z" class="cls-2" transform="translate(9 32.78)"/>
                </g>
            </g>
            <g id="people-2" transform="translate(18.755 13.877)">
                <g filter="url(#타원_211-2)" transform="matrix(1, 0, 0, 1, -27.95, -23.93)">
                    <circle id="타원_211-4" cx="5.561" cy="5.561" r="5.561" class="cls-2" transform="translate(32.96 23.01)"/>
                </g>
                <path id="Fill_1-2" fill="url(#linear-gradient-5)" d="M11.878 5.9c-2.7.432-4.351-2.574-4.351-2.574A9.6 9.6 0 0 1 0 5.864 6.063 6.063 0 0 1 5.939 0a6.07 6.07 0 0 1 5.94 5.9" transform="translate(4.633 -1.671)"/>
                <g filter="url(#사각형_1363-2)" transform="matrix(1, 0, 0, 1, -27.95, -23.93)">
                    <path id="사각형_1363-4" d="M7 0h8a7 7 0 0 1 7 7v4H0V7a7 7 0 0 1 7-7z" class="cls-2" transform="translate(27 35.78)"/>
                </g>
            </g>
            <g id="그룹_3636" transform="translate(-1.21)">
                <path id="패스_3602" d="M26.407.729H45.2" class="cls-5" transform="translate(-15.39 2.216)"/>
                <path id="패스_3604" d="M30.253-2.945l-3 3 3 3" class="cls-5" transform="translate(58.562 3) rotate(180)"/>
            </g>
        </g>
    </g>
</svg>
