<svg xmlns="http://www.w3.org/2000/svg" width="24" height="24" viewBox="0 0 24 24">
    <g>
        <path fill="none" d="M0 0H24V24H0z" opacity="0.2" transform="translate(-1326 -763) translate(1326 763)"/>
        <path fill="#df4949" d="M-7655 3478.951h-14a1 1 0 0 1-1-1v-18a1 1 0 0 1 1-1h9.454l-.066.065 5.611 5.291v13.642a1 1 0 0 1-.999 1.002z" transform="translate(-1326 -763) translate(9000 -2693.951)"/>
        <path fill="#fff" stroke="#fff" stroke-width="0.2px" d="M16.358 16.333a.618.618 0 0 1-.372-.125.922.922 0 0 1-.429-.863c.07-.626.845-1.282 2.3-1.95a25.832 25.832 0 0 0 1.458-4.137 3.8 3.8 0 0 1-.482-2.558.738.738 0 0 1 .436-.468 1.889 1.889 0 0 1 .391-.066c.194 0 .364.25.485.4s.371.451-.144 2.618A12.3 12.3 0 0 0 21.96 12.1a7.487 7.487 0 0 1 1.292-.138c.6 0 .968.14 1.117.43a.779.779 0 0 1-.15.831 1.023 1.023 0 0 1-.854.458 2.558 2.558 0 0 1-1.62-.879 18.439 18.439 0 0 0-3.4 1.086 10.919 10.919 0 0 1-.917 1.636c-.393.552-.728.809-1.07.809zm1.024-1.973c-.822.462-1.158.842-1.182 1.056 0 .035-.014.129.166.266.058-.017.393-.17 1.017-1.321zm5.248-1.709c.314.241.39.363.6.363a.58.58 0 0 0 .466-.17.609.609 0 0 0 .089-.16c-.047-.025-.11-.076-.452-.076a5.627 5.627 0 0 0-.702.043zm-2.875-2.533a27.435 27.435 0 0 1-1.029 2.911 19.228 19.228 0 0 1 2.5-.777 13.173 13.173 0 0 1-1.47-2.134zm-.234-3.256a.923.923 0 0 0 .038 1.238c.366-.814-.02-1.243-.036-1.238z" transform="translate(-1326 -763) translate(1318.21 765.252)"/>
        <path fill="#ffbaba" d="M1342.521 765v5.332h5.61z" transform="translate(-1326 -763) translate(-2.126)"/>
    </g>
</svg>
