<svg xmlns="http://www.w3.org/2000/svg" width="56" height="56" viewBox="0 0 56 56">
    <defs>
        <style>
            .cls-1{fill:#fff}.cls-5,.cls-6{stroke:none}.cls-6{fill:#1d1d1d}
        </style>
    </defs>
    <g id="ico_menuetc_process" transform="translate(-1.021 -9.494)">
        <g id="그룹_167" transform="translate(1.862 10.448)">
            <g id="패스_257" class="cls-1">
                <path d="M37.976 38.847l-44.27-1.91-2.621-7.09 8.386-17.54L.102 11H32.76l1.096 1.671 8.195 17.14-4.075 9.036z" class="cls-5" transform="translate(10.159 1.038)"/>
                <path d="M.73 12l-.359.742-8.202 17.155 2.245 6.07 42.929 1.852 3.605-7.996-7.965-16.66L32.22 12H.73m-1.255-2H33.3l1.43 2.179 8.423 17.619-4.544 10.078L-7 37.906-10 29.799l8.569-17.922L-.525 10z" class="cls-6" transform="translate(10.159 1.038)"/>
            </g>
            <g id="패스_261" class="cls-1">
                <path d="M19.597 11.247H-3.009c-.166-1.98-.552-6.67-.702-9.02-.033-.52-.054-.915-.067-1.212h24.144c-.013.297-.034.69-.067 1.21-.15 2.35-.536 7.041-.702 9.022z" class="cls-5" transform="translate(18.442 1.811)"/>
                <path d="M-2.723 2.015l.01.149c.13 2.031.437 5.823.624 8.083h20.766c.187-2.26.495-6.054.624-8.086l.01-.146H-2.723m24.065-2.09c.043 0 .084.343-.045 2.364-.195 3.058-.78 9.958-.78 9.958H-3.93s-.585-6.898-.78-9.956C-4.84.268-4.796-.074-4.753-.074c.022 0 .044.09.044.09h26.006s.023-.09.045-.09z" class="cls-6" transform="translate(18.442 1.811)"/>
            </g>
            <g id="패스_3634" fill="#f4c215">
                <path d="M34.78 12.538H-2.525c-.255-2.102-.893-7.443-1.137-10.09-.059-.632-.093-1.09-.112-1.423h39.801c-.019.332-.053.79-.111 1.42-.245 2.648-.883 7.99-1.138 10.093z" class="cls-5" transform="translate(10.608 8.83)"/>
                <path d="M-2.695 2.025l.03.33c.214 2.322.733 6.73 1.027 9.183h35.53c.295-2.453.815-6.863 1.03-9.185l.029-.328H-2.695m39.679-2.1c.068 0 .135.379-.071 2.612-.312 3.378-1.248 11.001-1.248 11.001H-3.41s-.935-7.62-1.247-10.999c-.207-2.235-.14-2.613-.071-2.613.035 0 .07.099.07.099h41.57s.036-.1.072-.1z" class="cls-6" transform="translate(10.608 8.83)"/>
            </g>
            <g id="패스_260" class="cls-1">
                <path d="M38.207 21.839H-5.63L-6.837 2.563V1H39.44v1.154L38.207 21.84z" class="cls-5" transform="translate(10.8 19.071)"/>
                <path d="M-5.837 2v.532l1.145 18.307h41.96l1.17-18.716V2H-5.836m-2-2H40.44v2.186l-1.292 20.653H-6.57L-7.837 2.594V0z" class="cls-6" transform="translate(10.8 19.071)"/>
            </g>
            <g id="빼기_6" class="cls-1">
                <path d="M51.704 22.496H.704V2.266h16.688V6.35h18.92V2.265h15.392v20.231z" class="cls-5" transform="translate(.455 29.135)"/>
                <path d="M50.704 21.496V3.266H37.312V7.35h-20.92V3.265H1.704v18.231H50.704m2 2H-.296V1.266h18.688V5.35h16.92V1.265h17.392v22.231z" class="cls-6" transform="translate(.455 29.135)"/>
            </g>
            <g id="사각형_133" fill="#fff" stroke="#1d1d1d" stroke-width="2px" transform="translate(22.307 41.91)">
                <path d="M0 0H10V2H0z" class="cls-5"/>
                <rect width="8" x="1" y="1" fill="none"/>
            </g>
        </g>
    </g>
</svg>
