<svg xmlns="http://www.w3.org/2000/svg" width="56" height="56" viewBox="0 0 56 56">
    <defs>
        <style>
            .cls-1{fill:red;opacity:0}.cls-5{stroke:#000;stroke-width:1.5px;fill:none;stroke-miterlimit:10}.cls-8,.cls-9{stroke:none}.cls-9{fill:#000}
        </style>
    </defs>
    <g id="ico_checklist_06_off" transform="translate(7.192 10)">
        <path id="guide" d="M0 0H56V56H0z" class="cls-1" transform="translate(-7.192 -10)"/>
        <path id="guide-2" d="M0 0H40V40H0z" class="cls-1" transform="translate(0.808 -2)"/>
        <g id="Group_21" transform="translate(3.077 -0.386)">
            <g id="그룹_3650" transform="translate(-8.398 8.208)">
                <path id="패스_265" fill="#fff" stroke="#000" stroke-width="1.5px" d="M3082.007 1037.937c.844-.061 6.664 0 6.664 0a7.374 7.374 0 0 0 0-.889c-.053-1.261-.518-4.151-3.333-4.173-3.718-.029-6.396 5.284-3.331 5.062z" transform="translate(-3044.114 -1041.697)"/>
                <path id="패스_263" fill="#fff" stroke="#070203" stroke-width="1.5px" d="M309.034 427.247v7s.446 3.062-3.745 3.062h-22.216l-.063-29.64s-.3-6.464 5.284-6.464h24.82s-4.079.335-4.079 6.464z" transform="translate(-271.82 -410.031)"/>
                <g id="패스_264" fill="#fff" stroke-linecap="round">
                    <path d="M3089.521 1065h-24.137c-.193-.03-1.488-.304-2.47-2.357-.173-.905-.097-2.907-.02-4.143h22.078c.006.154.015.327.026.52.096 1.734.316 5.716 4.523 5.98z" class="cls-8" transform="translate(-3055.93 -1037.704)"/>
                    <path d="M3063.604 1059.25c-.057 1.198-.07 2.508.03 3.16.74 1.486 1.616 1.787 1.826 1.84h20.52c-.317-.328-.561-.674-.748-1.002-.7-1.232-.891-2.699-.972-3.998h-20.656m-1.407-1.5h23.55s-.066.04 0 1.228c.13 2.364.568 5.285 4.223 5.285h.092c.703 0-.006 1.487-.006 1.487h-24.716s-1.874-.136-3.143-2.868c-.31-1.393 0-5.132 0-5.132z" class="cls-9" transform="translate(-3055.93 -1037.704)"/>
                </g>
                <path id="Stroke_3" d="M0 .477l7.943.034" class="cls-5" transform="translate(16.814 -0.53)"/>
                <path id="Stroke_3-2" d="M0 .477l13.842.034" class="cls-5" transform="translate(16.814 4.063)"/>
            </g>
            <g id="그룹_3641" transform="translate(-2.078 19.773)">
                <g id="패스_3521" fill="#f4c215">
                    <path d="M26.338 38.757h-15.5v-8.736l7.75-6.638 7.75 6.638v8.736z" class="cls-8" transform="translate(11.721 -21.895)"/>
                    <path d="M18.588 24.37l-7 5.996v7.641h14v-7.64l-7-5.997m-.13-1.863h.26l8.37 7.169v9.831h-17v-9.831l8.37-7.169z" class="cls-9" transform="translate(11.721 -21.895)"/>
                </g>
                <g id="패스_3522" fill="#fec867">
                    <path d="M4.25 6.25H.75V2.632C.75 1.594 1.535.75 2.5.75s1.75.844 1.75 1.882V6.25z" class="cls-8" transform="translate(27.809 10.612)"/>
                    <path d="M2.5 1.5c-.551 0-1 .508-1 1.132V5.5h2V2.632c0-.624-.449-1.132-1-1.132m0-1.5C3.88 0 5 1.178 5 2.632V7H0V2.632C0 1.178 1.12 0 2.5 0z" class="cls-9" transform="translate(27.809 10.612)"/>
                </g>
            </g>
        </g>
    </g>
</svg>
