<svg  viewBox="0 0 64 64" xmlns="http://www.w3.org/2000/svg">
    <g fill-rule="nonzero" fill="none">
        <path d="m13.016 46.194 3.96-8.505 21.128 4.676c0-.168 5.612 5.006 5.612 5.006l-13.534 5.51-17.166-6.687z" fill="#FFF"/>
        <path d="M28.802 45.48c.048.017 8.468 1.82 8.468 1.82l12.247-2.86 6.022 3.282-.63 1.782-19.994 7.797-18.97-5.67 1.032-14.942" fill="#FFF"/>
        <path d="m16.941 35.324.13.003c.7.05 1.238.63 1.256 1.325l-.003.132-.956 13.847 17.49 5.229 18.988-7.405.03-.088-4.552-2.48-11.75 2.743a1.335 1.335 0 0 1-.438.028l-.257-.047-8.33-1.79-.216-.061a1.37 1.37 0 0 1-.797-1.755c.228-.624.86-.978 1.486-.873l8.235 1.769 11.956-2.79c.274-.064.56-.04.818.067l.126.06 6.022 3.282c.548.299.818.934.67 1.534l-.04.127-.63 1.783a1.36 1.36 0 0 1-.665.76l-.12.054L35.4 58.575c-.23.09-.482.114-.724.07l-.144-.034-18.969-5.672a1.363 1.363 0 0 1-.967-1.277l.003-.127 1.032-14.941a1.357 1.357 0 0 1 1.31-1.27z" fill="#1D1D1D"/>
        <path d="M19.307 37.923c.14-.695.78-1.158 1.465-1.084l.128.02 18.15 3.756c.26.054.5.185.686.375l.089.1 3.42 4.24a1.376 1.376 0 0 1-.193 1.922 1.34 1.34 0 0 1-1.807-.092l-.093-.103-3.116-3.865-17.677-3.657a1.364 1.364 0 0 1-1.072-1.482l.02-.13z" fill="#1D1D1D"/>
        <path fill="#FFF" d="M15.483 51.946H8.89V32.889l11.221 2.417z"/>
        <path d="M7.539 32.889v19.057c0 .754.604 1.365 1.35 1.365h6.594c.605 0 1.136-.407 1.3-.995l4.627-16.64a1.366 1.366 0 0 0-1.018-1.705L9.17 31.554a1.354 1.354 0 0 0-1.631 1.335zm2.7 1.686 8.182 1.763-3.96 14.242h-4.222V34.575z" fill="#1D1D1D"/>
        <g>
            <path fill="#F4C215" d="M55.111 33.778h-24V20.21l12-9.543 12 9.543z"/>
            <path d="M56.444 19.567 43.111 8.963 29.778 19.567v15.544h26.666V19.567zM43.111 12.37l10.667 8.484v11.591H32.444V20.852l10.667-8.483z" fill="#1D1D1D"/>
        </g>
        <g fill="#1D1D1D">
            <path d="M43.111 22.667c-2.967 0-5.333 2.568-5.333 5.675v6.77h10.666v-6.77c0-3.107-2.365-5.675-5.333-5.675zm.149 2.671c1.378.087 2.518 1.38 2.518 3.004v4.102h-5.334v-4.102c0-1.681 1.223-3.009 2.667-3.009l.149.005z"/>
        </g>
    </g>
</svg>
