<svg xmlns="http://www.w3.org/2000/svg" width="16" height="16" viewBox="0 0 16 16">
    <defs>
        <clipPath id="wqvnwv5jda">
            <path data-name="패스 4110" d="M6-15a6.035 6.035 0 0 1 6 6.069c0 2.089-1.179 4.276-3.169 6.4A21.96 21.96 0 0 1 6.587-.457C6.379-.288 6.182-.136 6 0a18.296 18.296 0 0 1-.587-.457A21.96 21.96 0 0 1 3.169-2.53C1.179-4.655 0-6.842 0-8.931A6.035 6.035 0 0 1 6-15zm0 3.5A2.5 2.5 0 0 0 3.5-9 2.5 2.5 0 0 0 6-6.5 2.5 2.5 0 0 0 8.5-9 2.5 2.5 0 0 0 6-11.5z" style="fill:none"/>
        </clipPath>
    </defs>
    <g data-name="ico / map">
        <path style="opacity:.2;fill:none" d="M0 0h16v16H0z"/>
        <g data-name="그룹 4018" style="clip-path:url(#wqvnwv5jda)" transform="translate(0 15)">
            <path data-name="패스 4108" d="M-1-16h14V1H-1z" style="fill:#707070"/>
            <path data-name="패스 4109" d="M-75 109H86v-257H-75z" style="fill:none"/>
        </g>
        <path data-name="패스 4113" d="M6-1h6.5a.5.5 0 0 1 .5.5.5.5 0 0 1-.5.5H6z" style="fill-rule:evenodd;fill:#707070" transform="translate(0 15)"/>
        <path data-name="패스 4116" d="M14.5-1h1a.5.5 0 0 1 .5.5.5.5 0 0 1-.5.5h-1a.5.5 0 0 1-.5-.5.5.5 0 0 1 .5-.5z" style="fill-rule:evenodd;fill:#707070" transform="translate(0 15)"/>
    </g>
</svg>
