<svg xmlns="http://www.w3.org/2000/svg" width="27" height="27" viewBox="0 0 27 27">
    <defs>
        <style>
            .cls-2{fill:#8f9bb3}
        </style>
    </defs>
    <g id="icon_quick_charge" transform="translate(-7 2)">
        <g id="Mask" transform="translate(11.001 1)">
            <path id="Shape" class="cls-2" d="M9.7 22.193a9.654 9.654 0 0 1-9.646-9.644c0-.14 0-.277.006-.4a4.776 4.776 0 0 0-.006-.566V11.1a10.657 10.657 0 0 1 .761-5.178 9.655 9.655 0 0 1 3.1-3.98A10.2 10.2 0 0 1 9.849 0a9.4 9.4 0 0 1 4.187.978 9.884 9.884 0 0 1 5.3 8.679c0 .162 0 .309-.007.439a3.576 3.576 0 0 0 .007.526v.964a4.771 4.771 0 0 0-.006.565c0 .121.006.258.006.4A9.654 9.654 0 0 1 9.7 22.193zm-7.717-6.268.482.963A8.549 8.549 0 0 0 5.554 19.7 8.87 8.87 0 0 0 9.7 20.746h.011a8.742 8.742 0 0 0 4.121-1.039 8.584 8.584 0 0 0 3.1-2.818l.481-.964-.481.482-.482.482a8.631 8.631 0 0 1-2.75 1.767 9 9 0 0 1-3.393.665c-.2 0-.409-.007-.612-.021a8.85 8.85 0 0 1-.612.021 8.994 8.994 0 0 1-3.392-.664 8.65 8.65 0 0 1-2.746-1.767l-.482-.482zM9.7 1.46a8.2 8.2 0 1 0 8.2 8.2 8.206 8.206 0 0 0-8.2-8.2z"/>
            <path id="_" data-name="₩" class="cls-2" d="M6.63 8a.275.275 0 0 1-.249-.159L6.365 7.8 5.3 3.972h-.687L3.525 7.8a.278.278 0 0 1-.176.186L3.305 8h-.893a.275.275 0 0 1-.251-.165l-.015-.044-.962-3.819H.275a.276.276 0 0 1-.258-.181L0 3.745V3.018a.276.276 0 0 1 .226-.273H.88l-.6-2.4A.278.278 0 0 1 .458.016L.5 0h.921a.276.276 0 0 1 .253.168l.014.045.6 2.528h1.349L4.372.2a.278.278 0 0 1 .177-.186L4.592 0h.761A.275.275 0 0 1 5.6.159L5.618.2l.7 2.538h1.339l.6-2.528a.276.276 0 0 1 .176-.2L8.478 0H9.318a.276.276 0 0 1 .275.3l-.008.045-.6 2.4h.451a.275.275 0 0 1 .258.181l.013.047V3.7a.277.277 0 0 1-.226.273h-.796l-.939 3.816a.275.275 0 0 1-.176.195L7.525 8h-.047z" transform="translate(5.044 6.217)"/>
        </g>
    </g>
</svg>
