<svg xmlns="http://www.w3.org/2000/svg" width="24" height="24" viewBox="0 0 24 24">
    <g data-name="ico / exel">
        <path data-name="Icon simple-microsoftexcel" d="M17.665 2.531h-6.03v1.137h1.777v1.8h-1.777v.573h1.777v1.8h-1.777v.589h1.777v1.7h-1.777v.682h1.777v1.708h-1.777v.68h1.777v1.717h-1.777v1.252h6.03c.1-.029.175-.144.239-.342a1.7 1.7 0 0 0 .1-.486V2.739c0-.1-.033-.157-.1-.177a.811.811 0 0 0-.239-.031zm-.782 12.387H13.99V13.2h2.893v1.715zm0-2.4H13.99v-1.705h2.893zm0-2.39H13.99v-1.7h2.893v1.7zm0-2.292H13.99V6.04h2.893v1.8zm0-2.383H13.99V3.668h2.893v1.788zM0 2.248v14.21l10.62 1.871v-18L0 2.254zM6.295 13q-.061-.167-.569-1.423a86.873 86.873 0 0 0-.6-1.464h-.018l-1.139 2.759-1.522-.1 1.806-3.443L2.6 5.892l1.553-.083L5.177 8.5H5.2l1.156-2.814 1.6-.1L6.05 9.3l1.969 3.8-1.724-.1z" transform="translate(3 2.671)" style="fill:#0fb273"/>
    </g>
</svg>
