<svg xmlns="http://www.w3.org/2000/svg" width="27" height="27" viewBox="0 0 27 27">
    <defs>
        <style>
            .cls-2{fill:#8f9bb3}
        </style>
    </defs>
    <g id="icon_quick_help" transform="translate(-13 2)">
        <g id="Mask" transform="translate(16 1)">
            <path id="Shape" class="cls-2" d="M10.607 21.214A10.61 10.61 0 0 1 6.478.834a10.61 10.61 0 0 1 8.258 19.547 10.541 10.541 0 0 1-4.129.833zm0-19.768a9.163 9.163 0 0 0-3.566 17.6 9.163 9.163 0 0 0 7.132-16.88 9.1 9.1 0 0 0-3.566-.72z"/>
            <path id="Shape-2" data-name="Shape" class="cls-2" d="M.589 8.828a.583.583 0 0 1-.417-.174.6.6 0 0 1-.115-.675L2.73 3v-.031l.043-.059.039-.047.055-.048.051-.036h.028L7.8.07 7.779.058a.585.585 0 0 1 .67.116.6.6 0 0 1 .115.675l-2.65 4.994v.028l-.043.059-.039.047-.055.047-.051.036H5.7L.842 8.77a.58.58 0 0 1-.253.058zm2.782-4.535L2.04 6.8l2.437-1.36zm3.258-2.21-2.438 1.36L5.3 4.59z" transform="translate(5.979 6.185)"/>
            <path id="Shape-3" data-name="Shape" class="cls-2" d="M2.286 0H.571a.571.571 0 0 0 0 1.143h1.715a.571.571 0 0 0 0-1.143z" transform="translate(16.071 10.036)"/>
            <path id="Shape-4" data-name="Shape" class="cls-2" d="M2.857.571A.571.571 0 0 0 2.286 0H.571a.571.571 0 0 0 0 1.143h1.715a.571.571 0 0 0 .571-.572z" transform="translate(2.286 10.036)"/>
            <path id="Shape-5" data-name="Shape" class="cls-2" d="M.571 0A.571.571 0 0 0 0 .571v1.715a.571.571 0 0 0 1.143 0V.571A.571.571 0 0 0 .571 0z" transform="translate(10.036 16.071)"/>
            <path id="Shape-6" data-name="Shape" class="cls-2" d="M.571 2.857a.571.571 0 0 0 .571-.571V.571A.571.571 0 1 0 0 .571v1.715a.571.571 0 0 0 .571.571z" transform="translate(10.036 2.286)"/>
        </g>
    </g>
</svg>
