<svg xmlns="http://www.w3.org/2000/svg" width="27" height="27" viewBox="0 0 27 27">
    <path d="M12.536 21.215H2.411A2.414 2.414 0 0 1 0 18.8V4.339a2.411 2.411 0 0 1 .183-.911l.371-.608c.107-.131.282-.3 2.984-2.656A2.526 2.526 0 0 1 4.417 0h12.94v16.875c-.009.871-.758 1.587-1.419 2.22-.1.094-.191.183-.282.272L14.037 20.8a3.979 3.979 0 0 1-1.501.415zM2.411 3.375a.966.966 0 0 0-.964.964V18.8a.966.966 0 0 0 .964.964h10.125a.966.966 0 0 0 .964-.964V3.375h-1.929v7.29l-2.5-2-2.321 2.149V3.375zm2.006-1.938a1.073 1.073 0 0 0-.892.482h11.422l.033 16.319.6-.674a.924.924 0 0 0 .327-.69V1.447zM9.006 6.76l1.118.9V3.375H8.2v4.132l.809-.747z" transform="translate(5 3)" style="fill:#8f9bb3"/>
</svg>
