<svg xmlns="http://www.w3.org/2000/svg" width="16.333" height="21.778" viewBox="0 0 16.333 21.778">
    <path fill="#dc3636" d="M7.737 10.893A4.1 4.1 0 0 1 7.652 8.9c.357 0 .323 1.568.085 1.993zM7.665 12.9a19.627 19.627 0 0 1-1.208 2.667 15.662 15.662 0 0 1 2.675-.932A5.51 5.51 0 0 1 7.665 12.9zm-4 5.308c0 .034.561-.23 1.484-1.71a5.879 5.879 0 0 0-1.487 1.711zm5.866-11.4h6.806v14.97H0V0h9.528zm.681 7.307a4.269 4.269 0 0 1-1.816-2.288 6.114 6.114 0 0 0 .264-2.731A1.065 1.065 0 0 0 6.623 8.8a7.072 7.072 0 0 0 .345 3.275 39.941 39.941 0 0 1-1.735 3.649h-.009c-1.153.591-3.131 1.893-2.318 2.892a1.322 1.322 0 0 0 .914.425c.761 0 1.518-.766 2.6-2.629a24.245 24.245 0 0 1 3.36-.987 6.446 6.446 0 0 0 2.722.829 1.1 1.1 0 0 0 .838-1.846c-.591-.578-2.31-.413-3.131-.306zM10.889 0v5.444h5.444zm1.995 15.325c.174-.115-.106-.506-1.82-.383 1.577.672 1.82.383 1.82.383z"/>
</svg>
