<svg xmlns="http://www.w3.org/2000/svg" id="img_main_service_02" width="344" height="148" viewBox="0 0 344 148">
    <defs>
        <clipPath id="clip-path">
            <path id="Mask" d="M0 0H344V148H0z" class="cls-1"/>
        </clipPath>
        <clipPath id="clip-path-2">
            <path id="Clip_4" d="M0 153.925h275.389V0H0z" class="cls-2"/>
        </clipPath>
        <clipPath id="clip-path-3">
            <path id="Clip_9" d="M0 0h8.595v5.245H0z" class="cls-2"/>
        </clipPath>
        <clipPath id="clip-path-5">
            <path id="Clip_41" d="M0 0h32.812v32.8H0z" class="cls-2"/>
        </clipPath>
        <style>
            .cls-1{fill:#daeeff}.cls-2{fill:none}.cls-4{fill:#464f7f}.cls-7{fill:#d1d8ed}.cls-8{fill:#e4e8f7}.cls-9{fill:#fff}.cls-10{fill:#c9bdc3}.cls-11{fill:#fc927a}.cls-12{fill:#562c48}.cls-13{fill:#ffa285}.cls-14{clip-path:url(#clip-path-3)}.cls-15{fill:#a81b22}.cls-17{fill:#f38c5f}
        </style>
    </defs>
    <path id="Mask-2" d="M0 0H344V148H0z" class="cls-1"/>
    <g id="Bitmap" clip-path="url(#clip-path)">
        <g id="Group_34" transform="translate(33.997 27.571)">
            <path id="Fill_1" d="M40.818 10.471H4.209A4.291 4.291 0 0 1 0 6.125V4.346A4.291 4.291 0 0 1 4.209 0h36.609a4.291 4.291 0 0 1 4.208 4.346v1.78a4.291 4.291 0 0 1-4.208 4.346" class="cls-4" transform="translate(115.182 143.454)"/>
            <path id="Clip_4-2" d="M0 153.925h275.389V0H0z" class="cls-2"/>
            <g id="Group_34-2" clip-path="url(#clip-path-2)">
                <path id="Fill_3" d="M0 139.265h275.389V0H0z" class="cls-4" transform="translate(0 10.471)"/>
                <path id="Fill_5" fill="#2f3a5e" d="M143.384 0a5.7 5.7 0 0 1-5.784 4.486A5.7 5.7 0 0 1 131.81 0H0v139.265h275.389V0z" transform="translate(0 7.33)"/>
                <path id="Fill_6" d="M153.722 11.629c-.99-.052-1.938-.056-2.844-.019-13.468.544-17.755 10.173-17.893 10.491-.016-.036-.081-.177-.214-.428-1.019-1.954-5.748-9.579-17.679-10.063-.692-.028-1.43-.008-2.17.015-.232.007-.442-.008-.678 0L7.837.025 0 11.629v129.73h265.965V11.629L258.152 0z" class="cls-7" transform="translate(4.188)"/>
                <path id="Fill_7" d="M105.163.041H0v121.848h105.163s14.265-1.039 19.442 9V9.906S120.119-.738 105.163.041" class="cls-8" transform="translate(12.565)"/>
                <path id="Fill_8" d="M19.443.041h105.163v121.848H19.443S5.177 120.85 0 130.888V9.906S4.488-.738 19.443.041" class="cls-9" transform="translate(138.218)"/>
                <path id="Fill_9" d="M0 132.982V9.952S4.713-.742 19.9.041v123.9S5.939 122.549 0 132.982" class="cls-7" transform="translate(137.171)"/>
                <path id="Fill_10" d="M19.9 130.888V9.906S15.183-.738 0 .041v121.848s13.956-1.385 19.9 9" class="cls-9" transform="translate(118.323)"/>
                <path id="Fill_11" d="M0 141.359l8.377-19.252V0L0 11.624z" class="cls-7" transform="translate(4.188)"/>
                <path id="Fill_12" d="M8.377 141.359L0 122.107V0l8.377 11.624z" class="cls-7" transform="translate(262.824)"/>
                <path id="Fill_13" d="M83.768 2.045L0 2.094V.049L83.768 0z" class="cls-8" transform="translate(166.49 30.366)"/>
                <path id="Fill_14" d="M83.768 2.045L0 2.094V.05L83.768 0z" class="cls-10" transform="translate(166.49 39.79)"/>
                <path id="Fill_15" d="M83.768 2.045L0 2.094V.049L83.768 0z" class="cls-10" transform="translate(166.49 51.308)"/>
                <path id="Fill_16" d="M83.768 2.045L0 2.094V.049L83.768 0z" class="cls-8" transform="translate(166.49 61.779)"/>
                <path id="Fill_17" d="M0 2.094h83.768V0H0z" class="cls-8" transform="translate(166.49 71.203)"/>
                <path id="Fill_18" d="M0 2.094h45.026V0H0z" class="cls-8" transform="translate(165.443 82.721)"/>
                <path id="Fill_19" d="M0 2.094h45.026V0H0z" class="cls-8" transform="translate(165.443 93.192)"/>
                <path id="Fill_20" d="M0 2.094h45.026V0H0z" class="cls-8" transform="translate(165.443 102.616)"/>
                <path id="Fill_21" d="M0 7.33h42.931V0H0z" class="cls-7" transform="translate(45.026 14.659)"/>
                <path id="Fill_22" d="M0 2.094h40.837V0H0z" class="cls-7" transform="translate(68.062 30.366)"/>
                <path id="Fill_23" d="M0 2.094h40.837V0H0z" class="cls-7" transform="translate(68.062 39.79)"/>
                <path id="Fill_24" d="M0 2.094h40.837V0H0z" class="cls-7" transform="translate(68.062 51.308)"/>
                <path id="Fill_25" d="M0 2.094h40.837V0H0z" class="cls-7" transform="translate(68.062 61.779)"/>
                <path id="Fill_26" d="M0 2.094h83.768V0H0z" class="cls-7" transform="translate(24.083 71.203)"/>
                <path id="Fill_27" d="M0 2.094h83.768V0H0z" class="cls-7" transform="translate(24.083 82.721)"/>
                <path id="Fill_28" d="M0 2.094h83.768V0H0z" class="cls-7" transform="translate(24.083 93.192)"/>
                <path id="Fill_29" d="M0 2.094h83.768V0H0z" class="cls-7" transform="translate(24.083 102.616)"/>
                <path id="Fill_30" d="M0 33.507h36.649V0H0z" class="cls-7" transform="translate(25.131 30.366)"/>
                <path id="Fill_31" d="M0 6.283h49.214V0H0z" class="cls-8" transform="translate(166.49 16.754)"/>
                <path id="Fill_32" d="M0 13.612h83.768V0H0z" class="cls-8" transform="translate(166.49 39.79)"/>
                <path id="Fill_33" d="M0 23.036h31.413V0H0z" class="cls-8" transform="translate(218.845 81.674)"/>
            </g>
        </g>
        <g id="Group_112" transform="translate(85.306 73.673)">
            <g id="Group_111" transform="translate(-163 2)">
                <g id="그룹_2823">
                    <path id="Fill_2" d="M3.279 4A2.158 2.158 0 1 1 4 1.037 2.159 2.159 0 0 1 3.279 4" class="cls-11" transform="translate(166.359 24.431)"/>
                    <path id="Fill_4" d="M0 .93s6.458 17.95 26.343 8.479L24.941 7.1S9.684 14.5 3.9 0z" class="cls-12" transform="translate(140.323 19.862)"/>
                    <path id="Fill_6-2" d="M5.365 7.849S3.751 4.541 2 3.511L2.4 0H.064L0 4.385s1.792 2.2 1.938 2.248 1.891 2.2 1.891 2.2 2.576.37 1.537-.983" class="cls-13" transform="translate(135.36 83.69)"/>
                    <g id="Group_10" transform="translate(134.78 88.076)">
                        <path id="Clip_9-2" d="M0 0h8.595v5.245H0z" class="cls-2"/>
                        <g id="Group_10-2" class="cls-14">
                            <path id="Fill_8-2" d="M.58 0A1.611 1.611 0 0 0 .7 2.558L.691 5.181h.853l.01-2.46s1.575-.158 1.86 2.5l5.182.02s-.059-1.64-2.649-1.781c0 0-1.1 1.155-1.837-.007A15.566 15.566 0 0 0 .58 0" class="cls-12"/>
                        </g>
                    </g>
                    <path id="Fill_11-2" d="M7.479 8.287S5.6 4.387 3.591 3.9L2.693 0 0 .133l2.114 4.69s1.792 2.2 1.938 2.248 1.891 2.2 1.891 2.2 2.576.37 1.536-.983" class="cls-13" transform="translate(149.263 83.252)"/>
                    <g id="Group_15" transform="translate(150.797 88.076)">
                        <path id="Clip_14-2" d="M0 0h8.595v5.245H0z" class="cls-2"/>
                        <g id="Group_15-2" class="cls-14">
                            <path id="Fill_13-2" d="M.58 0A1.611 1.611 0 0 0 .7 2.558L.691 5.181h.852l.01-2.46s1.575-.158 1.859 2.5l5.182.02s-.059-1.64-2.65-1.781c0 0-1.1 1.155-1.837-.007A15.575 15.575 0 0 0 .58 0" class="cls-12"/>
                        </g>
                    </g>
                    <path id="Fill_16-2" d="M5.785.015c-1.348-.251-3.537 2.67-4.14 3.552A11.088 11.088 0 0 0 0 9.8c.1 3.9 2.028 7.025 3.054 10.79 1.437 5.27.242 10.843-.106 16.294a44.729 44.729 0 0 0 1.884 16.441c.75-.113.986-.115 1.736-.228 1.731-13.65 3.974-27.411 5.705-41.061a10.638 10.638 0 0 0 .078-3.242A9.06 9.06 0 0 0 9.578 4.3c-.666-.687-1.366-1.342-2.013-2.05C7.2 1.857 6.309.177 5.885.04a.78.78 0 0 0-.1-.025" class="cls-13" transform="translate(130.749 34.63)"/>
                    <path id="Fill_18-2" d="M4.324.1c-3.238.749-5.57 5.807-3.6 11.055 1.614 4.3 4.844 7.851 6.421 12.165 1.9 5.19 1.028 8.78 2.17 14.187.894 4.235 3.274 11.745 6.214 15.532.768.989.974-.247 1.838.482-1.648-13.2-2.9-26.432-4.545-39.627a29.3 29.3 0 0 0-2.08-8.917C8.822.887 6.389-.384 4.324.1" class="cls-13" transform="translate(135.88 34.95)"/>
                    <path id="Fill_20-2" d="M2.075.037A.55.55 0 0 1 2.436.02a4.039 4.039 0 0 1 1.112.416 4.552 4.552 0 0 1 1.687 1.533 4.58 4.58 0 0 1 .533 3.758 5.725 5.725 0 0 0-.5 1.988c.073 1.03 1.028 1.828 1.136 2.855a3.66 3.66 0 0 1-.733 2.167 2.466 2.466 0 0 1-.792.926 2.122 2.122 0 0 1-1.657.034 5.027 5.027 0 0 0-1.657-.363C1.224 11.556-.028 9.977 0 8.167a7.5 7.5 0 0 1 .323-1.794L1.822.72c.09-.34.085-.593.253-.683" class="cls-15" transform="translate(138.505 5.944)"/>
                    <path id="Fill_22-2" d="M7.807.094a10.19 10.19 0 0 1 5.257 2.255 8.248 8.248 0 0 1 2.406 8.741c-.518 1.427-1.487 2.75-1.484 4.268a12.968 12.968 0 0 0 .719 4.551c.539 1.1-.351 3.427-.722 4.595-.294.923.732-.546-.157-.163a7.366 7.366 0 0 1-2.844.489A17.484 17.484 0 0 1 4 23.453c-1.319-.558-2.713-1.483-2.888-2.9-.2-1.619 2.159-2.922 2.494-4.708a7.372 7.372 0 0 0-.287-4.956C2.346 8.845.169 7.316.009 5.06a4.112 4.112 0 0 1 1.142-3.034A7.6 7.6 0 0 1 7.807.094" class="cls-12" transform="translate(131.869 17.762)"/>
                    <path id="Fill_24-2" d="M3.926 2.363s-5.69 5.36-3.37 12.492c0 0 2.67 8.051 2.67 12.863l3.326.438.175-7.176 2.188 7.176s6.3.963 11.2-1.225c0 0-2.8-21.22-4.311-24.831a3.809 3.809 0 0 1-.39-2.1S12.766.416 4.889 0z" class="cls-12" transform="translate(130.503 32.88)"/>
                    <path id="Fill_26-2" d="M1.926 2.82s2.757.7 2.626 5.207c0 0 2.692-8.488-4.551-8.007z" class="cls-15" transform="translate(138.767 5.699)"/>
                    <path id="Fill_28-2" d="M4.313 2.561a1.8 1.8 0 0 1 .055.866 4.248 4.248 0 0 0 .89 2.873c.407.517.975 1.066.833 1.709a1.169 1.169 0 0 1-.836.806 2.835 2.835 0 0 1-1.209.023 10.474 10.474 0 0 1-2.286-.6A1.906 1.906 0 0 1 .464 7.1C.322 6.51.71 5.94.889 5.36a4.558 4.558 0 0 0-.234-2.723A5.972 5.972 0 0 1 .032 0a10.317 10.317 0 0 1 1.792.968l1.825 1.013a1.451 1.451 0 0 1 .664.581" class="cls-13" transform="translate(136.317 12.447)"/>
                    <path id="Fill_30-2" d="M.963 0h10.525s.283 1.651.48 2.274c0 0-1.727.242-11.968.089z" class="cls-12" transform="translate(134.429 32.88)"/>
                    <path id="Fill_32-2" fill="#ef7565" d="M3.888 2.48a6.63 6.63 0 0 0 .106 1.676S.924 3.522.323 1.608A7.815 7.815 0 0 0 0 .568L.14 0z" transform="translate(136.833 13.092)"/>
                    <path id="Fill_34" d="M6.388 4.142c0 2.29-1.353 4.148-3.028 4.15S0 6.4 0 4.113 1.675 0 3.35 0s3.035 1.852 3.038 4.142" class="cls-13" transform="translate(136.477 7.654)"/>
                    <path id="Fill_36" d="M.418 33.09l-.3-.647a1.364 1.364 0 0 1 .673-1.8L67.6.122a1.366 1.366 0 0 1 1.8.672l.3.647a1.364 1.364 0 0 1-.672 1.8L2.222 33.763a1.365 1.365 0 0 1-1.8-.672" class="cls-17" transform="translate(106.474 19.686)"/>
                    <path id="Fill_38" fill="rgba(89,198,206,0.5)" d="M20.587 27.762A14.537 14.537 0 1 1 27.768 8.5a14.541 14.541 0 0 1-7.182 19.263" transform="translate(171.285 2)"/>
                    <g id="Group_42" transform="translate(169.251)">
                        <path id="Clip_41-2" d="M0 0h32.812v32.8H0z" class="cls-2"/>
                        <g id="Group_42-2" clip-path="url(#clip-path-5)">
                            <path id="Fill_40" d="M16.436 32.8a16.429 16.429 0 0 1-14.947-9.58 16.42 16.42 0 0 1 8.1-21.736A16.244 16.244 0 0 1 16.387 0a16.43 16.43 0 0 1 14.947 9.585 16.419 16.419 0 0 1-8.1 21.736 16.243 16.243 0 0 1-6.798 1.479zM16.39 2.356A14.053 14.053 0 0 0 3.633 22.239a14.044 14.044 0 0 0 25.936-.933 14.022 14.022 0 0 0-5.663-16.779 14.105 14.105 0 0 0-7.515-2.17z" class="cls-17" transform="translate(-.005)"/>
                        </g>
                    </g>
                    <path id="Fill_43" d="M3.409 1.777A1.606 1.606 0 0 1 1.451 2.9a1.605 1.605 0 0 1-1.43-1.746A1.606 1.606 0 0 1 1.978.034a1.606 1.606 0 0 1 1.431 1.743" class="cls-11" transform="translate(167.148 24.557)"/>
                    <path id="Fill_45" d="M3.874 1.586A1.807 1.807 0 0 1 1.98 3.274 1.806 1.806 0 0 1 0 1.689 1.806 1.806 0 0 1 1.894 0a1.806 1.806 0 0 1 1.98 1.586" class="cls-11" transform="translate(132.843 38.676)"/>
                    <path id="Fill_47" d="M11.43 0s-25.5 12.98-.326 20.187l1.045-2.366S-8.3 12.458 15.085 3.225z" class="cls-12" transform="translate(121.7 21.043)"/>
                    <path id="Fill_49" d="M7.99 3.02a10.587 10.587 0 0 1 2.775-.258h.149c-.057-.058-.134-.088-.194-.141C10.529 2.065 9.577 0 5.975 0 1.921 0-1.759 2.426 1.563 7.778a10.165 10.165 0 0 1 1.072 2.45 5.606 5.606 0 0 1-.825 3.442 18.745 18.745 0 0 0-1.624 3.614 4.31 4.31 0 0 0 .567 3.762c1.26 1.611 3.986 1.8 5.8.733.98-.576 1.794-1.664 1.416-2.679-.42-1.126-2.011-1.5-2.663-2.526a3.081 3.081 0 0 1 .161-2.944 8.971 8.971 0 0 0 1.155-2.853c.2-2.09-1.809-4.207-.876-6.12A3.445 3.445 0 0 1 7.99 3.02" class="cls-15" transform="translate(131.158 5.474)"/>
                </g>
            </g>
        </g>
    </g>
</svg>
