<svg xmlns="http://www.w3.org/2000/svg" id="img_main_service_01" width="344" height="148" viewBox="0 0 344 148">
    <defs>
        <clipPath id="clip-path">
            <path id="Mask" d="M0 0H344V148H0z" class="cls-1"/>
        </clipPath>
        <clipPath id="clip-path-2">
            <path id="Clip_47" d="M0 0h171.108v213.558H0z" class="cls-2" transform="translate(.073 .09)"/>
        </clipPath>
        <clipPath id="clip-path-3">
            <path id="Clip_66" d="M0 153.112h364.7V0H0z" class="cls-2" transform="translate(-60 -59.91)"/>
        </clipPath>
        <style>
            .cls-1{fill:#daeeff}.cls-2{fill:none}.cls-7{fill:#e4e8f7}.cls-9{fill:#d4d4d4}.cls-10{fill:#d1d8ed}.cls-12{fill:#c5ecf0}.cls-20{fill:#231f20}.cls-14{fill:#ddd}.cls-15{fill:#fffeff}.cls-17{fill:#d95243}.cls-18{fill:#f8796b}.cls-20,.cls-21{opacity:.2}.cls-21{fill:#4f6871}.cls-22{fill:#a7a9ac}.cls-23{fill:#8ac0de}
        </style>
    </defs>
    <path id="Mask-2" d="M0 0H344V148H0z" class="cls-1"/>
    <g id="Bitmap" clip-path="url(#clip-path)">
        <g id="Group_101" transform="rotate(11 273.145 95.056)">
            <g id="Group_100" transform="rotate(-11 155.694 129.929)">
                <path id="Fill_44" fill="#2f3a5e" d="M169.438 170.7L0 170.681.277.139 169.716 0z" transform="translate(86.958 55.255)"/>
                <g id="Group_48" transform="translate(81.282 49.463)">
                    <path id="Clip_47-2" d="M0 0h171.108v213.558H0z" class="cls-2" transform="translate(.073 .09)"/>
                    <g id="Group_48-2" clip-path="url(#clip-path-2)">
                        <path id="Fill_46" fill="#fff" d="M170.761 213.558L0 213.281.347 0l170.761.277z" transform="translate(.073 .09)"/>
                    </g>
                </g>
                <path id="Fill_49" d="M37.029 2.85L0 2.79V0l37.034.06z" class="cls-7" transform="translate(97.156 110.97)"/>
                <path id="Fill_51" d="M39.524 2.854L0 2.79V0l39.528.064z" class="cls-7" transform="translate(141.033 111.041)"/>
                <path id="Fill_53" d="M49.1 2.869L0 2.79V0l49.1.08z" class="cls-7" transform="translate(173.677 111.094)"/>
                <path id="Fill_55" d="M37.029 2.85L0 2.79V0l37.034.06z" class="cls-7" transform="translate(97.132 121.878)"/>
                <path id="Fill_57" d="M69.72 2.866L0 2.79V0l69.72.076z" class="cls-7" transform="translate(119.378 121.915)"/>
                <path id="Fill_59" d="M49.1 2.869L0 2.79V0l49.1.08z" class="cls-7" transform="translate(173.652 122.002)"/>
                <path id="Fill_61" d="M50.144 2.849L0 2.79V0l50.147.059z" class="cls-7" transform="translate(97.109 132.787)"/>
                <path id="Fill_63" d="M25.049 2.857L0 2.79.008 0l25.049.067z" class="cls-7" transform="translate(155.458 132.856)"/>
                <path id="Clip_66-2" d="M0 257.91h303.963V0H0z" class="cls-2" transform="translate(0 .09)"/>
                <g id="마스크_그룹_2" clip-path="url(#clip-path-3)" transform="translate(48.799 81.463)">
                    <path id="Fill_65" d="M0 3.347h49.274V0H0z" class="cls-9" transform="translate(190.213 209.993)"/>
                    <path id="Fill_67" d="M0 3.347h79.321V0H0z" class="cls-9" transform="translate(190.213 198.015)"/>
                    <g id="Group_70" transform="translate(47.6 -10.956)">
                        <path id="Fill_68" d="M25.193 50.314a25.157 25.157 0 1 1 25.193-25.157 25.2 25.2 0 0 1-25.193 25.157zm0-43.911a18.754 18.754 0 1 0 18.78 18.754A18.788 18.788 0 0 0 25.193 6.4z" class="cls-10" transform="translate(0 1.113)"/>
                        <path id="Fill_69" fill="#f38c5f" d="M10.178 38.258L0 28.094l3.654-3.648 6.429 6.42L39.442 0l3.746 3.553z" transform="translate(12.602)"/>
                    </g>
                    <path id="Fill_71" d="M.414 2.241a4.016 4.016 0 1 1 1.83 5.371 4.02 4.02 0 0 1-1.83-5.371" class="cls-12" transform="translate(190.996 31.634)"/>
                    <path id="Fill_72" d="M.266 1.441A2.584 2.584 0 1 1 1.444 4.9 2.586 2.586 0 0 1 .266 1.441" class="cls-12" transform="translate(200.413 30.125)"/>
                    <path id="Fill_73" d="M7.753 72.032h98.494a17.562 17.562 0 0 0 4.482-7.857 13.924 13.924 0 0 0 1.319-5.845 14.269 14.269 0 0 0-1.876-6.947c-.11-.677-.208-1.355-.28-2.038a17.614 17.614 0 0 1 .576-7.373c2.644-7.165 6.636-14.547 3.972-22.232a25.861 25.861 0 0 0-2.509-5.372 16.838 16.838 0 0 0-1.44-2.153 30.113 30.113 0 0 0-6.916-6.684c-.7-.469-1.4-.877-2.1-1.346a35.077 35.077 0 0 0-4-2.013c-.831-.3-1.6-.587-2.432-.882-9.536-3.64-18.936.973-26.105 7.01a58.89 58.89 0 0 1-6.077 3.669C58.678 14.1 54.2 15.4 49.282 14.71a28.573 28.573 0 0 1-3.752-.7q-.605-.141-1.2-.318a84.654 84.654 0 0 0-9.19-2.311 31.5 31.5 0 0 0-8.951-.523l-.306.024a20.967 20.967 0 0 0-9 2.949l-.64.385q-.717.433-1.4.923a22.9 22.9 0 0 0-4.04 3.4C6.4 23.533 2 36.116 3.693 48.677A15.436 15.436 0 0 0 0 58.33c0 5 2.827 9.686 7.753 13.7" class="cls-10" transform="translate(139.136 29.369)"/>
                    <path id="Fill_74" fill="#231f20" d="M90.753 3.239H1.622a1.62 1.62 0 1 1 0-3.239h89.131a1.62 1.62 0 1 1 0 3.239" opacity="0.3" transform="translate(148.262 89.964)"/>
                    <path id="Fill_75" d="M0 43.036h42.039V0H0z" class="cls-14" transform="translate(191.684 47.644)"/>
                    <path id="Fill_76" d="M35.841 68.735H0V23.728L17.92 0l17.92 23.728z" class="cls-15" transform="translate(155.843 21.944)"/>
                    <path id="Fill_77" fill="#231f20" d="M35.841 30.537H77.88l.176-4.268L16.6 0 0 21.352v7.321L17.069 6.587z" opacity="0.1" transform="translate(155.843 23.526)"/>
                    <path id="Fill_78" d="M23.663 0L0 28.274.552 30.7h5.191v-3.8l17.92-23.18z" class="cls-17" transform="translate(150.101 21.317)"/>
                    <path id="Fill_79" d="M44.935 32.468L23.663 5.328 2.39 32.468 0 30.243 23.663 0l23.663 30.243z" class="cls-18" transform="translate(148.262 19.551)"/>
                    <path id="Fill_80" d="M27.786 32.468L6.513 4.786 0 0l30.176 30.243z" class="cls-18" transform="translate(210.461 19.551)"/>
                    <path id="Fill_81" fill="#fe9e94" d="M0 0h45.049l23.663 30.243H23.663z" transform="translate(171.925 19.551)"/>
                    <path id="Fill_82" d="M2.39 0h45.049l-2.39 2.225H0z" class="cls-17" transform="translate(193.198 49.794)"/>
                    <path id="Fill_83" d="M0 25.295h13.272V0H0z" class="cls-18" transform="translate(167.128 65.385)"/>
                    <path id="Fill_84" d="M0 25.295h2.239V0H0z" class="cls-17" transform="translate(167.128 65.385)"/>
                    <path id="Fill_85" d="M0 0l13.361 13.342V0z" class="cls-20" transform="translate(167.128 65.385)"/>
                    <path id="Fill_86" d="M0 14.544h14.565V0H0z" class="cls-21" transform="translate(196.841 65.357)"/>
                    <path id="Fill_87" d="M0 14.572h1.691V0H0z" class="cls-22" transform="translate(209.715 65.357)"/>
                    <path id="Fill_88" d="M0 11.949h10.554V0H0z" class="cls-23" transform="translate(198.014 66.682)"/>
                    <path id="Fill_89" d="M0 0l7.6 7.59V6.2L1.388 0z" class="cls-15" transform="translate(200.97 66.682)"/>
                    <path id="Fill_90" d="M4.205 4.2L0 0h4.205z" class="cls-15" transform="translate(204.363 66.682)"/>
                    <path id="Fill_91" d="M14.565 0l-1.691 1.755H0V0z" class="cls-20" transform="translate(196.841 65.357)"/>
                    <path id="Fill_92" d="M0 14.544h14.565V0H0z" class="cls-21" transform="translate(215.145 65.357)"/>
                    <path id="Fill_93" d="M0 14.572h1.691V0H0z" class="cls-22" transform="translate(228.019 65.357)"/>
                    <path id="Fill_94" d="M0 11.949h10.554V0H0z" class="cls-23" transform="translate(216.319 66.682)"/>
                    <path id="Fill_95" d="M0 0l7.6 7.59V6.2L1.388 0z" class="cls-15" transform="translate(219.274 66.682)"/>
                    <path id="Fill_96" d="M4.205 4.2L0 0h4.205z" class="cls-15" transform="translate(222.668 66.682)"/>
                    <path id="Fill_97" d="M14.565 0l-1.691 1.755H0V0z" class="cls-20" transform="translate(215.145 65.357)"/>
                    <path id="Fill_98" d="M8.231 22.105L0 11.585V0h8.231z" class="cls-15" transform="translate(203.175 14.916)"/>
                    <path id="Fill_99" d="M0 21.922h8.231V0H0z" class="cls-14" transform="translate(211.406 14.916)"/>
                </g>
            </g>
        </g>
    </g>
</svg>
