<svg xmlns="http://www.w3.org/2000/svg" width="32" height="36" viewBox="0 0 32 36">
    <path fill="#BCBCBC" fill-rule="evenodd" d="M20.363 7.2c-.603 0-1.091-.467-1.091-1.045 0-.578.488-1.043 1.091-1.043.604 0 1.092.465 1.092 1.043 0 .578-.488 1.046-1.092 1.046zm-8.726 0c-.604 0-1.092-.467-1.092-1.045 0-.578.488-1.043 1.092-1.043.603 0 1.091.465 1.091 1.043 0 .578-.488 1.046-1.091 1.046zm14.544 4.181V26.71c0 1.217-1.03 2.208-2.303 2.208h-1.663c.057.184.09.376.09.58v4.413c0 1.153-.978 2.089-2.185 2.089-1.204 0-2.18-.936-2.18-2.09v-4.412c0-.204.03-.396.086-.58h-4.052c.055.184.088.376.088.58v4.413c0 1.153-.978 2.089-2.182 2.089s-2.183-.936-2.183-2.09v-4.412c0-.204.03-.396.088-.58H8.124c-1.273 0-2.305-.991-2.305-2.208V11.381h20.362zm-23.998 0c1.204 0 2.18.936 2.18 2.09v8.942c0 1.154-.976 2.09-2.18 2.09-1.206 0-2.183-.936-2.183-2.09V13.47c0-1.153.977-2.089 2.183-2.089zm27.636 0c1.204 0 2.181.936 2.181 2.09v8.942c0 1.154-.977 2.09-2.18 2.09-1.207 0-2.183-.936-2.183-2.09V13.47c0-1.153.976-2.089 2.182-2.089zM22.124.156c.109-.16.336-.205.502-.097.168.106.214.322.101.483l-.905 1.304-.407.58-.406.588c3.084 1.378 5.172 3.988 5.172 6.974H5.819c0-2.986 2.088-5.596 5.175-6.974l-.41-.589-.406-.58L9.273.543c-.11-.161-.064-.377.101-.483.168-.106.393-.063.506.097l.972 1.397.409.587.413.597c1.315-.49 2.782-.762 4.326-.762 1.547 0 3.011.273 4.326.762l.415-.597z"/>
</svg>
