<svg xmlns="http://www.w3.org/2000/svg" width="32" height="32" viewBox="0 0 32 32">
    <g fill="#FFF">
        <path d="M16 0C7.163 0 0 7.163 0 16s7.163 16 16 16 16-7.163 16-16c0-4.243-1.686-8.313-4.686-11.314C24.314 1.686 20.244 0 16 0zm0 30C8.268 30 2 23.732 2 16S8.268 2 16 2s14 6.268 14 14-6.268 14-14 14z"/>
        <path d="M19.333 17.004h-8.666c-.369 0-.667-.448-.667-1s.298-1 .667-1h8.666c.369 0 .667.448.667 1s-.298 1-.667 1z"/>
        <path d="M19.006 19.004c-.266.002-.521-.103-.71-.29-.19-.188-.296-.443-.296-.71 0-.267.106-.522.296-.71l1.3-1.29-1.3-1.29c-.392-.392-.392-1.028 0-1.42.392-.392 1.028-.392 1.42 0l2 2c.19.188.296.443.296.71 0 .267-.107.522-.296.71l-2 2c-.189.187-.444.292-.71.29z"/>
    </g>
</svg>
