<svg xmlns="http://www.w3.org/2000/svg" xmlns:xlink="http://www.w3.org/1999/xlink" width="60" height="60" viewBox="0 0 60 60">
    <defs>
        <path id="prefix__a" d="M28 0c15.464 0 28 12.536 28 28S43.464 56 28 56 0 43.464 0 28 12.536 0 28 0zm0 1C13.088 1 1 13.088 1 28s12.088 27 27 27 27-12.088 27-27S42.912 1 28 1zm0 18h.033l.053.004.063.007.052.01c.022.004.043.009.065.015l.046.014.06.021.051.023.061.03.037.022c.025.016.05.032.074.05l.034.028.078.069 6 6c.39.39.39 1.024 0 1.414-.36.36-.928.388-1.32.083l-.094-.083-4.294-4.292L29 36c0 .513-.386.936-.883.993L28 37c-.513 0-.936-.386-.993-.883L27 36l-.001-13.585-4.292 4.292c-.36.36-.928.388-1.32.083l-.094-.083c-.36-.36-.388-.928-.083-1.32l.083-.094 6-6c.028-.029.059-.055.09-.08l.022-.017c.024-.018.049-.034.074-.05l.037-.021c.02-.011.04-.022.06-.031l.053-.023.06-.021.045-.014.065-.016.053-.009.065-.008h.008l.004-.001-.009.001L28 19z"/>
    </defs>
    <g fill="none" fill-rule="evenodd" transform="translate(2 2)">
        <mask id="prefix__b" fill="#fff">
            <use xlink:href="#prefix__a"/>
        </mask>
        <use fill="#222" fill-rule="nonzero" xlink:href="#prefix__a"/>
        <g fill="#FFF" mask="url(#prefix__b)">
            <path d="M0 0H60V60H0z" transform="translate(-2 -2)"/>
        </g>
    </g>
</svg>
