<svg xmlns="http://www.w3.org/2000/svg" width="64" height="64" viewBox="0 0 64 64">
    <g transform="translate(4.594 -3.568)">
        <rect width="64" height="64" rx="5" transform="translate(-4.594 3.568)" style="fill:#f2f4f5"/>
        <path transform="translate(11.406 19.568)" style="opacity:.2;fill:none" d="M0 0h32v32H0z"/>
        <path data-name="패스 4138" d="M26.638 47.4h-9.566v-25h23v6.771" transform="translate(-1.667 .167)" style="stroke-width:1.5px;stroke:#1d1d1d;fill:none"/>
        <path data-name="사각형 2037" transform="translate(20.406 27.568)" style="fill:#f4c215" d="M0 0h13v4H0z"/>
        <path data-name="Icon feather-paperclip" d="M17 9.114 10.384 15.8a4.292 4.292 0 0 1-6.115 0 4.4 4.4 0 0 1 0-6.179l6.619-6.688a2.861 2.861 0 0 1 4.076 0 2.934 2.934 0 0 1 0 4.119l-6.626 6.69a1.431 1.431 0 0 1-2.038 0 1.467 1.467 0 0 1 0-2.06l6.115-6.172" transform="translate(25.403 32.487)" style="stroke:#000;stroke-linejoin:round;stroke-width:1.5px;fill:none"/>
    </g>
</svg>
