<svg xmlns="http://www.w3.org/2000/svg" width="35" height="35" viewBox="0 0 35 35">
    <g>
        <g fill="none">
            <path d="M17.736 22.475a2.872 2.872 0 0 1 3.917 0l5.605 3.825a5.329 5.329 0 0 1 2.042 4.756v8.9a3.415 3.415 0 0 1-3.138 2.744H13.227a3.415 3.415 0 0 1-3.139-2.742v-8.9c-.052-2.013.249-3.366 1.384-4.369z" transform="translate(-24 -13) translate(21.918 -1.703)"/>
            <path fill="#fff" d="M19.695 23.704c-.215 0-.434.093-.634.27l-.1.087-.109.074-6.139 4.128c-.355.345-.673.907-.626 2.742v8.655c.23.624.678 1.043 1.14 1.043h12.935c.462 0 .91-.42 1.14-1.043V30.998c.05-1.747-.445-2.373-1.277-3.118l-5.5-3.753-.103-.07-.093-.083c-.2-.177-.42-.27-.634-.27m0-2c.688 0 1.376.257 1.958.771l5.605 3.825c1.136 1.004 2.119 2.132 2.043 4.756v8.905c-.436 1.634-1.705 2.742-3.139 2.742H13.227c-1.434 0-2.703-1.108-3.14-2.742v-8.905c-.051-2.012.25-3.365 1.385-4.369l6.264-4.212c.582-.514 1.27-.771 1.959-.771z" transform="translate(-24 -13) translate(21.918 -1.703)"/>
        </g>
        <path fill="none" stroke="#fff" stroke-linecap="round" stroke-width="2px" d="M0 0L0 6" transform="translate(-24 -13) translate(41.5 33.5)"/>
    </g>
</svg>
