<svg xmlns="http://www.w3.org/2000/svg" width="24" height="24">
    <g data-name="Icon feather-map-pin">
        <g data-name="패스 4100" style="fill:none;stroke-linecap:round;stroke-linejoin:round">
            <path d="M18.409 8.864c0 5.727-6.955 10.636-6.955 10.636S4.5 14.591 4.5 8.864A7.168 7.168 0 0 1 11.455 1.5a7.168 7.168 0 0 1 6.955 7.364z" style="stroke:none" transform="translate(.5 1.5)"/>
            <path d="M11.455 2.5c-1.58 0-3.068.655-4.191 1.843C6.126 5.548 5.5 7.153 5.5 8.863c0 4.217 4.36 8.099 5.956 9.378a23.151 23.151 0 0 0 2.73-2.578c1.47-1.643 3.223-4.157 3.223-6.8 0-3.508-2.671-6.363-5.954-6.363m0-1c3.84 0 6.954 3.297 6.954 7.364 0 5.727-6.954 10.636-6.954 10.636S4.5 14.59 4.5 8.864C4.5 4.797 7.614 1.5 11.455 1.5z" style="fill:#fff;stroke:none" transform="translate(.5 1.5)"/>
        </g>
        <path data-name="패스 4101" d="M16.5 12a1.5 1.5 0 1 1-1.5-1.5 1.5 1.5 0 0 1 1.5 1.5z" transform="translate(-3.045 -3.068)" style="stroke:#fff;fill:none;stroke-linecap:round;stroke-linejoin:round"/>
    </g>
</svg>
