<svg xmlns="http://www.w3.org/2000/svg" width="116.092" height="35.657" viewBox="0 0 116.092 35.657">
    <defs>
        <style>
            .cls-1{fill:#2b428c;stroke:transparent;stroke-miterlimit:10}
        </style>
    </defs>
    <g id="img_logo" transform="translate(.592 .617)">
        <g id="symbol">
            <g id="그룹_2741" transform="translate(7.448 9.138)">
                <path id="합치기_54" d="M.015 8.618A.23.23 0 0 0 0 8.571a18.332 18.332 0 0 1 4.1-4.45 22.233 22.233 0 0 1 4.736-2.927A11.264 11.264 0 0 1 13.574 0h.054v.067L12.114 1.1c.058 1.381.263 4.884.263 4.884h2.553v.153l-1.735 3.84h-.178l.96-3.587a10.932 10.932 0 0 1-4.249-.039L8.1 9.977h-.178l1.019-3.815v-.174h2.57s.244-3.531.305-4.9a4.118 4.118 0 0 0-1.388.071 22.961 22.961 0 0 0-4.2 4.218A13.026 13.026 0 0 0 4.1 7.025a19.5 19.5 0 0 0 2.331 8.039A10.61 10.61 0 0 1 .015 8.618zm12.9 1.651h1.943v-3h.058l1.326 3.076a2.138 2.138 0 0 1-1.707.843 1.656 1.656 0 0 1-1.624-.919zm-5.033 0h1.942v-3h.054l1.322 3.077a2.141 2.141 0 0 1-1.707.843 1.653 1.653 0 0 1-1.615-.92z" class="cls-1" transform="translate(6.041 .072)"/>
                <path id="패스_2414" fill="#2b428c" d="M61.622 164.4l-.07-.114c-.009-.016-.018-.03-.026-.047a14.2 14.2 0 0 0-.831 2.332c-.269 3.369-.249 6.711-.193 10.367.016.989-.162 1.049-.483 1.242s-1.63.721-1.664.819.009.3.168.322h3.087c.335-1.951.752-4.652.752-4.652a19.713 19.713 0 0 0 2.482 4.638h1.636c3.855 0 7.434-.792 9.815-2.6a20.528 20.528 0 0 1-6.329-6.7 12.077 12.077 0 0 1-8.344-5.607z" transform="translate(-56.679 -153.418)"/>
                <path id="패스_2415" fill="#ff9e18" d="M62.066 162.035a16.68 16.68 0 0 1 1.194-2.177 14.247 14.247 0 0 1-.692-2.95l-.071.041a3.723 3.723 0 0 0-.874 1.227l-.209-1.7-1.171.145c.015.158.034.314.056.473a12.854 12.854 0 0 0 1.767 4.941z" transform="translate(-57.218 -151.214)"/>
                <path id="패스_2416" fill="#e65300" d="M64 161.245a.432.432 0 0 0-.015-.047 16.678 16.678 0 0 0-1.194 2.177l.026.047.07.115a12.077 12.077 0 0 0 8.343 5.6q-.416-.687-.776-1.383a.74.74 0 0 0-.034-.067 10.61 10.61 0 0 1-6.42-6.442z" transform="translate(-57.941 -152.554)"/>
                <path id="패스_2417" fill="#009877" d="M68.278 153.318c-.492.1-1.031.212-1.264.277l-.191-.841a4.14 4.14 0 0 0 .7-.286 6.464 6.464 0 0 0 .329-1.271 3.863 3.863 0 0 0-.22-2.06 3.368 3.368 0 0 0-2.891 1.27 3.114 3.114 0 0 0 .751 1.92l-.321 1.748a16.19 16.19 0 0 0-1.665.736.051.051 0 0 0-.015.008 14.247 14.247 0 0 0 .692 2.95 18.3 18.3 0 0 1 4.095-4.451z" transform="translate(-58.14 -149.126)"/>
                <path id="패스_2419" fill="#b32572" d="M60.036 164.424a14.2 14.2 0 0 1 .831-2.332 12.854 12.854 0 0 1-1.767-4.938c-.022-.158-.041-.314-.056-.473l-2.239.281a.977.977 0 0 0-.615.314.872.872 0 0 0-.167.6l.632 5.1 3.157-.392.223 1.814z" transform="translate(-56.019 -151.272)"/>
            </g>
            <path id="합치기_53" d="M32.468 14.566a.343.343 0 0 1 .3-.465l.611-.126c.143-.03.159-.083.174-.138v-.008c.01 0 .06-.013.075-.016l.134.654-.893.183.431 2.108-.366.076zM2.092 16.615l-1.784-.387c-.136-.029-.167.01-.2.052l-.01.013L0 16.27l.357-1.641.387.084-.211.968 1.685.366c.005-.015.222-1.016.222-1.016a.351.351 0 0 0-.023-.274l-1.842-.4c-.138-.032-.169.006-.206.05l-.008.011-.093-.018.138-.634 1.109.24c0-.015.084-.382.088-.4l-.827-.18c-.136-.029-.166.008-.2.052l-.01.011-.096-.017.139-.634 3.849.837-.117.529S2.014 13.7 2 13.695c0 .014-.082.384-.088.4.012 0 2.34.508 2.34.508l-.114.531-1.315-.286v.018a.754.754 0 0 1-.005.259l-.257 1.181c-.047.215-.161.326-.346.326a.591.591 0 0 1-.123-.017zm31.581-.56l.41-.084-.13-.638c.019 0 .32-.065.34-.069l.132.638 1.98-.407c.145-.029.16-.083.176-.139v-.006l.074-.017c.006.023.132.632.137.654l-3.009.617zm.7-1.494s-.431.089-.452.092c0-.021-.092-.454-.1-.474l.451-.092-.187-.906c.021 0 .35-.071.372-.076 0 .023.506 2.477.511 2.5-.021 0-.348.073-.369.076zm.837.413a1.247 1.247 0 0 1-.39-.711 1.234 1.234 0 0 1 .079-.8.69.69 0 0 1 1.135-.233 1.24 1.24 0 0 1 .39.7 1.263 1.263 0 0 1-.078.808.709.709 0 0 1-.51.427.688.688 0 0 1-.132.013.738.738 0 0 1-.498-.204zm.309-1.383a.5.5 0 0 0-.366.606.538.538 0 0 0 .22.338.46.46 0 0 0 .351.076.466.466 0 0 0 .3-.211.546.546 0 0 0 .07-.4.552.552 0 0 0-.222-.34.467.467 0 0 0-.261-.082.427.427 0 0 0-.097.013zm-6.777-5.866a.338.338 0 0 1 .032-.539l.744-.645c.1-.087.089-.132.078-.184v-.015l.068-.058.429.493-.342.3.918 1.058.342-.3.366.423-1.242 1.075s-1.249-1.438-1.393-1.608zm.393-.12l.918 1.057.332-.287-.918-1.059zM6.516 8.911l-.589-.545c-.1-.094-.149-.079-.2-.058h-.014l-.073-.06.467-.5s.8.733.8.743C6.922 8.478 8.4 6.875 8.4 6.875l.289.269-1.606 1.742a.415.415 0 0 1-.293.151.409.409 0 0 1-.274-.126zM31.194 7.68l.64-.553-.3-.343.282-.244.3.343.283-.244c.1-.088.091-.133.078-.184V6.44l.068-.058.429.5L31.559 8.1zM4.48 7.613a.847.847 0 0 1-.277-.53l-.222.24-.3-.274s.573-.62.585-.631l-.207-.19.411-.443s.195.182.207.191l.578-.623.3.275-.219.234a.879.879 0 0 1 .823.905 1.112 1.112 0 0 1-.993 1.073h-.095a.85.85 0 0 1-.591-.227zm.3-1.124a.5.5 0 0 0 .088.695.5.5 0 0 0 .7.032.5.5 0 0 0-.085-.693.587.587 0 0 0-.392-.161.413.413 0 0 0-.307.128zm24.96-.55a.341.341 0 0 1 .037-.539l.833-.722c.1-.088.091-.133.077-.186v-.013l.068-.06.429.5-.375.327.614.708.377-.327.363.418-1.331 1.147-1.088-1.253zm.4-.118l.613.706.388-.335-.615-.707zM5.6 5.119c-.1-.094-.151-.079-.2-.06h-.015L5.317 5l.467-.5s.537.5.55.51l.3-.321.3.275-.3.321c.01.012.96.892.96.892L7.2 6.6zm17.483-.57l.317-1.055-2.3-.685.113-.385 1.093.325.146-.488-1.262-.376.117-.387 3.293.982-.117.385-1.461-.435-.146.488 1.206.359-.429 1.442zm-9.964-.4c-.1-.346-.22-.774-.22-.774-.037-.136-.086-.146-.139-.157h-.016l-.025-.09.662-.186s.292 1.041.3 1.056c.012 0 2.114-.594 2.114-.594l.107.379-2.282.643a.57.57 0 0 1-.156.024.342.342 0 0 1-.342-.303zm-1.05-1.719l-.342-1.209c-.029-.112-.062-.154-.115-.155h-.04l-.023-.093 2-.563.526 1.873s-1.276.361-1.509.424a.545.545 0 0 1-.15.023.349.349 0 0 1-.347-.3zm.249-1.269c0 .013.311 1.107.313 1.12.015 0 .768-.214.78-.219 0-.015-.31-1.106-.314-1.12zm2-.724C14.273.3 14.226.292 14.171.28h-.016L14.13.186 14.792 0l.667 2.375-.56.157zM23.718 2l.276-.924c-.014 0-2.125-.634-2.125-.634l.117-.385 2.693.8-.39 1.308z" class="cls-1"/>
        </g>
        <g id="type" transform="translate(41.251 6.472)">
            <path id="합치기_56" fill="#3e3a39" stroke="rgba(0,0,0,0)" stroke-miterlimit="10" d="M21.06 12.57V5.863h-2.15V4.42h2.15V0h1.795v12.57zm17.6-2.326C38.665 8.761 40.3 7.93 43 7.93s4.354.83 4.354 2.313-1.646 2.3-4.354 2.3-4.335-.831-4.335-2.299zm1.809 0c0 .653.858.938 2.529.938s2.532-.285 2.532-.938-.853-.953-2.53-.953-2.526.298-2.526.953zm18.04 2.284V0h1.807v12.528zM31.251 10.27a5.977 5.977 0 0 1-4.245 2.23l-.64-1.389c2.721-.326 3.986-1.672 3.986-2.924v-.34h1.8v.34c0 1.252 1.265 2.6 3.986 2.924l-.672 1.389a5.931 5.931 0 0 1-4.215-2.23zM1.893 12.325V8.134h1.8V10.9h6.855v1.428zm60.512-1.265V9.617h4.72v-2.8h1.8v2.8h4.829v1.443zM49.916 9c3.2-1.537 4.583-3.5 4.842-6.269h-4.176V1.306h6.013c0 3.836-1.293 6.965-5.741 9.114zm-37 .721V1.062h5.794V2.5h-4.017v2.04h3.591v1.4h-3.591v2.344a29.208 29.208 0 0 0 4.6-.325l.162 1.441a33.574 33.574 0 0 1-5.524.327zm-4.49-.707V.028h1.804v8.991zm25.493-.573V.015h1.7v8.432zm-2.556-1.1V4.095h-2.194V2.654h2.191V.231h1.672v7.115zm36.65-3.251a6.287 6.287 0 0 1-4.6 3.114l-.734-1.482c2.83-.462 4.38-2.382 4.38-4.122V.7h1.917v.9c0 1.781 1.539 3.66 4.394 4.122l-.734 1.482a6.276 6.276 0 0 1-4.627-3.109zM37.386 7.209V5.741h11.33v1.468zM0 4A3.227 3.227 0 0 1 3.416.818 3.215 3.215 0 0 1 6.817 4a3.223 3.223 0 0 1-3.4 3.171A3.236 3.236 0 0 1 0 4zm1.755 0a1.568 1.568 0 0 0 1.661 1.62A1.55 1.55 0 0 0 5.062 4a1.546 1.546 0 0 0-1.646-1.633A1.564 1.564 0 0 0 1.755 4zm23.687 3.128V1.1H27.2v4.57a16.549 16.549 0 0 0 3.236-.407l.164 1.443a18.312 18.312 0 0 1-4.311.422zM38.76 4.869V.353h8.6v1.43h-6.818v1.673h6.883v1.413z" transform="translate(0 10.929)"/>
            <path id="합치기_55" d="M28.68 7.632V5.593h-4.264v-.7h2.026v-.986h-2.344V3.2h6.062v.7h-2.705v.983h2.24v2.749zM5.33 7.554V3.031h-.776v4.523h-.945v-2.55l-.058.025a1.212 1.212 0 0 1-.455.092L.9 5.116a.634.634 0 0 1-.712-.73V.941C.195.667.105.618.013.567L0 .56V.413h3.006v.7h-1.8v3.3h1.9a.648.648 0 0 0 .494-.151L3.61.684c0-.274-.088-.321-.18-.372L3.42.306V.162h1.135v2.143h.777V.687c0-.274-.085-.323-.178-.374L5.14.306V.162h1.13v7.392zm36.287-.005a.632.632 0 0 1-.713-.724V5.659c0-.273-.089-.319-.182-.372l-.014-.006v-.144h1.2v1.709h3.877v.7zm-23.463 0a.638.638 0 0 1-.715-.726V5.304c0-.277-.088-.325-.181-.374l-.014-.007v-.144h1.2v2.068h3.982v.7zm-8.295 0a.643.643 0 0 1-.709-.726V5.3c0-.276-.089-.325-.183-.374l-.011-.007v-.144h1.2v2.07h3.982v.706zM33.22 6.82V4.869c0-.274-.086-.321-.178-.373l-.014-.008v-.143h1.2v.893h2.708v-.9h1.019v3.2h-4.022a.64.64 0 0 1-.713-.718zm1.012.024h2.705v-.913h-2.708zM44.684 5.9v-.782H43.51v-.651h1.174V.684c0-.278-.089-.325-.183-.374L44.489.3V.156h1.2V5.9zm-3.261-.976v-.859h-1.668v-.7h4.6v.7H42.3v.859zm-20.089-.149V.686c0-.276-.088-.322-.18-.374l-.012-.007V.16h1.2v4.615zm-8.27 0V.686c0-.276-.089-.324-.182-.374h-.013V.16h1.2v1.419h.793V2.3h-.792v2.475zm-2.853-.705A1.838 1.838 0 0 1 8.9 3.561a1.626 1.626 0 0 1-.538-1.227 1.614 1.614 0 0 1 .357-1.046l.026-.034h-.609V.532h1.553V0h1.052v.532h1.547v.723h-.608l.027.034a1.615 1.615 0 0 1 .357 1.044 1.636 1.636 0 0 1-.536 1.227 1.855 1.855 0 0 1-1.309.507zm-.835-1.745a.949.949 0 0 0 .839 1.027.737.737 0 0 0 .525-.23 1.129 1.129 0 0 0 .31-.8 1.127 1.127 0 0 0-.311-.8.741.741 0 0 0-.524-.23.952.952 0 0 0-.839 1.033zm7.088.856V.807c0-.193-.024-.321-.143-.361l-.047-.018V.285h3.719v3.63h-2.818a.647.647 0 0 1-.71-.734zm1.015.039h1.51V.981H17.48zm19.468-1.078h-.866v-.693h.866V.686c0-.277-.088-.326-.182-.376L36.754.3V.159h1.2v3.655h-1.006l-.001-1.672zm-4.332 1.585A.636.636 0 0 1 31.91 3V.812c0-.277-.089-.324-.182-.376L31.713.43V.285h1.2v.988h1.825V.285h1.01v3.442zm.3-1.762v1.06h1.825V1.963h-1.823zm7.627.722a1.319 1.319 0 0 1 0-2.171 2.387 2.387 0 0 1 2.783 0 1.317 1.317 0 0 1 0 2.171 2.389 2.389 0 0 1-2.783 0zm.715-1.706A.87.87 0 0 0 41 1.6a.921.921 0 0 0 .94.9.952.952 0 0 0 .678-.277.869.869 0 0 0 .259-.616.881.881 0 0 0-.267-.628.966.966 0 0 0-1.353 0zm-12.791 1.8V.992h-3.944V.29h4.955v2.487z" class="cls-1" transform="translate(.587)"/>
        </g>
    </g>
</svg>
