<svg xmlns="http://www.w3.org/2000/svg" width="48" height="48" viewBox="0 0 48 48">
    <g fill="none" fill-rule="evenodd">
        <path stroke="#484848" stroke-width="2.5" d="M18.82 1.36h-16c-.207 0-.395.084-.53.22-.136.135-.22.323-.22.53v26.75h17.5V2.11c0-.207-.084-.395-.22-.53-.135-.136-.323-.22-.53-.22z" transform="translate(8 9.6)"/>
        <path stroke="#484848" stroke-width="2" d="M8.67 21.11H13.15V29.11H8.67z" transform="translate(8 9.6)"/>
        <path fill="#484848" d="M6 6.86H8V8.86H6zM10 6.86H12V8.86H10zM14 6.86H16V8.86H14zM6 12.4H8V14.4H6zM10 12.4H12V14.4H10zM14 12.4H16V14.4H14zM23.44 16.4H25.44V18.4H23.44zM23.44 20.45H25.44V22.45H23.44z" transform="translate(8 9.6)"/>
        <path stroke="#484848" stroke-width="2" d="M28.39 12.11h-9v17h10v-16c0-.276-.112-.526-.293-.707-.18-.181-.43-.293-.707-.293z" transform="translate(8 9.6)"/>
    </g>
</svg>
