<svg xmlns="http://www.w3.org/2000/svg" width="45" height="45" viewBox="0 0 45 45">
    <defs>
        <style>
            .cls-1{fill:#fff;stroke:#000;stroke-width:1.5px}
        </style>
    </defs>
    <g id="ico_mmain_menu_view2" transform="translate(6.027 5)">
        <path id="Op_component_2" d="M20.972 0H4C1.791 0 0 2.279 0 5.091V28h20.972V0z" class="cls-1" transform="translate(8 7.5)"/>
        <path id="Op_component_2-2" d="M22.972 0H0v35h22.972V0z" class="cls-1" transform="translate(.473 .5)"/>
        <path id="Op_component_1" d="M0 0H5.046V5.046H0z" class="cls-1" transform="translate(5.44 6.47)"/>
        <path id="Op_component_3" d="M0 0H5.046V5.046H0z" class="cls-1" transform="translate(5.44 15.707)"/>
        <g id="Group_23" stroke="#000" stroke-width="1.5px" transform="translate(.473 -6)">
            <path id="Fill_5" fill="#f4c215" d="M6.78 0A6.779 6.779 0 1 1 0 6.78 6.779 6.779 0 0 1 6.78 0" transform="translate(19.509 20.339)"/>
            <path id="Stroke_21" fill="none" stroke-miterlimit="10" d="M0 0l4.222 4.788" transform="translate(30.978 32.012)"/>
        </g>
    </g>
</svg>
