<svg xmlns="http://www.w3.org/2000/svg" width="46" height="45">
    <defs>
        <style>
            .cls-1{fill:red;opacity:0}.cls-3{stroke:#000;stroke-width:1.5px;stroke-miterlimit:10;fill:none}
        </style>
    </defs>
    <g id="위임인본인확인" transform="translate(6.027 5)">
        <g id="ico_mymenu_confirm2" transform="translate(-5.338 -.5)">
            <g id="Group_9" data-name="Group 9" transform="translate(3.092 6.284)">
                <path id="Stroke_1" data-name="Stroke 1" d="M18.828 28.636h-8.261l1.205-1.836 1.487-2.457H0V0h34.364v24.341h-10.79l3.713 4.3z" transform="translate(.716 .716)" style="stroke-miterlimit:10;stroke:#000;stroke-width:1.5px;fill:#fff"/>
                <path id="Stroke_3" data-name="Stroke 3" class="cls-3" d="m0 .477 34.275.035" transform="translate(.804 19.056)"/>
                <path id="Stroke_3-2" data-name="Stroke 3" class="cls-3" d="m0 .477 5.4.035" transform="translate(15.122 8.556)"/>
                <path id="Stroke_3-3" data-name="Stroke 3" class="cls-3" d="m0 .477 5.4.035" transform="translate(15.122 11.419)"/>
                <g id="사각형_1488" data-name="사각형 1488" style="stroke:#000;stroke-width:1.5px;fill:#fff">
                    <path style="stroke:none" d="M0 0h6v6H0z" transform="translate(5.5 7)"/>
                    <path style="fill:none" d="M.75.75h4.5v4.5H.75z" transform="translate(5.5 7)"/>
                </g>
            </g>
            <path id="Stroke_10" data-name="Stroke 10" d="M4.831 14.891 0 15.857l.966-4.831L11.593.4a1.366 1.366 0 0 1 1.932 0l1.932 1.931a1.368 1.368 0 0 1 0 1.932z" transform="translate(25.052 -.035)" style="fill:#f4c215;stroke-linecap:round;stroke-linejoin:round;stroke-miterlimit:10;stroke:#000;stroke-width:1.5px"/>
        </g>
    </g>
</svg>
