<svg xmlns="http://www.w3.org/2000/svg" width="70" height="70" viewBox="0 0 70 70">
    <defs>
        <style>
            .cls-4{fill:#ededed}.cls-5{fill:none;stroke:#1d1d1d;stroke-linecap:round;stroke-width:4px}
        </style>
    </defs>
    <g id="ico_noresult" transform="translate(-1008 -445)">
        <ellipse id="타원_240" cx="33.654" cy="4.712" fill="#dedede" rx="33.654" ry="4.712" transform="translate(1009.346 502.885)"/>
        <g id="합치기_52" fill="#fff" stroke="none">
            <path d="M29.952 58.904c-3.91 0-7.7-.765-11.27-2.275-3.447-1.458-6.543-3.546-9.202-6.205-2.66-2.66-4.747-5.755-6.205-9.203C1.765 37.653 1 33.861 1 29.952s.765-7.7 2.275-11.269C4.733 15.235 6.82 12.139 9.48 9.48c2.659-2.66 5.755-4.747 9.203-6.205C22.25 1.765 26.043 1 29.952 1c5.38 0 10.63 1.485 15.183 4.296l.373.23.422-.118 8.048-2.254-2.038 7.282-.143.508.34.404c2.142 2.553 3.813 5.423 4.967 8.533 1.194 3.218 1.8 6.606 1.8 10.071 0 3.91-.765 7.7-2.275 11.27-1.458 3.447-3.546 6.543-6.205 9.202-2.66 2.66-5.756 4.747-9.203 6.205-3.569 1.51-7.36 2.275-11.27 2.275z" transform="translate(1072.614 508.942) rotate(180)"/>
            <path fill="#1d1d1d" d="M29.952 57.904c3.774 0 7.435-.739 10.88-2.196 3.328-1.408 6.317-3.423 8.885-5.991 2.568-2.568 4.583-5.557 5.991-8.885 1.457-3.445 2.196-7.105 2.196-10.88 0-3.346-.585-6.617-1.737-9.724-1.114-3.001-2.728-5.773-4.796-8.237l-.68-.808 1.845-6.587-7.18 2.01-.746-.46C40.214 3.435 35.146 2 29.952 2c-3.775 0-7.435.739-10.88 2.196-3.328 1.408-6.317 3.423-8.885 5.991-2.568 2.568-4.583 5.557-5.991 8.886C2.739 22.517 2 26.178 2 29.953c0 3.774.739 7.434 2.196 10.879 1.408 3.328 3.423 6.317 5.99 8.885 2.569 2.568 5.558 4.583 8.886 5.991 3.445 1.457 7.105 2.196 10.88 2.196m0 2C13.41 59.904 0 46.494 0 29.952S13.41 0 29.952 0c5.76 0 11.141 1.626 15.708 4.445l9.76-2.733-2.518 8.993c4.37 5.206 7.002 11.92 7.002 19.247 0 16.542-13.41 29.952-29.952 29.952z" transform="translate(1072.614 508.942) rotate(180)"/>
        </g>
        <g id="그룹_3658" transform="translate(1067.231 445.673)">
            <rect id="사각형_1310" width="1.346" height="20.192" class="cls-4" rx=".673" transform="translate(4.038)"/>
            <rect id="사각형_1312" width="1.346" height="10.096" class="cls-4" rx=".673" transform="translate(0)"/>
            <rect id="사각형_1311" width="1.346" height="4.038" class="cls-4" rx=".673" transform="translate(4.038 22.212)"/>
        </g>
        <path id="선_531" d="M0 0L17.5 0" class="cls-5" transform="translate(1042.663 466.875) rotate(90)"/>
        <path id="선_532" d="M0 0L0 1.346" class="cls-5" transform="translate(1042.663 490.433)"/>
    </g>
</svg>
