<svg xmlns="http://www.w3.org/2000/svg" width="45" height="45">
    <defs>
        <style>
            .cls-1{fill:#fff}.cls-5,.cls-6{stroke:none}.cls-6{fill:#1d1d1d}
        </style>
    </defs>
    <g id="QR스캔" transform="translate(3 4.497)">
        <g id="패스_257" data-name="패스 257" class="cls-1">
            <path class="cls-5" d="M24.337 36.261-7.29 34.646l-1.9-6.076 6.427-11.82H20.6l6.674 11.803-2.937 7.708z" transform="translate(10 -9.672)"/>
            <path class="cls-6" d="m-2.317 17.5-6.062 11.15 1.65 5.273 30.56 1.561 2.617-6.869L20.163 17.5h-22.48m-.891-1.5h24.246L28.1 28.49l-3.257 8.548-32.694-1.67-2.15-6.877L-3.208 16z" transform="translate(10 -9.672)"/>
        </g>
        <g id="패스_261" data-name="패스 261" class="cls-1">
            <path class="cls-5" d="M16.615 8.007H-3.362c-.145-1.428-.48-4.767-.61-6.444C-4 1.213-4.017.945-4.028.74h21.31a35.87 35.87 0 0 1-.057.821c-.13 1.677-.465 5.018-.61 6.446z" transform="translate(12.424 .075)"/>
            <path class="cls-6" d="m-3.226 1.49.001.015c.112 1.443.378 4.13.54 5.752h18.622c.163-1.622.429-4.31.54-5.754l.002-.013H-3.226M18.012-.075c.037 0 .074.246-.039 1.694-.17 2.192-.68 7.138-.68 7.138H-4.04s-.511-4.944-.681-7.136c-.17-2.192 0-1.631 0-1.631h22.693s.02-.065.039-.065z" transform="translate(12.424 .075)"/>
        </g>
        <g id="패스_3634" data-name="패스 3634" style="fill:#f4c215">
            <path class="cls-5" d="M22.783 8.933H-3.162c-.18-1.528-.62-5.316-.79-7.201-.039-.432-.062-.75-.076-.985H23.65a32.48 32.48 0 0 1-.076.983c-.17 1.885-.61 5.675-.79 7.203z" transform="translate(9.24 5.106)"/>
            <path class="cls-6" d="m-3.22 1.497.015.168c.148 1.643.504 4.749.71 6.518h24.611c.207-1.77.563-4.876.71-6.52l.015-.166h-26.06M24.37-.075c.047 0 .094.272-.05 1.872-.218 2.422-.871 7.886-.871 7.886H-3.828S-4.481 4.221-4.7 1.8c-.218-2.422 0-1.802 0-1.802h29.02s.025-.072.05-.072z" transform="translate(9.24 5.106)"/>
        </g>
        <g id="패스_260" data-name="패스 260" class="cls-1">
            <path class="cls-5" d="M24.968 15.621H-6.229l-.858-13.785V.75h32.931v.793l-.876 14.078z" transform="translate(9.933 11.71)"/>
            <path class="cls-6" d="M-6.337 1.5v.313l.813 13.058h29.787L25.094 1.5h-31.43m-1.5-1.5h34.43v1.567l-.921 14.804H-6.934L-7.837 1.86V0z" transform="translate(9.933 11.71)"/>
        </g>
        <g id="빼기_6" data-name="빼기 6" class="cls-1">
            <path class="cls-5" d="M37.746 16.092H.75V.75h11.683v3.836h13.629V.75h11.684v15.341z" transform="translate(0 18.923)"/>
            <path class="cls-6" d="M36.996 15.342V1.501H26.812v3.835H11.683V1.5H1.5v13.842h35.496m1.5 1.5H0V0h13.182l.001 3.836h12.129V0h13.184v16.841z" transform="translate(0 18.923)"/>
        </g>
        <g id="사각형_133" data-name="사각형 133" style="stroke:#1d1d1d;stroke-width:1.5px;fill:#fff">
            <path class="cls-5" d="M0 0h7.168v2.15H0z" transform="translate(15.77 28.08)"/>
            <path style="fill:none" d="M.75.75h5.668v.65H.75z" transform="translate(15.77 28.08)"/>
        </g>
    </g>
</svg>
