<svg xmlns="http://www.w3.org/2000/svg" width="18" height="18" viewBox="0 0 18 18">
    <g data-name="ico / home">
        <path style="opacity:.5;fill:none" d="M0 0h18v18H0z"/>
        <g data-name="패스 4133" style="stroke-linecap:round;stroke-linejoin:round;fill:none">
            <path d="m4.5 7.9 7-4.9 7 4.9v7.7a1.484 1.484 0 0 1-1.556 1.4H6.056A1.484 1.484 0 0 1 4.5 15.6z" style="stroke:none" transform="translate(-4.5 -2)"/>
            <path d="M11.5 4.831 6 8.681v6.812a.217.217 0 0 0 .056.007h10.888a.217.217 0 0 0 .056-.007V8.681l-5.5-3.85M11.5 3l7 4.9v7.7c0 .773-.696 1.4-1.556 1.4H6.056c-.86 0-1.556-.627-1.556-1.4V7.9l7-4.9z" style="fill:#f8fbff;stroke:none" transform="translate(-4.5 -2)"/>
        </g>
        <g data-name="타원 240" transform="translate(6 5)" style="stroke:#f8fbff;stroke-width:1.5px;fill:#4f68ca">
            <circle cx="6" cy="6" r="6" style="stroke:none"/>
            <circle cx="6" cy="6" r="5.25" style="fill:none"/>
        </g>
        <path data-name="패스 4132" d="m6.863 4.994 2 2-2 2" transform="translate(4.441 4.004)" style="stroke:#f8fbff;stroke-width:1.5px;stroke-linecap:round;stroke-linejoin:round;fill:none"/>
    </g>
</svg>
