<svg xmlns="http://www.w3.org/2000/svg" width="158" height="49.116" viewBox="0 0 158 49.116">
    <path data-name="합치기 57" d="M2.532 35.481a.338.338 0 0 1-.23-.439c.047-.135 1.842-.853 2.284-1.123s.688-.345.667-1.7c-.079-5.009-.1-9.587.265-14.2v-.033l-.31-2.486-4.335.537-.868-6.988a1.189 1.189 0 0 1 .227-.823 1.339 1.339 0 0 1 .847-.43l3.074-.385c.02.218.047.43.077.647a17.6 17.6 0 0 0 2.428 6.765 17.6 17.6 0 0 1-2.427-6.765c-.03-.217-.057-.43-.077-.647l1.609-.2.287 2.327a5.143 5.143 0 0 1 1.2-1.683l.1-.054a.1.1 0 0 1 .02-.012 22.634 22.634 0 0 1 2.285-1.007l.445-2.394a4.252 4.252 0 0 1-1.032-2.63 4.636 4.636 0 0 1 3.97-1.743 5.274 5.274 0 0 1 .3 2.822 9.039 9.039 0 0 1-.452 1.742 5.868 5.868 0 0 1-.963.39l.263 1.153c.32-.089 1.061-.243 1.738-.38a25.133 25.133 0 0 0-5.628 6.1 25.133 25.133 0 0 1 5.628-6.1h.006a30.532 30.532 0 0 1 6.505-4.009A15.55 15.55 0 0 1 26.949.1h.071v.09l-2.079 1.421C25.022 3.5 25.3 8.3 25.3 8.3h3.508v.21l-2.382 5.256h-.245L27.5 8.853a15.007 15.007 0 0 1-5.835-.053l-2.24 4.968h-.242l1.4-5.226V8.3h3.531s.334-4.836.417-6.717a5.662 5.662 0 0 0-1.9.1 31.467 31.467 0 0 0-5.77 5.776 18.044 18.044 0 0 0-2.921 2.262 26.685 26.685 0 0 0 3.2 11.015 35.19 35.19 0 0 0 1.114 1.989 28.129 28.129 0 0 0 8.7 9.178c-3.271 2.477-8.188 3.562-13.487 3.562h-2.252a26.917 26.917 0 0 1-3.409-6.354s-.574 3.7-1.033 6.372zm4.257-20.438c-.03-.052-.061-.1-.095-.156.034.052.065.104.095.156zm-.13-.22a22.919 22.919 0 0 1 1.641-2.98 22.919 22.919 0 0 0-1.641 2.981zm19.378-.657h2.672v-4.108h.077l1.824 4.214a2.943 2.943 0 0 1-2.348 1.155 2.275 2.275 0 0 1-2.226-1.261zm-6.915 0H21.8v-4.108h.071l1.821 4.214a2.94 2.94 0 0 1-2.346 1.155 2.272 2.272 0 0 1-2.225-1.261z" transform="translate(10.235 13.135)" style="stroke:transparent;stroke-miterlimit:10;fill:#fff"/>
    <g data-name="그룹 2752">
        <path data-name="합치기 60" d="M3.893 6.048c-.322-.3-.809-.75-.809-.75-.143-.127-.206-.106-.28-.08l-.021.007-.094-.087.641-.691s1.092 1.007 1.106 1.018l2.05-2.209.4.368S4.862 5.8 4.67 6.01a.568.568 0 0 1-.4.209.555.555 0 0 1-.377-.171zM1.1 4.267a1.152 1.152 0 0 1-.38-.724l-.306.328L0 3.494s.787-.846.8-.863L.518 2.37l.566-.606s.267.249.284.261l.794-.853.411.378-.3.32a1.177 1.177 0 0 1 .752.325 1.163 1.163 0 0 1 .38.915 1.428 1.428 0 0 1-.409.991 1.448 1.448 0 0 1-.955.478c-.043 0-.087.006-.129.006a1.169 1.169 0 0 1-.812-.318zm.419-1.539a.682.682 0 0 0 .121.953.686.686 0 0 0 .955.042.682.682 0 0 0-.115-.948.8.8 0 0 0-.539-.221.563.563 0 0 0-.427.174zM2.637.851C2.494.722 2.432.74 2.357.769l-.018.007-.095-.087L2.885 0l.757.7.409-.44.409.374-.409.441A737.84 737.84 0 0 0 5.37 2.3l-.542.582z" transform="translate(5.06 6.779)" style="stroke:transparent;stroke-miterlimit:10;fill:#fff"/>
        <path data-name="합치기 61" d="m2.164 5.682-.3-1.059c-.05-.189-.118-.2-.192-.217h-.023l-.034-.123.911-.254s.4 1.426.409 1.445c.017-.008 2.9-.816 2.9-.816l.147.519-3.136.882a.8.8 0 0 1-.216.033.467.467 0 0 1-.466-.41zM.714 3.329.246 1.672c-.04-.153-.085-.21-.159-.212H.036L0 1.332 2.745.561l.722 2.565s-1.752.5-2.071.582a.748.748 0 0 1-.2.031.485.485 0 0 1-.482-.41zm.345-1.737c0 .016.426 1.515.428 1.534.021-.007 1.054-.295 1.073-.3-.007-.019-.427-1.513-.432-1.532zM3.8.6C3.745.415 3.681.4 3.6.384h-.022L3.549.255 4.457 0l.917 3.253-.768.217z" transform="translate(15.866 .616)" style="stroke:transparent;stroke-miterlimit:10;fill:#fff"/>
        <path data-name="패스 2426" d="m46.262 155.161.128.027.014-.015c.05-.06.092-.111.279-.071 0 0 1.118.241 1.135.246 0 .02-.115.523-.12.544l-1.523-.33-.189.869.126.027.013-.017c.05-.06.093-.112.281-.069l2.53.546a.473.473 0 0 1 .031.375s-.3 1.372-.3 1.392l-2.317-.5c0-.019.29-1.326.29-1.326l-.531-.115-.492 2.256.13.029.014-.016c.05-.059.091-.111.28-.071l2.45.529a.487.487 0 0 0 .652-.425c.076-.355.353-1.619.353-1.619a1 1 0 0 0 .007-.356v-.023l1.805.391.158-.728s-3.2-.693-3.216-.7c.006-.021.114-.526.119-.545.018.006 3.216.7 3.216.7l.16-.726-5.288-1.146z" transform="translate(-45.617 -136.089)" style="fill:#fff"/>
        <path data-name="합치기 59" d="m2.723 6.15.433-1.445L0 3.767l.156-.528 1.5.446.2-.667L.12 2.5l.159-.53L4.8 3.316l-.158.528-2-.6-.2.667 1.656.493-.593 1.979zM3.6 2.664 3.972 1.4 1.052.53l.16-.53 3.7 1.1-.536 1.795z" transform="translate(28.993 .697)" style="stroke:transparent;stroke-miterlimit:10;fill:#fff"/>
        <path data-name="합치기 58" d="M.162 4.529a.462.462 0 0 1 .047-.738l1.019-.884c.14-.118.123-.182.107-.252l-.005-.02.094-.08.59.677-.468.405 1.26 1.45.47-.405.5.577L2.077 6.73zM.7 4.363l1.259 1.45.457-.394L1.162 3.97zm2.831.1.877-.759L4 3.237l.387-.337.409.469.39-.335c.137-.12.123-.182.106-.255V2.76l.092-.08.591.679L4.032 5.04zm-1.99-2.381a.461.461 0 0 1 .051-.736c.333-.29 1.144-.99 1.144-.99.137-.123.123-.184.107-.256L2.836.083 2.93 0l.589.679L3 1.127l.844.969.517-.447.5.572L3.034 3.8zm.544-.163.844.969.534-.46-.844-.969z" transform="translate(39.325 6.67)" style="stroke:transparent;stroke-miterlimit:10;fill:#fff"/>
        <path data-name="패스 2432" d="M94.3 155.151a.95.95 0 0 1 1.56-.319 1.7 1.7 0 0 1 .535.966 1.721 1.721 0 0 1-.108 1.1.949.949 0 0 1-1.561.32 1.719 1.719 0 0 1-.536-.973 1.7 1.7 0 0 1 .11-1.094zm-.028-.015zm1.666.759a.746.746 0 0 0-.3-.465.625.625 0 0 0-.483-.1.687.687 0 0 0-.5.831.737.737 0 0 0 .3.464.62.62 0 0 0 .891-.185.733.733 0 0 0 .089-.54zm-3.193.634-1.229.251.593 2.888-.5.1-.639-3.108a.471.471 0 0 1 .412-.637l.838-.172c.2-.04.216-.113.239-.189v-.011l.1-.022c.004.035.176.871.182.9zm1.653 1.558-.508.1-.315-1.531-.619.127-.134-.651.619-.127-.256-1.241.509-.1.7 3.423zm2.508.525-4.131.845c-.007-.03-.149-.721-.154-.751l.564-.115-.18-.874.468-.1.18.874 2.721-.557c.2-.041.219-.114.241-.19v-.01l.1-.022c.009.035.185.869.185.9z" transform="translate(-46.353 -136.094)" style="fill:#fff"/>
    </g>
    <g data-name="그룹 2758">
        <path data-name="패스 2433" d="M112.664 145.627v10.127h-1.294v-6.2h-1.07v6.194H109v-3.493l-.081.032a1.635 1.635 0 0 1-.626.127h-3.011a.87.87 0 0 1-.979-1v-4.719c0-.378-.121-.444-.248-.514l-.019-.01v-.2h4.129v.963h-2.467v4.522h2.615a.89.89 0 0 0 .676-.213l.008-4.9c0-.376-.12-.44-.246-.509l-.016-.009v-.2h1.559v2.937h1.069v-2.216c0-.376-.119-.442-.246-.513l-.018-.009v-.2z" transform="translate(-46.566 -135.923)" style="fill:#fff"/>
        <g data-name="그룹 2755">
            <path data-name="패스 2434" d="M118.208 152.074v2.835l5.471-.006v.968H117.8a.882.882 0 0 1-.975-1v-2.079c0-.379-.121-.444-.251-.513l-.016-.009v-.2z" transform="translate(-46.77 -136.047)" style="fill:#fff"/>
            <g data-name="그룹 2754">
                <path data-name="패스 2435" d="M122.022 145.625h1.651v1.944h1.09v.991h-1.089v3.388h-1.384v-5.6c0-.38-.122-.444-.25-.513l-.018-.009z" transform="translate(-46.858 -135.923)" style="fill:#fff"/>
                <path data-name="패스 2436" d="M118.991 145.4v.728h2.124v.99h-.835l.038.047a2.2 2.2 0 0 1 .489 1.428v.006a2.232 2.232 0 0 1-.738 1.68 2.676 2.676 0 0 1-3.6 0 2.31 2.31 0 0 1-.25-3.114l.037-.047h-.844v-.991h2.136v-.727zm-1.875 3.185a1.3 1.3 0 0 0 1.152 1.407 1.027 1.027 0 0 0 .723-.315 1.621 1.621 0 0 0 0-2.19 1.025 1.025 0 0 0-.721-.315 1.306 1.306 0 0 0-1.154 1.415z" transform="translate(-46.751 -135.919)" style="fill:#fff"/>
            </g>
        </g>
        <g data-name="그룹 2756">
            <path data-name="패스 2437" d="M135.227 145.625v6.323h-1.386v-5.6c0-.379-.121-.443-.249-.513l-.017-.01v-.2z" transform="translate(-47.045 -135.923)" style="fill:#fff"/>
            <path data-name="패스 2438" d="M131.886 145.8v4.972h-3.872a.885.885 0 0 1-.974-1.005v-3.251c0-.265-.033-.44-.2-.494l-.068-.025v-.2zm-5.043.223zm3.636.731h-2.045v3.067h2.076v-3.067z" transform="translate(-46.935 -135.926)" style="fill:#fff"/>
            <path data-name="패스 2439" d="M129.783 152.075v2.834h5.47v.963h-5.872a.877.877 0 0 1-.983-1v-2.079c0-.379-.122-.444-.25-.514l-.017-.009v-.2z" transform="translate(-46.957 -136.046)" style="fill:#fff"/>
        </g>
        <path data-name="패스 2440" d="M156.948 151.467v4.386h-5.528a.877.877 0 0 1-.981-1v-2.672c0-.375-.119-.44-.247-.51l-.018-.011v-.2h1.651v1.225h3.72v-1.226zm-1.431 2.175h-3.69v1.252h3.719v-1.251z" transform="translate(-47.315 -136.035)" style="fill:#fff"/>
        <path data-name="패스 2441" d="M160.655 149.082a1.8 1.8 0 0 1 0-2.972 3.286 3.286 0 0 1 3.824 0 1.8 1.8 0 0 1 0 2.973 3.046 3.046 0 0 1-1.918.614 3.011 3.011 0 0 1-1.906-.615zm-.036.046zm1.948-2.761a1.311 1.311 0 0 0-.934.381 1.187 1.187 0 0 0-.357.845 1.265 1.265 0 0 0 1.292 1.231 1.311 1.311 0 0 0 .931-.38 1.188 1.188 0 0 0 .356-.845 1.2 1.2 0 0 0-.36-.854 1.3 1.3 0 0 0-.928-.378zm-.033 6.074v2.34h5.329v.963h-5.735a.867.867 0 0 1-.98-.993v-1.6c0-.373-.121-.438-.249-.508l-.018-.01v-.2zm3.357-2.435v.966h-2.826v1.178h-1.2v-1.177h-2.29v-.967zm1.838-4.386v7.868h-1.385v-1.073h-1.613v-.892h1.613v-5.183c0-.379-.122-.443-.25-.512l-.017-.01v-.2z" transform="translate(-47.468 -135.921)" style="fill:#fff"/>
        <g data-name="그룹 2757">
            <path data-name="패스 2442" d="M145.1 145.806v3.408h-1.391v-2.445h-5.42v-.962z" transform="translate(-47.123 -135.927)" style="fill:#fff"/>
            <path data-name="패스 2443" d="M146.031 149.875v.962h-3.718v1.347h3.077v3.759H144v-2.794h-5.86v-.962h2.785v-1.348h-3.223v-.965z" transform="translate(-47.113 -136.005)" style="fill:#fff"/>
        </g>
        <path data-name="패스 2444" d="M156.918 145.623v5.008h-1.388v-2.292h-1.19v-.949h1.19v-1.046c0-.379-.12-.444-.247-.514l-.018-.009v-.2zm-3.03.174v4.715h-4.308a.875.875 0 0 1-.971-1v-2.992c0-.379-.122-.444-.25-.514l-.017-.009v-.2h1.655v1.352h2.503V145.8zm-1.417 2.3h-2.478v1.452h2.507V148.1z" transform="translate(-47.286 -135.923)" style="fill:#fff"/>
    </g>
    <g data-name="그룹 2759">
        <path data-name="패스 2445" d="M107.921 170.487a4.362 4.362 0 1 1 4.672-4.342 4.437 4.437 0 0 1-4.672 4.342zm0-2.125a2.227 2.227 0 1 0-2.28-2.218 2.15 2.15 0 0 0 2.28 2.219zm9.792 7.23v1.956h-11.886v-5.739h2.466v3.783zm-.43-2.572H114.8V160.7h2.485z" transform="translate(-46.553 -136.212)" style="fill:#fff"/>
        <path data-name="패스 2446" d="M123.709 172.014a40.491 40.491 0 0 0 6.317-.446l.224 1.974a46.433 46.433 0 0 1-7.588.447h-1.4V162.12h7.962v1.98h-5.513v2.794h4.934v1.92h-4.934zm11.213-11.348v17.218h-2.466V168.7H129.5v-1.975h2.953v-6.056z" transform="translate(-46.846 -136.211)" style="fill:#fff"/>
        <path data-name="패스 2447" d="M145.842 169.853a25.255 25.255 0 0 1-5.924.578h-1.159v-8.255h2.411v6.261a22.694 22.694 0 0 0 4.448-.559zm2.131 2.031c0 1.714 1.738 3.559 5.476 4.006l-.916 1.9c-2.765-.391-4.747-1.528-5.793-3.056-1.047 1.528-3.047 2.665-5.831 3.056l-.879-1.9c3.738-.447 5.476-2.292 5.476-4.006v-.467h2.467zm-1.084-5.61h-3.009V164.3h3.009v-3.317h2.3v9.746h-2.3zm5.849 5.963H150.4v-11.552h2.335z" transform="translate(-47.13 -136.211)" style="fill:#fff"/>
        <path data-name="패스 2448" d="M171.009 168.539v2.013h-15.568v-2.013zm-1.869 6.168c0 2.013-2.262 3.15-5.98 3.15s-5.962-1.137-5.962-3.15c0-2.031 2.243-3.167 5.962-3.167s5.98 1.135 5.98 3.167zm.093-7.36h-11.9v-6.187h11.807v1.957h-9.362v2.292h9.456zm-2.6 7.36c0-.895-1.178-1.3-3.477-1.3s-3.476.41-3.476 1.3 1.178 1.286 3.476 1.286 3.48-.393 3.48-1.286z" transform="translate(-47.401 -136.22)" style="fill:#fff"/>
        <path data-name="패스 2449" d="M182.116 162.455c0 5.255-1.776 9.54-7.887 12.484L172.94 173c4.392-2.1 6.3-4.789 6.653-8.589h-5.737v-1.957zm5.12-1.789v17.162h-2.485v-17.162z" transform="translate(-47.685 -136.211)" style="fill:#fff"/>
        <path data-name="패스 2450" d="M205.969 173.859v1.975h-15.587v-1.975h6.485v-3.838h2.467v3.838zm-1.533-3.3a8.625 8.625 0 0 1-6.354-4.268 8.637 8.637 0 0 1-6.317 4.268l-1.009-2.031c3.888-.634 6.018-3.261 6.018-5.646v-1.23h2.635v1.23c0 2.44 2.112 5.012 6.036 5.646z" transform="translate(-47.969 -136.23)" style="fill:#fff"/>
    </g>
</svg>
